<svg id="Lag_1" data-name="Lag 1" xmlns="http://www.w3.org/2000/svg" viewBox="0 0 305.21 462.73"><defs><style>.cls-1{fill:none;stroke:#1e1e1c;stroke-miterlimit:10;}</style></defs><path class="cls-1" d="M154.82,154.88c-1.48-.13-3-.19-4.45-.3-4.53-.33-5.55-.52-7.12,0a6.68,6.68,0,0,0-3.85,2.67c-.92,1.56-.42,2.85-.3,7.71,0,0,0,.8,0,1.82,0,0,0,1,0,2,0,4.75-.22,6.49,0,9.19.27,3.29.69,3.33.89,6.82.06.87.06,1.44,0,5.63-.11,7.67-.17,8.22-.29,8.9a26.94,26.94,0,0,1-2.37,7.11,32.44,32.44,0,0,1-4.75,6.82c-1.86,2.23-3,3.24-5.93,6.23-5.28,5.34-4.7,5.12-7.11,7.41a89.69,89.69,0,0,1-11.86,9.19c-4.54,3.13-5.13,3.18-9.78,6.52-3.46,2.49-4,3.11-6.82,5-4.19,2.9-6.33,3.87-9.78,5.93-5.66,3.37-11.49,6.84-16.61,12.75-2.41,2.79-1.38,2.32-7.41,10.37-3.76,5-4.83,6.1-6.52,8.9a47.6,47.6,0,0,0-5,11.85c-2.86,9.74-2.32,17.82-1.48,30.54.47,7.09,1.25,12.63,1.78,16.3.22,1.55,1.2,8.29,3,16.6A330.66,330.66,0,0,0,59.36,398c4.11,12.09,8.87,23.18,18.38,45.36,9.73,22.71,12.57,28.1,15.12,32.61,11.93,21.12,20.12,27.44,23.71,29.94,8.07,5.62,15.44,7.71,21.94,9.49,24.34,6.65,45.21,1.74,60.18-1.78,10.86-2.56,21.34-5.12,33.2-12.75a84.78,84.78,0,0,0,19-16.6c9.07-10.8,12.82-21,17.49-34.09,1.85-5.19,4.81-16.87,10.67-40,3.18-12.56,4.76-18.83,5-20.16,1.24-6,2.82-14.67,5.34-49.81,1.59-22.19,1.56-27,.89-33.2-.93-8.61-1.85-16.44-6.23-25.5-5.46-11.28-13.17-18-20.45-24.3-7.62-6.62-14.37-10.66-21.35-14.83-6.33-3.78-12.33-6.88-22.53-12.15-11-5.67-13.37-6.58-18.08-10.08-5.42-4-5.71-5.38-12.16-9.78-3.11-2.13-4.62-2.89-5.93-5-2-3.23-1.46-6.31-1.18-12.16.38-7.93-.38-5.49,0-14.53.42-10.26,1.4-13.55-.89-18.38-1-2.19-1.7-3.57-3.26-4.74C172.9,151.48,164.79,155.74,154.82,154.88Z" transform="translate(-43.07 -56.43)"/><path class="cls-1" d="M154.84,62a9.69,9.69,0,0,1,1.56-.52,11.28,11.28,0,0,1,2.12-.26,30.23,30.23,0,0,1,3.06,0,21.38,21.38,0,0,1,3,.31,18,18,0,0,1,3,.83" transform="translate(-43.07 -56.43)"/><path class="cls-1" d="M156.5,57.08,155.21,57l-1.53.5-.47.39a3.25,3.25,0,0,1,1.32-.81,6,6,0,0,1,2,0c1.27,0,1.32-.18,2.86-.14.61,0,.77.05,1.61.07,1.4,0,1.43,0,2.34,0a6.24,6.24,0,0,1,2.79.59,2.2,2.2,0,0,1,1,.88c.24.42.15.69.15,1.75,0,1.78.22,1.83,0,2.49-.15.46-.28.51-.66,1.47,0,.1-.25.64-.37,1a8.68,8.68,0,0,0-.07,2.93,10.94,10.94,0,0,1-.15,2.71,4.65,4.65,0,0,1-1,2.49c-.6.68-1.13.68-1.68,1.54a5,5,0,0,0-.51,1.17c-.38,1.06-.29,1.4-.59,2.13a5.49,5.49,0,0,1-.88,1.39s-1.43,1.85-3.08,4c-1.07,1.43-.73,1.15-1.75,2.49-2.63,3.45-2.86,3.73-2.86,3.73a4.58,4.58,0,0,0-1,1.76,3.14,3.14,0,0,0,.08,2c.19.45.33.4,1.1,1.39a9.32,9.32,0,0,1,.95,1.4,6.85,6.85,0,0,1,.66,1.83,8.87,8.87,0,0,1,0,3c-.08.74-.1,2.08-.15,4.76,0,1.25,0,.88,0,4.1,0,.5,0,2.12-.15,4.18a7.39,7.39,0,0,1-.43,2.63,9.31,9.31,0,0,1-1.32,2.13c-.66.8-1.07,1-1.1,1.61a2.25,2.25,0,0,0,.51,1.32A4.65,4.65,0,0,0,154,123.3a4.29,4.29,0,0,0,2.35.8,3.53,3.53,0,0,0,2.63-.8,2.91,2.91,0,0,0,1-2.2,2.76,2.76,0,0,0-.52-1.32c-.72-1.15-1.47-1.19-2.12-2.12a4.5,4.5,0,0,1-.66-2.06,15.73,15.73,0,0,1,0-4.17c.11-2-.11-1.66-.07-4.83,0-2.67.18-2.39.14-4.25a34.76,34.76,0,0,1,0-4,5.19,5.19,0,0,1,.66-2.63,6.24,6.24,0,0,1,1.39-1.47c.9-.72,1.22-.65,1.69-1.24.31-.4.24-.53.73-1.69a9.37,9.37,0,0,1,1-2,5.83,5.83,0,0,1,1.9-1.61,8.59,8.59,0,0,1,3-1.1,6.76,6.76,0,0,1,2.64,0,7.35,7.35,0,0,1,1.76.66,8,8,0,0,1,2.27,1.9A8.26,8.26,0,0,1,175,91.07a8.72,8.72,0,0,1,.66,2.71,19,19,0,0,1,0,4s-.05,2.91-.15,8.65c-.05,3.06-.07,4.6-.07,5.78a43,43,0,0,0,0,5.79,7.68,7.68,0,0,1-.07,2.93,7.24,7.24,0,0,1-.74,1.83,26.16,26.16,0,0,1-2.78,3.81c-2.44,3.32-2.48,3.31-3.22,4.39-2,2.92-1.86,3.18-3.22,4.84-.12.14-.87,1.05-1.76,2.34a9,9,0,0,0-1.25,2.2,6.94,6.94,0,0,0-.36,2.34c0,2.21,0,3.84.07,5.06.07,2.44,0,2.8.07,5.93,0,.74.06,1.35.08,1.76" transform="translate(-43.07 -56.43)"/><path class="cls-1" d="M153.28,57.41c0,.43,0,1.12,0,2a21.47,21.47,0,0,0,0,2.71c.13,1.06.32,1,.52,2.12a22.41,22.41,0,0,1,.07,3.37,10.55,10.55,0,0,0,.29,3A6.55,6.55,0,0,0,156,73.45c.59.5,1.07.69,1.18,1.25s-.1.81-.52,1.46a13.77,13.77,0,0,1-1.75,2.2,31.21,31.21,0,0,0-3.67,4.83c-.94,1.39-.7,1.17-1.39,2.13-1.51,2.1-2.23,2.53-2.56,3.88-.24,1,.08,1-.22,2A8.7,8.7,0,0,1,145.59,94c-.7,1-.82.9-1.24,1.61a8,8,0,0,0-.95,2.71,15.23,15.23,0,0,0,0,3.45c0,.16,0,0,0,3.66,0,4.24,0,4.1,0,4.32-.12,2.44-.37,3-.15,4.54a7.77,7.77,0,0,0,.66,2.49c.68,1.43,1.41,1.65,2.2,2.93s.61,1.94,1,3.22a9.7,9.7,0,0,0,4.91,5.5,9.86,9.86,0,0,0,7.1.44,10,10,0,0,0,5.2-4c.67-1.1,1.46-2.4,1.18-3.81a2.43,2.43,0,0,1-.15-1.25c.22-.9,1.11-1,2-1.9a6,6,0,0,0,1.39-3,14.39,14.39,0,0,0,.29-3.67c0-1.82-.08-2.13-.15-4.54s0-2.36-.07-4.32c-.11-2.42-.21-2-.22-3.44s.1-1.85-.22-2.49a5.56,5.56,0,0,0-1.61-1.9,2.6,2.6,0,0,1-.66-.59,2,2,0,0,1-.36-1.54,2,2,0,0,1,1.17-1.32,2.33,2.33,0,0,1,1.46-.07,2.72,2.72,0,0,1,1.47.88,3.52,3.52,0,0,1,.58,2.49,25.13,25.13,0,0,1-.36,2.64,27.89,27.89,0,0,0,0,3c0,1.54,0,1.55,0,2.85,0,.86,0,1.41.07,3.37.06,2.16.1,3.85.15,5.94.05,2.79,0,.2,0,3.15a12.49,12.49,0,0,1-.15,2.49,8.8,8.8,0,0,1-.51,1.75,9.5,9.5,0,0,1-1.1,1.91c-1.75,2.44-1.85,2.53-2.27,3.15-1.21,1.74-1.15,2-2.49,3.88-.62.86-1.13,1.51-1.39,1.83-.79,1-1,1.13-2.27,2.56a19.47,19.47,0,0,0-2.49,3.15,7.44,7.44,0,0,0-.88,1.91,9,9,0,0,0-.15,3.29c.07,1.3,0,2.59,0,3.89.07,3.62-.05,6.31-.07,7.39s-.06,1.82-.08,2.35h5.86" transform="translate(-43.07 -56.43)"/><path class="cls-1" d="M140,193.14c2.25.13,5,.26,8,.31,1.29,0,3.65.05,6.63,0,6-.1,9-.44,12.65-.61a106.67,106.67,0,0,1,14.49.3" transform="translate(-43.07 -56.43)"/><path class="cls-1" d="M277.26,417.52a27.07,27.07,0,0,1,6.13.35c2.87.5,3.36,1.08,6.8,2,3.1.8,5.85,1.48,9.24,1.08,2.28-.26,4.42-.52,6.11-2.21a8.45,8.45,0,0,0,2.48-6.15,7.67,7.67,0,0,1,0-3.3,3.57,3.57,0,0,1,1.26-2c.71-.49,1.07-.21,1.69-.72a3.72,3.72,0,0,0,1.05-2.16,9.2,9.2,0,0,0,.25-2.14c0-1.77,0-3.19-.08-4.24,0-.45.14-.83-.09-1.15s-.77-.44-1.89-.45c-1.31,0-2.35.08-2.87.12a16.81,16.81,0,0,1-2.87.13c-1.24-.09-1.58-.3-1.76-.55s-.14-.29-.17-1.51c0-.86,0-1.36,0-1.94,0-1.41.07-1.55.2-1.69.33-.35.9-.32,1.85-.24a12.63,12.63,0,0,1,2,.35c1.76.41,1.81.16,2.91.46.07,0,.56.14,1.23.25.92.15,1.13.09,1.25,0,.49-.21.42-.68.82-1.16a3.27,3.27,0,0,1,3.7-.36,5.57,5.57,0,0,1,1.05.8c.71.65.66.83,1,1,.58.33,1.09.09,2.41-.06,1.16-.14,1.08,0,2.18-.09.84-.09,1-.17,2-.23a4.29,4.29,0,0,1,1.7.09,2,2,0,0,1,1.17.7c.23.35.2.81.14,1.73a11.94,11.94,0,0,1-.14,1.24c-.18,1.18-.15,1.35-.3,1.57a1.79,1.79,0,0,1-1.22.65,8.92,8.92,0,0,1-4.62-.54c-1.84-.56-2.49-1-3.13-.59a2.57,2.57,0,0,0-.86,1.5c-.24.79,0,.93-.26,2.25-.14.77-.24.9-.14,1.24.16.59.58.6.88,1.25.12.26,0,.28.16,1.5a11.64,11.64,0,0,1,.15,1.73c-.06.77-.25.84-.14,1.13.22.56,1,.43,2.05,1a4.12,4.12,0,0,1,1.65,1.56,5,5,0,0,1,.41,2.33,23.78,23.78,0,0,1-.1,2.85,15.2,15.2,0,0,0-.15,2.26,6.74,6.74,0,0,0,1,2.87,9.09,9.09,0,0,0,2.33,2.55,14.06,14.06,0,0,0,4.11,2,53.7,53.7,0,0,1,7.08,3,21.67,21.67,0,0,1,3.82,2.51,20.06,20.06,0,0,1,3.65,4,17.14,17.14,0,0,1,2.71,6.15c0,.21.15,1.68.37,4.61,0,0,.1,1.37.22,6,0,1.39,0,1.55-.1,1.82-1.17,2.44-7.58,2.8-9.4.27a5.76,5.76,0,0,1-.72-1.68,10.22,10.22,0,0,1-.26-3.57,38.71,38.71,0,0,0,.05-4.79,7.76,7.76,0,0,0-1.42-4.05,7.38,7.38,0,0,0-2.18-1.86,9.78,9.78,0,0,0-3.18-1.17,11.3,11.3,0,0,0-3.42-.05c-2.26.22-2.27.62-5.15,1.11-1.07.17-.84.08-4.18.54-1.88.25-1.88.27-2.32.3a27.21,27.21,0,0,1-4.31-.28c-1.42-.15-2.13-.23-2.48-.29a24.8,24.8,0,0,1-4.75-1.35c-1.11-.41-2.12-.85-3.49-1.44-.69-.3-.91-.45-1.41-.62a10.75,10.75,0,0,0-3.15-.37c-.69,0-.24-.05-3.94-.57a31.93,31.93,0,0,0-3.38-.4c-1.37-.05-1.19.1-2.63,0a3,3,0,0,0-1.15.09c-.68.23-.82.65-1.37,1s-1,.27-2.21.31c-2,.07-2,.27-2.88.23a7.29,7.29,0,0,1-4.15-1.62" transform="translate(-43.07 -56.43)"/></svg>