<svg id="Lag_3" data-name="Lag 3" xmlns="http://www.w3.org/2000/svg" viewBox="0 0 155.34 474.27"><defs><style>.cls-1,.cls-2{fill:#fff;}.cls-1{stroke:#1e1e1c;}.cls-1,.cls-2,.cls-4{stroke-miterlimit:10;}.cls-2,.cls-4{stroke:#1d1d1b;}.cls-3{fill:#1d1d1b;}.cls-4{fill:none;}</style></defs><path class="cls-1" d="M42.15,90.07c2.41,10.72,1.72,31.75,1.72,31.75-.87,26.65,1.11,22.32-.12,36-.75,8.42-1.09,5.62-5.83,35.13-1.91,11.94-2.36,15.53-4.38,27.75-1.88,11.31-2.89,14.72-4.12,23.71-.78,5.74-1.72,12.71-2.06,21.05-.3,7.32-.06,13.62,1.11,27,.92,10.45,2.1,21.67,5.14,45.7.43,3.41.3,2.35,4,30.66,1.59,12.19,3.55,27.3,3.68,28.29,1.69,13.11,4,26.14,5.1,39.31,0,0,1.72,20.08,5.38,35.27a37.85,37.85,0,0,0,4.68,11.38A42.34,42.34,0,0,0,63.06,491c14.14,12.8,71.92-9.24,99.35-10.5,2.29-.11,9.05-.29,13.74-5,3.34-3.35,4.31-7.67,4.86-11.82,1.72-13-.81-23.11-2.72-33.22-1.33-7.07.48.87-3.88-29.87-2.25-15.85-3.22-21.45-5.79-38.41-3.49-23.07-3.32-23.68-7.22-49.42-4.78-31.59-6.16-37.88-7-41.46C152,260.75,149,248.13,143,232.83c-7.12-18.09-10.09-18.46-21.64-43.55-7.52-16.33-12.4-29.5-15.22-37.19-5.65-15.35-9.17-27-11.88-36-7-23.51-9.34-35.58-10-40.27-.31-2.1-.54-4.39-1.29-8.33-.68-3.56-.9-7.23-1.9-10.72-.41-1.41-.88-2.78-.3-4.29.68-1.8,2.08-1.78,2.86-3.43a6.16,6.16,0,0,0-1.94-7.14c-.84-.62-2.49-.66-5.71-.79-2.17-.09-3.58-.05-3.58-.05-6.56.2-8.5-.08-13,.16-5.74.31-10.2,1.46-19.14,3.76-3.06.79-5.91,1.61-6.88,4a6.31,6.31,0,0,0,.4,5c.86,1.62,1.86,1.67,3.25,3.4a12.59,12.59,0,0,1,2.15,4.82c1,3.24,1,5.94,1,9.56,0,3.07-.21,2.6-.13,4.86a58,58,0,0,0,1.1,8.53C41.51,87,41.68,88,42.15,90.07Z" transform="translate(-26.74 -21.23)"/><path class="cls-1" d="M33.65,40.41c-2.07-1.18-2.21-5.46-1.08-8.3s3.79-4.38,5.44-5.3a18.71,18.71,0,0,1,6.64-2c11.48-2,9.25-2,13.85-2.57,7.24-.84,10.6-.52,13.43.17A10.05,10.05,0,0,1,76,24.17c3.31,2.6,3.64,6.84,3.76,8.33.13,1.69.26,3.34-.64,3.92-1.15.73-2.83-1-6.05-2.29-2.58-1-4.58-1.06-8.58-1.18a46.73,46.73,0,0,0-10.6,1A54.88,54.88,0,0,0,45,36.25C37.61,38.87,35.61,41.53,33.65,40.41Z" transform="translate(-26.74 -21.23)"/><line class="cls-1" x1="1.17" y1="263.75" x2="123.57" y2="240.38"/><line class="cls-1" x1="21.19" y1="432.3" x2="151.55" y2="409.26"/><path class="cls-2" d="M87.61,319.05a50.22,50.22,0,0,0,6.78-.76,50.52,50.52,0,0,0,8.41-2c5.06-1.76,5.73-3.41,11.34-6.19a40.82,40.82,0,0,1,9.5-3.56c8.59-1.81,16,1.2,18.39,2.23,2.9,1.22,13.11,5.54,16.63,15.46.93,2.63,1,5.53,1.11,11.33A76.41,76.41,0,0,1,158,353.89c-.14.6-.14.57-3.52,11.24-4.53,14.35-4.91,15.62-5.51,18.06-1.46,6-1.17,6.5-2.41,9.66s-3,7.5-7.25,11a19.9,19.9,0,0,1-8.9,4.37c-1.78.35-4.1.29-8.73.19-5-.12-5.08-.38-6.94-.14a25.29,25.29,0,0,0-8.25,2.87c-3.8,1.87-4.17,2.69-6.67,4a24.65,24.65,0,0,1-13.4,2.41c-6.74-.72-11.28-4.4-13.59-6.31-5.14-4.27-7.66-9.24-11.95-17.69-1.51-3-1.91-4.13-4.37-8.9-2.67-5.17-5-9.16-5.5-10.08-3.22-5.55-3.67-5.8-6-10a56.25,56.25,0,0,1-4.45-9.34c-1.14-3.36-2.36-6.9-2.09-11.62A25.36,25.36,0,0,1,42,332.33,28.29,28.29,0,0,1,53.53,322a35.18,35.18,0,0,1,11.75-4,44.76,44.76,0,0,1,10.59-.06C81.45,318.38,82.78,319.22,87.61,319.05Z" transform="translate(-26.74 -21.23)"/><path class="cls-3" d="M45.38,337.69a24.52,24.52,0,0,1,8-7.74c2.35-1.4,7.15-3.91,9.53-1.25,1.37,1.55.68,3.92.09,5.65a56.94,56.94,0,0,1-2.4,5.9,61.94,61.94,0,0,1-6.35,10c-2.25,3.09-4.39,6.39-5.09,10.22-.5,2.68-.57,7.47,2.52,8.69s6.74.11,9.33-1.65a18.22,18.22,0,0,0,6.14-8.13c1.35-3.2,2.82-7.31,1.33-10.71s-5.3-4.06-8.57-4.48c-.79-.1-.78,1.15,0,1.25,3.35.43,7.29,1.29,7.85,5.25.47,3.35-1.13,7.21-2.66,10.12-1.71,3.25-4.35,6.13-8,7.18-1.58.46-4,.76-5.46-.25s-1.61-4.12-1.45-5.84c.37-3.85,2.4-7.22,4.6-10.3a74.39,74.39,0,0,0,6.27-9.48c.82-1.6,1.53-3.24,2.19-4.9a22.59,22.59,0,0,0,1.58-5.05c.38-2.68-.84-5.17-3.64-5.68-3.18-.58-6.55,1.16-9.14,2.82a26,26,0,0,0-7.79,7.77c-.44.67.64,1.3,1.08.63Z" transform="translate(-26.74 -21.23)"/><path class="cls-3" d="M67.94,352.45A75.07,75.07,0,0,1,74.36,365c.29.74,1.5.42,1.21-.33A77,77,0,0,0,69,351.82c-.43-.68-1.52-.05-1.08.63Z" transform="translate(-26.74 -21.23)"/><path class="cls-3" d="M74.33,336.55a26.28,26.28,0,0,0,13.79,5.58.62.62,0,0,0,.62-.62c-.43-3.52-.76-7.07-1.31-10.58-.43-2.74-1.25-5.68-3.47-7.54a7.5,7.5,0,0,0-11.46,2.93c-1.24,3.09-.81,6.8-.46,10a55.94,55.94,0,0,0,2,9.94,45,45,0,0,0,3.8,9.42c1.28,2.25,3.17,4.41,5.88,4.75s5.54-1.36,7.09-3.65c2.09-3.07,2-7.09,1.51-10.6-.1-.79-1.35-.8-1.25,0,.37,2.78.54,5.75-.51,8.41-.94,2.36-3.17,4.49-5.81,4.63s-4.61-2-5.83-4.17a42.52,42.52,0,0,1-3.27-7.82A48.74,48.74,0,0,1,73,330.16c.13-2.63,1-5.24,3.51-6.45a6.43,6.43,0,0,1,6.19.29c2.36,1.59,3.11,4.62,3.52,7.27.54,3.39.86,6.83,1.27,10.24l.63-.63a24.76,24.76,0,0,1-12.91-5.22c-.62-.49-1.51.39-.88.89Z" transform="translate(-26.74 -21.23)"/><path class="cls-3" d="M95,326.18a142.68,142.68,0,0,1,4.36,33,.63.63,0,0,0,1.25,0,144.07,144.07,0,0,0-4.41-33.38c-.19-.78-1.4-.45-1.2.34Z" transform="translate(-26.74 -21.23)"/><path class="cls-3" d="M97.3,324.78c.48-2.24,2.9-5.12,5.48-4.07,2.19.9,2.44,4.15,2.39,6.15a15.73,15.73,0,0,1-6.3,12.05c-.52.4-.24,1.38.49,1.15,2.9-.92,5.53,1.57,7.49,3.39s3.81,4.08,3.88,7a7.91,7.91,0,0,1-10.44,7.7c-.76-.25-1.09,1-.33,1.21a9.18,9.18,0,0,0,12-8.91c-.09-3.32-2-5.84-4.4-8s-5.23-4.63-8.56-3.58L99.5,340a16.82,16.82,0,0,0,6.78-15.59c-.35-2.37-1.71-5.12-4.44-5.13s-5.19,2.54-5.74,5.18c-.17.78,1,1.12,1.2.33Z" transform="translate(-26.74 -21.23)"/><path class="cls-3" d="M116.27,313a171.23,171.23,0,0,1,4.91,38.91c0,.57.9.9,1.17.31.59-1.3,2.27-.81,3.31-.44a5.75,5.75,0,0,0,3.48.45c.79-.19.45-1.4-.33-1.2-2.21.54-6.08-2.66-7.54.56l1.16.32a173,173,0,0,0-5-39.24.63.63,0,0,0-1.21.33Z" transform="translate(-26.74 -21.23)"/><path class="cls-3" d="M145.57,315.12a15.22,15.22,0,0,0-15.72-3.72.64.64,0,0,0-.38.92c1.48,2.81,1.59,6,1.56,9.09a64.49,64.49,0,0,0,.43,9.11c.92,6.75,2,13.48,3,20.21a.63.63,0,0,0,.61.46,89.66,89.66,0,0,1,10.24-.25c.8,0,.8-1.22,0-1.25a89.66,89.66,0,0,0-10.24.25l.6.46c-1-7-2.25-14-3.1-21-.71-5.83.81-12.32-2-17.73l-.37.92A14,14,0,0,1,144.69,316c.56.58,1.44-.31.88-.89Z" transform="translate(-26.74 -21.23)"/><path class="cls-3" d="M131.77,328.14q9.58,3.08,19.42,5.28c.78.18,1.11-1,.33-1.2q-9.83-2.21-19.41-5.29c-.77-.25-1.1,1-.34,1.21Z" transform="translate(-26.74 -21.23)"/><path class="cls-3" d="M61.31,382.53a285.66,285.66,0,0,1,16.28,24.92.63.63,0,0,0,1.08-.63A285.66,285.66,0,0,0,62.39,381.9c-.47-.65-1.56,0-1.08.63Z" transform="translate(-26.74 -21.23)"/><path class="cls-3" d="M62.59,382.39q6.55-3.52,13.27-6.71c.73-.35.09-1.43-.63-1.08Q68.51,377.8,62,381.31c-.71.38-.08,1.46.63,1.08Z" transform="translate(-26.74 -21.23)"/><path class="cls-3" d="M68.71,391.74a42.34,42.34,0,0,1,9.51-1.2.63.63,0,0,0,0-1.25,44.05,44.05,0,0,0-9.84,1.24c-.79.19-.45,1.4.33,1.21Z" transform="translate(-26.74 -21.23)"/><path class="cls-3" d="M117.9,364.82a112,112,0,0,1,2.41,18.78c.13,3.06.12,6.11,0,9.17a33,33,0,0,0,.44,8.65.63.63,0,0,0,.6.46,25.15,25.15,0,0,1,8,1.27c.76.25,1.09-1,.33-1.21a26.32,26.32,0,0,0-8.35-1.31l.6.46a35.3,35.3,0,0,1-.37-9q.16-4.72-.08-9.44a112,112,0,0,0-2.41-18.15c-.16-.79-1.37-.46-1.2.33Z" transform="translate(-26.74 -21.23)"/><path class="cls-3" d="M129.75,362.69l5.33,29.59c.14.79,1.35.46,1.21-.33L131,362.35c-.14-.79-1.35-.45-1.21.34Z" transform="translate(-26.74 -21.23)"/><path class="cls-3" d="M130.6,363.11c3.57-.86,8.13-1.15,11,1.57s3.2,7.95,3,11.74a26.93,26.93,0,0,1-11,20c-.65.46,0,1.55.63,1.08A28.14,28.14,0,0,0,145.18,381a26.93,26.93,0,0,0,.45-9.88c-.48-3.39-1.7-6.86-4.89-8.57s-7.07-1.44-10.47-.62c-.79.19-.45,1.4.33,1.21Z" transform="translate(-26.74 -21.23)"/><path class="cls-3" d="M87.07,376.86a64.59,64.59,0,0,1,9.08-5.17,21.4,21.4,0,0,1,4.92-1.64,3.94,3.94,0,0,1,1.52-.17c1.13.31,1.18,1.14,1,2a16.39,16.39,0,0,1-.91,2.51,54.17,54.17,0,0,1-4.79,9.87c-.93,1.44-1.94,2.83-3,4.22a23.55,23.55,0,0,1-1.8,2.29c-.6.63-1.37,1-2,1.65a16,16,0,0,0-2.33,3.8,23.44,23.44,0,0,0-1.9,4.54,10.24,10.24,0,0,0-.43,4.36A3.19,3.19,0,0,0,89,407.36c2.76.82,5.51-.54,7.63-2.22a24.47,24.47,0,0,0,6-7.1,26.6,26.6,0,0,0,2.1-4.65c.41-1.21,1-2.45.19-3.55a4.59,4.59,0,0,0-3.61-2.23c-1.91,0-3.86.23-5.77.36-.79,0-.8,1.3,0,1.25l4.79-.32a3.33,3.33,0,0,1,2.36.4c.58.43,1.45,1.24,1.37,2a15.07,15.07,0,0,1-1.55,4.3,25.92,25.92,0,0,1-2.17,3.75,18.55,18.55,0,0,1-6.82,6.35c-1.39.65-3.32,1.05-4.75.26-1.78-1-1-3.69-.51-5.25a23.24,23.24,0,0,1,1.86-4.21c.35-.64.71-1.27,1.08-1.9a6.61,6.61,0,0,1,1.88-2.06,14.54,14.54,0,0,0,2.66-3c1-1.38,2-2.76,3-4.2a48.6,48.6,0,0,0,4.31-8.4c.57-1.4,1.21-2.81,1.65-4.26a3.36,3.36,0,0,0-.36-3.18c-.9-1.09-2.35-.84-3.59-.6a22.48,22.48,0,0,0-4.8,1.57,63.71,63.71,0,0,0-9.49,5.36c-.67.44,0,1.53.63,1.08Z" transform="translate(-26.74 -21.23)"/><path class="cls-3" d="M104.25,390.9c.22,4.41,2.29,8.39,4.75,12,.45.66,1.53,0,1.08-.63-2.33-3.38-4.37-7.15-4.58-11.33,0-.8-1.29-.8-1.25,0Z" transform="translate(-26.74 -21.23)"/><path class="cls-4" d="M95.12,313c.13-1.16-1.38-2.21-4.42-4.28a24.87,24.87,0,0,0-5.58-3.22,20.54,20.54,0,0,0-6-1.21c-2.76-.13-8.76.1-9.35,2.34-.21.79.34,1.54,1,2.45,2.14,2.94,5.45,3.91,7.19,4.4a30.61,30.61,0,0,0,8.09.94,14.39,14.39,0,0,1,3.87.18c1.42.31,2,.72,2.94.5A3,3,0,0,0,95.12,313Z" transform="translate(-26.74 -21.23)"/></svg>