<svg xmlns="http://www.w3.org/2000/svg" viewBox="0 0 275.1 356.39"><defs><style>.cls-1,.cls-3{fill:none;stroke:#c9c9af;stroke-miterlimit:10;}.cls-2{fill:#c9c9af;}.cls-3{stroke-width:0.25px;}</style></defs><g id="Lag_2" data-name="Lag 2"><path class="cls-1" d="M58.94,136.69,52,130.89,63,98.44c28.48-9.71,42.69-15.58,48.68-19.13a20.58,20.58,0,0,1,10.43-3.47c4-.08,5.68,1.31,10.44,1.74,4.49.4,7.67-.44,11-1.16,7.63-1.66,14.16-2.27,27.23-3.48,11.59-1.07,17.38-1.61,22-.58,12.89,2.86,23.44,12.25,32.45,20.28,3.82,3.4,6.44,6.16,11.59,8.7,5.79,2.84,11.49,3.79,16.81,4.63,10.72,1.71,11.06,0,14.49,1.74,10.49,5.49,10.45,23.58,10.43,24.92a37.34,37.34,0,0,1-3.48,15.07" transform="translate(-3.99 -19.49)"/><path class="cls-1" d="M93.72,86.27a68.26,68.26,0,0,1,7.53-13.91c5.13-7.26,8.26-8.56,11.59-15.65,2.26-4.79,1.7-6.07,4.06-9.27,3.28-4.46,7.54-6.29,11.59-8.11,16.27-7.33,11-6.35,22.6-11,16.63-6.66,25.13-9.95,34.19-7.54a36.52,36.52,0,0,1,8.12,3.48c7.74,4,11.56,8.13,22,18.54,14.8,14.73,15.65,15,17.38,18.55,3.38,7,2,10,4.64,19.7a78.36,78.36,0,0,0,11,23.76" transform="translate(-3.99 -19.49)"/><path class="cls-2" d="M115.72,70c9-4.06,18.24-7.71,27.52-11.17,4.63-1.73,9.28-3.46,14.06-4.83a127.19,127.19,0,0,1,14.56-3,67.51,67.51,0,0,1,14.9-.81,54.51,54.51,0,0,1,14.6,3.16,58.59,58.59,0,0,1,23.95,17.29l-.08.07c-6.77-7.18-14.95-13.12-24.22-16.42a52.83,52.83,0,0,0-14.33-3.11,66.43,66.43,0,0,0-14.7.61,129.71,129.71,0,0,0-14.51,2.88c-4.75,1.32-9.41,3-14.06,4.68-9.32,3.34-18.57,6.86-27.65,10.79Z" transform="translate(-3.99 -19.49)"/><path class="cls-1" d="M132.55,78.16c-1.74,3-4.37,7.66-7.54,13.32-6.41,11.47-7.17,13.15-9.85,17.39-4.53,7.18-5,6.67-11.59,16.23-6.67,9.75-10,14.73-11,19.7-1,5.22.26,10.12,2.9,19.71,4.08,14.86,6.57,23.93,13.32,34.19,4.13,6.27,8.2,10.48,11.6,19.7,2.24,6.12,1.28,6.51,2.89,9.27,5.25,9,18.54,10.22,35.93,11.6,16,1.26,24.09,1.78,30.72-3.48,4.74-3.77,2.54-5.48,9.85-13.33,6.92-7.43,11.16-8.32,16.81-16.23a81.25,81.25,0,0,0,5.21-9.27c4.26-8.18,7.62-14.64,9.86-23.18A56.56,56.56,0,0,0,234,158.13c-.08-8.09-2.29-12-7-24.92-4-11.08-1.46-5.64-10.43-32.45-3.06-9.15-5.68-16.73-7.54-22" transform="translate(-3.99 -19.49)"/><path class="cls-2" d="M105.35,82.81a21.4,21.4,0,0,1-3.88,5.58A20.75,20.75,0,0,1,96,92.46a22.74,22.74,0,0,1-13.34,2.16l.13-.45a14.51,14.51,0,0,1,3.46,2.23A6.58,6.58,0,0,1,87.6,98a3,3,0,0,1,.41,2.13,6.91,6.91,0,0,1-2.36,3.43A20.76,20.76,0,0,1,82.32,106l0,0h-.06a50.11,50.11,0,0,1-6.58.49l.24-.62A4.45,4.45,0,0,1,77.35,110a4,4,0,0,1-1.1,2,3.22,3.22,0,0,1-2.09,1,2,2,0,0,1-1.24-.34,3.35,3.35,0,0,1-.83-.86c-.41-.6-.75-1.2-1.23-1.4a1.69,1.69,0,0,0-1.59.26,6.22,6.22,0,0,0-1.45,1.32,7,7,0,0,0-1.73,3.52,32.56,32.56,0,0,0-.33,4.12,36,36,0,0,0,0,4.15,9.38,9.38,0,0,0,1.19,3.8,11.57,11.57,0,0,0,2.48,3.16,7.8,7.8,0,0,0,3.45,1.91,36.94,36.94,0,0,1,4.09,1.17,27.22,27.22,0,0,1,3.88,1.78,23.94,23.94,0,0,1,6.58,5.39,22.89,22.89,0,0,1,4,7.41l-.09,0A23.06,23.06,0,0,0,87,141.4a23.51,23.51,0,0,0-6.56-5,27.84,27.84,0,0,0-3.8-1.66,39.18,39.18,0,0,0-4-1.07,8.58,8.58,0,0,1-3.88-2,12.61,12.61,0,0,1-2.7-3.43,10.47,10.47,0,0,1-1.3-4.19,35.88,35.88,0,0,1,0-4.28,29.69,29.69,0,0,1,.38-4.26,7.92,7.92,0,0,1,2-3.93A7.26,7.26,0,0,1,68.81,110a3.24,3.24,0,0,1,1.12-.44,2.14,2.14,0,0,1,1.29.16,4.45,4.45,0,0,1,1.55,1.69,1.55,1.55,0,0,0,1.35.89,2.48,2.48,0,0,0,1.58-.81,3.21,3.21,0,0,0,.91-1.62,3.74,3.74,0,0,0-1.22-3.46l-.69-.62h.93a46.8,46.8,0,0,0,6.48-.41l-.11,0a20.52,20.52,0,0,0,3.25-2.3A6.48,6.48,0,0,0,87.46,100c.27-1.21-.62-2.39-1.55-3.25a14,14,0,0,0-3.3-2.19l-1.35-.67,1.48.22a22.3,22.3,0,0,0,13.14-2,20.56,20.56,0,0,0,5.45-3.94,21.6,21.6,0,0,0,3.93-5.49Z" transform="translate(-3.99 -19.49)"/><path class="cls-1" d="M95,165.85a33.1,33.1,0,0,1-2.48,8.33c-2.22,4.94-5,7.8-5.86,13.29-.19,1.3-.37,3.33.68,4.05s2.13-.31,3.83.45a7.09,7.09,0,0,1,2,1.8c1.64,1.78,1.53,2.15,2.7,3.38s2.3,2.42,4,2.7c1.19.2,1.44-.25,2.93,0a11.59,11.59,0,0,1,2.93,1.13,15.37,15.37,0,0,0,4.28,1.13" transform="translate(-3.99 -19.49)"/><path class="cls-1" d="M66.17,126.66c-.74-.29-2.65-.93-4.06,0-1.07.7-1.33,2-1.57,3.15-1.49,7-1.86,6.37-2,8.56-.67,8.65,5.2,18.54,6.76,21.17,4,6.69,6.72,11.34,12.16,13.51a30.07,30.07,0,0,0,12.39,1.8c.93,0,1.7-.15,2.25-.22" transform="translate(-3.99 -19.49)"/><path class="cls-2" d="M89.56,149.89l-6.13-5c-2.06-1.65-4.15-3.28-6.3-4.81-1.07-.77-2.16-1.52-3.28-2.19s-2.3-1.29-3.46-1.92a26.33,26.33,0,0,0-3.54-1.65,3.28,3.28,0,0,0-1.73-.23c-.48.09-.7.59-.77,1.19a11.24,11.24,0,0,0,.54,3.75c.34,1.25.78,2.49,1.23,3.72.94,2.46,2,4.89,3,7.31,2.09,4.85,4.38,9.61,6.54,14.45l-.09.05c-2.67-4.58-5.1-9.29-7.36-14.1-1.09-2.41-2.14-4.86-3-7.37-.43-1.26-.85-2.53-1.16-3.84a11.7,11.7,0,0,1-.47-4.08l.11-.55a4.34,4.34,0,0,1,.25-.54,2.15,2.15,0,0,1,.43-.48,1.62,1.62,0,0,1,.59-.25,4,4,0,0,1,2.15.28,27.46,27.46,0,0,1,3.61,1.77c1.16.66,2.3,1.31,3.45,2s2.21,1.48,3.28,2.28c2.12,1.59,4.16,3.27,6.19,5l6,5.21Z" transform="translate(-3.99 -19.49)"/><path class="cls-2" d="M235.13,101.18a38.67,38.67,0,0,0,4.9,6,16.67,16.67,0,0,0,6.15,4.53,21.63,21.63,0,0,0,3.77.82c1.27.19,2.56.37,3.84.53a12.4,12.4,0,0,0,3.79.07,2.24,2.24,0,0,0,1.36-1.06,6.37,6.37,0,0,0,.63-1.75,2.49,2.49,0,0,1,.45-1,1,1,0,0,1,1.19-.17,4.25,4.25,0,0,1,1.5,1.41,9.16,9.16,0,0,1,1.57,3.65,10.82,10.82,0,0,1-1.57,7.66,14.56,14.56,0,0,1-5.85,5.26c-.59.29-1.2.54-1.73.82s-.67.49-.27.91a3.3,3.3,0,0,0,1.55.71,2.93,2.93,0,0,0,1.68-.16,11.12,11.12,0,0,0,3-2.26,7.19,7.19,0,0,0,1.18-1.41c.19-.27.29-.49.54-.86a.61.61,0,0,1,.26-.21.55.55,0,0,1,.66.22,1,1,0,0,1,.09.29v.17c0,.2,0,.36,0,.53a6.49,6.49,0,0,0,.38,3.56,2.64,2.64,0,0,0,1.14,1.2,5.1,5.1,0,0,1,1.55,1.45A7.35,7.35,0,0,1,268,136a5.94,5.94,0,0,1-.28,2.08,7.06,7.06,0,0,1-1,1.85,28.92,28.92,0,0,1-2.57,3l-2.65,2.83c-.89.95-1.76,1.9-2.6,2.87a22.75,22.75,0,0,1-2.7,2.87,26,26,0,0,1-6.68,4.15,46.25,46.25,0,0,1-15.16,3.45V159a54.27,54.27,0,0,0,7.61-1.42,39.23,39.23,0,0,0,7.27-2.57,26.94,26.94,0,0,0,6.4-4.15,22.54,22.54,0,0,0,2.56-2.83c.84-1,1.7-2,2.57-2.94l2.66-2.84A30.27,30.27,0,0,0,266,139.4a5.09,5.09,0,0,0,1.06-3.34,6.35,6.35,0,0,0-1-3.39,3.88,3.88,0,0,0-1.25-1.2,4.37,4.37,0,0,1-.85-.68,4.13,4.13,0,0,1-.62-.92,7.28,7.28,0,0,1-.42-4.07c0-.15,0-.31,0-.43v-.08a.1.1,0,0,0,0,.06.36.36,0,0,0,.45.14c.11,0,.09-.07.09,0l-.5.79a8.19,8.19,0,0,1-1.33,1.54,11.7,11.7,0,0,1-3.23,2.39,3.7,3.7,0,0,1-2.13.19,4,4,0,0,1-1.92-.93,1.26,1.26,0,0,1-.44-1.24,1.63,1.63,0,0,1,.87-.87c.61-.32,1.2-.55,1.78-.83a13.82,13.82,0,0,0,5.61-5,10.22,10.22,0,0,0,1.56-7.21,8.59,8.59,0,0,0-1.45-3.44,3.87,3.87,0,0,0-1.27-1.25.53.53,0,0,0-.61.05,2.2,2.2,0,0,0-.34.77,7,7,0,0,1-.71,1.88,2.76,2.76,0,0,1-1.65,1.24,13,13,0,0,1-3.95-.11c-1.29-.18-2.57-.38-3.85-.58a21.94,21.94,0,0,1-3.81-.89,16.91,16.91,0,0,1-6.2-4.67,39.41,39.41,0,0,1-4.83-6.09Z" transform="translate(-3.99 -19.49)"/><path class="cls-1" d="M257.16,149.63a28.06,28.06,0,0,0,9.23-.23c1.61-.31,2.24-.58,2.93-.22,2.64,1.36,1.71,9.55-.45,15.76-1.92,5.53-3.77,6.52-13.29,19.37-6.46,8.74-7.19,10.42-9.91,11.26-7.45,2.32-16-6-18.69-8.78" transform="translate(-3.99 -19.49)"/><path class="cls-2" d="M238.44,168.05q5.49-3.24,10.72-6.88h0c1.78-1.18,3.58-2.18,5.42-3.19a55.61,55.61,0,0,1,5.63-2.79,3.72,3.72,0,0,1,1.7-.28,1.49,1.49,0,0,1,.89.5,1.94,1.94,0,0,1,.39.87,7.93,7.93,0,0,1-.35,3.25,48.67,48.67,0,0,1-2.14,5.93,119.19,119.19,0,0,1-5.5,11.24q-3,5.51-6.31,10.79l-.09-.05,5.61-11.15c1.83-3.74,3.72-7.44,5.42-11.21a50,50,0,0,0,2.24-5.76,7.28,7.28,0,0,0,.39-2.9c-.08-.45-.29-.74-.67-.8a3,3,0,0,0-1.35.21,55.84,55.84,0,0,0-5.6,2.65c-1.83,1-3.69,2-5.41,3h0c-3.55,2.35-7.2,4.55-10.91,6.62Z" transform="translate(-3.99 -19.49)"/><path class="cls-2" d="M183.7,100.55a10.55,10.55,0,0,0-3.3,5.31A12.64,12.64,0,0,0,180,109a5.67,5.67,0,0,0,.75,2.94,2.84,2.84,0,0,0,1.06,1,3.09,3.09,0,0,0,1.43.24c1,0,2.09-.23,3.15-.37,2.12-.32,4.25-.53,6.39-.71a28.21,28.21,0,0,1,6.49.1,18.64,18.64,0,0,1,3.2.77,22.21,22.21,0,0,1,3,1.32,20.64,20.64,0,0,1,8.82,9.27l-.09,0a23.3,23.3,0,0,0-9.2-8.43,20.21,20.21,0,0,0-5.89-2,26.83,26.83,0,0,0-6.28-.28c-2.12.13-4.25.29-6.36.55a30.54,30.54,0,0,1-3.22.31,3.7,3.7,0,0,1-1.68-.34,3.4,3.4,0,0,1-1.25-1.19,6.19,6.19,0,0,1-.72-3.21,13.32,13.32,0,0,1,.48-3.21,10.8,10.8,0,0,1,3.52-5.31Z" transform="translate(-3.99 -19.49)"/><path class="cls-2" d="M152,96.87a8.88,8.88,0,0,1,3.32,5.47,8,8,0,0,1-1.74,6.22,6.48,6.48,0,0,1-2.71,2,7.87,7.87,0,0,1-3.33.2c-2.16-.22-4.28-.42-6.44-.51a30.41,30.41,0,0,0-6.34.08,13.51,13.51,0,0,0-2.9,1.07,14.87,14.87,0,0,0-2.64,1.67,21.28,21.28,0,0,0-4.34,4.59,25.52,25.52,0,0,0-3.11,5.6l-.09,0a22,22,0,0,1,6.92-10.94,14.05,14.05,0,0,1,6-2.93,15.05,15.05,0,0,1,3.34-.12c1.09,0,2.16.13,3.24.21,2.15.14,4.33.39,6.45.66a7.43,7.43,0,0,0,3.09-.09,5.88,5.88,0,0,0,2.51-1.74,7.62,7.62,0,0,0,1.83-5.85A8.7,8.7,0,0,0,152,97Z" transform="translate(-3.99 -19.49)"/><path class="cls-2" d="M137.6,152.05a11.51,11.51,0,0,0-3.86,2.92,10.73,10.73,0,0,0-1.35,2,13.71,13.71,0,0,0-1,2.2,5.87,5.87,0,0,0,.25,4.41,7.43,7.43,0,0,0,3.39,3.15l0,.09a5.87,5.87,0,0,1-4.23-2.76,5,5,0,0,1-.68-2.59,7.51,7.51,0,0,1,.55-2.56,12.63,12.63,0,0,1,1.15-2.26,10.72,10.72,0,0,1,1.54-2,11.76,11.76,0,0,1,4.19-2.67Z" transform="translate(-3.99 -19.49)"/><path class="cls-2" d="M183.3,154.11a10.19,10.19,0,0,1,5.76,1.17,9.14,9.14,0,0,1,4,4.47,11.43,11.43,0,0,1,.8,2.94,11.05,11.05,0,0,1,0,3,10.35,10.35,0,0,1-2.55,5.38l-.08-.05a15.35,15.35,0,0,0,1.64-5.46,15.51,15.51,0,0,0,0-2.81,10.66,10.66,0,0,0-.55-2.75,8.52,8.52,0,0,0-3.48-4.33,9.92,9.92,0,0,0-5.49-1.5Z" transform="translate(-3.99 -19.49)"/><path class="cls-2" d="M153.1,153.46a12.42,12.42,0,0,0-1.21,5.71,12.26,12.26,0,0,0,1.57,5.56,9.4,9.4,0,0,0,4.07,4,9.67,9.67,0,0,0,5.6.75,40,40,0,0,0,5.69-1.39,16.53,16.53,0,0,0,5.22-2.31,5.75,5.75,0,0,0,1.77-2.06,5.47,5.47,0,0,0,.51-2.69,8.17,8.17,0,0,0-.65-2.77,13.22,13.22,0,0,0-1.41-2.58l.08-.06a10,10,0,0,1,2.68,5.35,5.94,5.94,0,0,1-.42,3.11,6.53,6.53,0,0,1-1.95,2.49,15.3,15.3,0,0,1-5.56,2.47,40.78,40.78,0,0,1-5.87,1.24,10.39,10.39,0,0,1-6-1A10,10,0,0,1,153,165a12.75,12.75,0,0,1-1.43-5.8,12.48,12.48,0,0,1,1.42-5.75Z" transform="translate(-3.99 -19.49)"/><path class="cls-2" d="M177.18,162.08h5c3.82,0,4.8,0,5.76.72a4.22,4.22,0,0,1,1.44,4.32c-.79,2.38-4.27,2.82-5,2.88,0,0-1.53.14-7.21-1.8h0L174.76,166" transform="translate(-3.99 -19.49)"/><path class="cls-2" d="M151.75,159.59a7.71,7.71,0,0,0-2.41-1.69,9.86,9.86,0,0,0-3.74-.6c-2.59-.09-3.89-.13-5.18.36a8.47,8.47,0,0,0-3.73,2.89c-.79,1-1.64,2.12-1.33,3.13.37,1.22,2.2,1.61,3.74,1.93a17.86,17.86,0,0,0,9.51-.72,21,21,0,0,0,3.74-1.69" transform="translate(-3.99 -19.49)"/><path class="cls-2" d="M179.62,134a9.46,9.46,0,0,1-.47-4,7.43,7.43,0,0,1,1.56-3.71,12.21,12.21,0,0,1,7-3.77,16.38,16.38,0,0,1,8.08.22,13.89,13.89,0,0,1,6.75,4.52,5.66,5.66,0,0,1,1.5,3.95,2.67,2.67,0,0,1-.32,1.13,6.45,6.45,0,0,1-.61.9c-.43.55-.89,1-1.35,1.53a37.11,37.11,0,0,1-2.87,2.88,12,12,0,0,1-3.59,2.09,14.22,14.22,0,0,1-4.05.81,18,18,0,0,1-4.08-.11,19.52,19.52,0,0,1-7.57-2.76l.05-.09a21.82,21.82,0,0,0,7.6,2.16,20.54,20.54,0,0,0,3.92-.06,13.64,13.64,0,0,0,3.77-.88,11.22,11.22,0,0,0,3.28-2c1-.83,1.89-1.81,2.82-2.77.47-.48.93-1,1.34-1.44a2.7,2.7,0,0,0,.77-1.53,4.91,4.91,0,0,0-1.24-3.37,13.17,13.17,0,0,0-6.31-4.39,15.8,15.8,0,0,0-7.79-.35,11.81,11.81,0,0,0-6.91,3.47,7.05,7.05,0,0,0-1.59,3.55,9.2,9.2,0,0,0,.37,3.93Z" transform="translate(-3.99 -19.49)"/><path class="cls-2" d="M151.74,128.9a7,7,0,0,0,.63-3.58,7.51,7.51,0,0,0-1.2-3.43,6,6,0,0,0-2.75-2.26,13.72,13.72,0,0,0-3.56-.78,19,19,0,0,0-7.25,0A9.38,9.38,0,0,0,132,123a6.28,6.28,0,0,0-1.07,3.25,3.9,3.9,0,0,0,1.31,2.94,12.3,12.3,0,0,0,3,1.88,15.62,15.62,0,0,0,3.34,1.33,15.4,15.4,0,0,0,7.15.19,11.3,11.3,0,0,0,3.46-1.11A6.21,6.21,0,0,0,151.74,128.9Zm.09,0a6.46,6.46,0,0,1-2.48,2.75,12.06,12.06,0,0,1-3.47,1.41,19.15,19.15,0,0,1-3.72.63,14.26,14.26,0,0,1-3.8-.37,16,16,0,0,1-3.55-1.37,12.83,12.83,0,0,1-3.23-2.09,4.87,4.87,0,0,1-1.52-3.67,7,7,0,0,1,1.3-3.67,11.36,11.36,0,0,1,2.62-2.78,9.44,9.44,0,0,1,3.47-1.59,19.39,19.39,0,0,1,7.48.16,14.49,14.49,0,0,1,3.63.94,6.27,6.27,0,0,1,2.79,2.48A7.73,7.73,0,0,1,151.83,129Z" transform="translate(-3.99 -19.49)"/><circle class="cls-2" cx="185.98" cy="113.43" r="4.93"/><circle class="cls-2" cx="137.55" cy="108.47" r="4.93"/><path class="cls-1" d="M110.67,171.45c2.89,1.23,7.17,3,12.39,5.07,11.92,4.69,17.87,7,23.94,8.45,5.82,1.36,12.43,1.47,25.63,1.69,13.37.22,20.24.3,29.29-1.13a113.38,113.38,0,0,0,20-5.07" transform="translate(-3.99 -19.49)"/><line class="cls-1" x1="110.34" y1="148.86" x2="102.46" y2="155.62"/><line class="cls-1" x1="218.76" y1="156.46" x2="217.92" y2="164.91"/><path class="cls-2" d="M114.62,141.65a49,49,0,0,0-10.69,3.55,8.71,8.71,0,0,0-4,3.66,14.4,14.4,0,0,0-1.62,5.3,22.42,22.42,0,0,0,1.53,11,51.19,51.19,0,0,0,2.35,5.12l2.53,5.05,5.09,10.1c1.65,3.38,3.48,6.71,5,10.21a83.09,83.09,0,0,1,5.76,21.91h-.1A100.89,100.89,0,0,0,113.8,196c-.75-1.72-1.55-3.42-2.42-5.08s-1.66-3.39-2.49-5.08L104,175.63l-2.47-5.09a55,55,0,0,1-2.3-5.2,23.09,23.09,0,0,1-1.42-11.25,15.15,15.15,0,0,1,1.77-5.43,9,9,0,0,1,4.26-3.73,49,49,0,0,1,10.8-3.38Z" transform="translate(-3.99 -19.49)"/><path class="cls-2" d="M199.16,161.61a36.93,36.93,0,0,0,10,5.12,40.94,40.94,0,0,0,5.43,1.43c.91.18,1.84.32,2.77.41s1.85.1,2.83.28a7.78,7.78,0,0,1,4.46,3.57,14.37,14.37,0,0,1,1.91,5.4,13.08,13.08,0,0,1-3.07,10.8c-1.4,1.37-3,2.38-4.29,3.67s-2.63,2.65-3.89,4a75.69,75.69,0,0,0-7.1,8.65,126.6,126.6,0,0,0-10.56,19.82l-.09,0a98.53,98.53,0,0,1,9.82-20.34,52,52,0,0,1,3.42-4.55q1.84-2.15,3.78-4.21c1.3-1.37,2.61-2.73,4-4s3-2.33,4.34-3.58a12.38,12.38,0,0,0,3-10.15,13.78,13.78,0,0,0-1.75-5.18,7.22,7.22,0,0,0-4.08-3.38,39.88,39.88,0,0,1-21-7.65Z" transform="translate(-3.99 -19.49)"/><path class="cls-2" d="M107.38,157.49l3.84.08c1.28,0,2.55.08,3.83,0a49.65,49.65,0,0,0,7.62-.72,24.3,24.3,0,0,0,7-2.76,39.09,39.09,0,0,0,6.2-4.46l0,0a27.8,27.8,0,0,1-6,4.86,22,22,0,0,1-7.23,2.72,49.55,49.55,0,0,1-7.68.58c-1.28,0-2.57-.06-3.85-.12l-3.84-.18Z" transform="translate(-3.99 -19.49)"/><path class="cls-2" d="M199.39,146.81a40.15,40.15,0,0,1,8.74,2.14,41.42,41.42,0,0,1,8.1,4,25.57,25.57,0,0,1,6.54,6.25,26.44,26.44,0,0,1,3.89,8.14h0a31.53,31.53,0,0,0-4.25-7.85,27.13,27.13,0,0,0-6.35-6.21,42.91,42.91,0,0,0-16.63-6.42Z" transform="translate(-3.99 -19.49)"/><path class="cls-2" d="M181.3,140.28a14.15,14.15,0,0,0,5.43,4.39,16,16,0,0,0,6.85,1.33,14.06,14.06,0,0,0,6.66-2,15.21,15.21,0,0,0,5-4.85l0,0a14.64,14.64,0,0,1-4.91,5,13.73,13.73,0,0,1-6.78,1.94,16.23,16.23,0,0,1-6.91-1.41,14.36,14.36,0,0,1-5.4-4.49Z" transform="translate(-3.99 -19.49)"/><path class="cls-2" d="M127.44,130.69a13.18,13.18,0,0,0,6.18,6.79,20.63,20.63,0,0,0,4.44,1.46,25,25,0,0,0,4.6.83,12.38,12.38,0,0,0,4.59-.66,11.21,11.21,0,0,0,4-2.25,9.69,9.69,0,0,0,2.65-3.76,11,11,0,0,0,.74-4.58h0a10.23,10.23,0,0,1-3.26,8.54,11.48,11.48,0,0,1-4.12,2.3,12.75,12.75,0,0,1-4.67.62,25,25,0,0,1-4.63-.87,20.94,20.94,0,0,1-4.46-1.51,13.26,13.26,0,0,1-6.14-6.89Z" transform="translate(-3.99 -19.49)"/><path class="cls-2" d="M153.94,198.34q6.09-.51,12.12-1.48c2-.32,4-.68,6-1.05a44,44,0,0,1,6.08-.85,4.74,4.74,0,0,1,3,.74,3.55,3.55,0,0,1,1,1.26,5.35,5.35,0,0,1,.4,1.56,10,10,0,0,1-.32,3.1,21.94,21.94,0,0,1-1,2.94,16.17,16.17,0,0,1-8.82,8.2l0,0a19.74,19.74,0,0,0,5-3.42,14.56,14.56,0,0,0,3.39-4.92,14,14,0,0,0,1.24-5.81,4.41,4.41,0,0,0-.33-1.4,3.14,3.14,0,0,0-.86-1.11,4.36,4.36,0,0,0-2.77-.69,45.89,45.89,0,0,0-6,.77q-3,.52-6,1-6.06.87-12.16,1.28Z" transform="translate(-3.99 -19.49)"/></g><g id="Lag_3" data-name="Lag 3"><path class="cls-1" d="M107.23,201.49c.13,2.91.25,6.92.21,11.69a198.63,198.63,0,0,1-1,20.11c-1.41,13.43-2.12,20.15-6,26-1.63,2.52-4.5,5.17-10.25,10.47-6.47,5.95-9.56,7.93-16.21,13.54-5.93,5-5.12,4.8-14.57,13.33-14.08,12.71-17.49,14.57-25,22.78-4.4,4.78-7.38,8.65-9.23,11.07A179.46,179.46,0,0,0,4.45,365.21" transform="translate(-3.99 -19.49)"/><path class="cls-2" d="M185.25,238.81a76.85,76.85,0,0,0-5.95,23.54q-.66,6.09-1.43,12.17l-.78,6.08c-.29,2-.56,4-1,6.06a54,54,0,0,1-4.32,11.49c-1.84,3.66-3.92,7.17-5.94,10.72l-12.2,21.25,12-21.37c2-3.57,4-7.11,5.83-10.77a53.65,53.65,0,0,0,4.16-11.44c.45-2,.7-4,1-6l.72-6.08q.72-6.07,1.31-12.17a77.33,77.33,0,0,1,5.77-23.84Z" transform="translate(-3.99 -19.49)"/><path class="cls-1" d="M163.66,312.27c2.4,2.56,5.89,6.4,9.84,11.29a223.21,223.21,0,0,1,23,35.08c2.29,4.17,5.32,9.95,8.62,17" transform="translate(-3.99 -19.49)"/><path class="cls-2" d="M89.08,271.07l6.58,14.86c2.18,4.95,4.34,9.92,6.7,14.79s4.69,9.77,7.28,14.51a72,72,0,0,0,4.23,6.88,48.4,48.4,0,0,0,5.33,6,58.66,58.66,0,0,0,12.9,9.58,69.4,69.4,0,0,0,7.28,3.48,78.41,78.41,0,0,0,7.55,2.86,21.38,21.38,0,0,0,7.8,1.2,6.83,6.83,0,0,0,3.55-1.29,6.37,6.37,0,0,0,2.13-3.12,21.84,21.84,0,0,0,.86-3.9,24.56,24.56,0,0,0,.33-4,23.63,23.63,0,0,0-1.39-7.92l.09,0a24.23,24.23,0,0,1,1.76,7.94,25.31,25.31,0,0,1-.21,4.09,22.79,22.79,0,0,1-.78,4.05,6.84,6.84,0,0,1-2.3,3.52,7.6,7.6,0,0,1-4,1.53,22.37,22.37,0,0,1-8.19-1.1c-2.62-.81-5.14-1.85-7.64-2.9a73.19,73.19,0,0,1-7.37-3.53,59.55,59.55,0,0,1-13-9.88,49.41,49.41,0,0,1-5.35-6.19,70,70,0,0,1-4.21-7c-2.56-4.79-4.89-9.69-7.17-14.6s-4.39-9.91-6.52-14.89L89,271.1Z" transform="translate(-3.99 -19.49)"/><path class="cls-2" d="M154,90.89A57.39,57.39,0,0,0,170,94.38c2.74.19,5.5.2,8.24.13s5.47-.57,8.22-.65l2.07-.08c.68,0,1.37,0,2.06,0l4.12.07L203,94a19.78,19.78,0,0,1,4.12.4,11.38,11.38,0,0,1,3.68,1.89,17.6,17.6,0,0,1,5,6.48h0a18.19,18.19,0,0,0-5.1-6.36,11.12,11.12,0,0,0-3.64-1.82,19.63,19.63,0,0,0-4.07-.35l-8.24-.18L190.62,94c-.68,0-1.37,0-2.06,0l-2.06.07c-2.74.07-5.46.53-8.22.61s-5.51,0-8.26-.16A57.4,57.4,0,0,1,154,90.91Z" transform="translate(-3.99 -19.49)"/><path class="cls-2" d="M148.26,90.66a50.16,50.16,0,0,0-14.71,3.24,51.76,51.76,0,0,0-6.8,3.26,52.39,52.39,0,0,0-6.29,4.18l0,0a43,43,0,0,1,13-7.6,48.72,48.72,0,0,1,14.78-3.08Z" transform="translate(-3.99 -19.49)"/><path class="cls-3" d="M159.93,87.67a27.49,27.49,0,0,0,8.45,3c.9.16,3.65.59,11.92-.25,6.55-.66,6.7-1.13,11.67-1.49,4.65-.34,7.76-.56,11.67.25a29.06,29.06,0,0,1,9.68,4" transform="translate(-3.99 -19.49)"/><path class="cls-3" d="M170.61,83a25.06,25.06,0,0,1-3.72,0,25.62,25.62,0,0,1-6.21-1.24c-5.64-1.77-13.45-.24-14.65,0a35,35,0,0,0-15.4,7.45" transform="translate(-3.99 -19.49)"/><path class="cls-2" d="M81.33,142.91A12.48,12.48,0,0,0,80.6,146c-.17,1.55-.27,2.5.29,3.05s1.7.41,3.78,0a21.44,21.44,0,0,0,3.2-.87" transform="translate(-3.99 -19.49)"/><path class="cls-2" d="M238.6,168l2.33.72c2.36.76,2.71.95,3.49.95a4.09,4.09,0,0,0,3.16-1.28,3.41,3.41,0,0,0,.55-3.49,3.36,3.36,0,0,0-1.66-1.66" transform="translate(-3.99 -19.49)"/></g></svg>