<svg id="Lag_5" data-name="Lag 5" xmlns="http://www.w3.org/2000/svg" viewBox="0 0 227.48 148.63"><defs><style>.cls-1{fill:none;}.cls-1,.cls-2{stroke:#1e1e1c;stroke-miterlimit:10;}.cls-2{fill:#fff;}</style></defs><path class="cls-1" d="M33,46.26c.31,3.34-.73,9.69-.73,9.69-1.31,8-.54,6.81-1.45,10.9-.56,2.52-.56,1.66-3.15,10.42-1.05,3.54-1.33,4.61-2.43,8.24-1,3.35-1.45,4.35-2.18,7-.46,1.71-1,3.78-1.45,6.3a58.86,58.86,0,0,0-.73,8.24c-.13,3.2-.22,6.65-.24,14.05v18.17c0,4,.18,8.08,0,12.11a87.53,87.53,0,0,0,.24,10.91,11.64,11.64,0,0,0,1,3.63,13,13,0,0,0,1.7,2.67c3.78,4.43,22.16,0,30.52.72a6.21,6.21,0,0,0,4.37-1A5.91,5.91,0,0,0,60.37,165c1-3.88.67-7,.49-10.17-.13-2.2.11.28,0-9.21-.06-4.89-.13-6.63-.24-11.87-.15-7.13-.08-7.31-.25-15.27-.2-9.76-.37-11.72-.48-12.84A77.77,77.77,0,0,0,58,93.5c-1.44-5.76-2.33-6-4.84-14C51.47,74.2,50.51,70,50,67.58,48.85,62.7,48.24,59,47.78,56.19a92.34,92.34,0,0,1-1.46-12.6c0-.65,0-1.35-.06-2.58s0-2.22-.15-3.32a2,2,0,0,1,.07-1.31c.28-.52.71-.46,1-.93a1.88,1.88,0,0,0-.31-2.24c-.23-.22-.73-.3-1.7-.46-.66-.12-1.08-.16-1.08-.16-2-.2-2.58-.36-3.94-.46a29,29,0,0,0-5.95.38c-1,.12-1.86.26-2.24.93A1.91,1.91,0,0,0,31.89,35c.19.52.5.58.85,1.16a3.86,3.86,0,0,1,.46,1.54,9.74,9.74,0,0,1-.08,2.94c-.11.93-.16.78-.23,1.47a19.28,19.28,0,0,0,0,2.62C32.92,45.31,32.94,45.61,33,46.26Z" transform="translate(-7.53 -25.84)"/><path class="cls-1" d="M32.38,30.87c-.58-.44-.46-1.74,0-2.56a3.37,3.37,0,0,1,1.85-1.39,5.83,5.83,0,0,1,2.1-.35c3.55-.15,2.88-.25,4.29-.23a11,11,0,0,1,4.07.58,3,3,0,0,1,1.16.7,3.45,3.45,0,0,1,.81,2.67c0,.52,0,1-.34,1.16s-.82-.42-1.75-.93a7.1,7.1,0,0,0-2.55-.7,14.38,14.38,0,0,0-3.26-.11,16.28,16.28,0,0,0-2.78.35C33.64,30.56,32.93,31.29,32.38,30.87Z" transform="translate(-7.53 -25.84)"/><path class="cls-1" d="M81.43,46.26C81.74,49.6,80.7,56,80.7,56c-1.31,8-.54,6.81-1.45,10.9-.56,2.52-.55,1.66-3.15,10.42-1,3.54-1.33,4.61-2.43,8.24-1,3.35-1.45,4.35-2.18,7-.46,1.71-1,3.78-1.45,6.3a58.86,58.86,0,0,0-.73,8.24c-.13,3.2-.22,6.65-.24,14.05v18.17c0,4,.18,8.08,0,12.11a87.53,87.53,0,0,0,.24,10.91,11.64,11.64,0,0,0,1,3.63,13,13,0,0,0,1.7,2.67c3.78,4.43,22.16,0,30.53.72a6.19,6.19,0,0,0,4.36-1A5.91,5.91,0,0,0,108.8,165c1-3.88.67-7,.49-10.17-.13-2.2.11.28,0-9.21-.06-4.89-.13-6.63-.24-11.87-.15-7.13-.08-7.31-.25-15.27-.2-9.76-.37-11.72-.48-12.84a77.77,77.77,0,0,0-1.94-12.11c-1.44-5.76-2.33-6-4.84-14C99.9,74.2,98.94,70,98.39,67.58,97.28,62.7,96.67,59,96.21,56.19a94.19,94.19,0,0,1-1.46-12.6c0-.65,0-1.35-.06-2.58s0-2.22-.15-3.32a2,2,0,0,1,.07-1.31c.28-.52.71-.46,1-.93a1.88,1.88,0,0,0-.31-2.24c-.23-.22-.73-.3-1.7-.46-.66-.12-1.08-.16-1.08-.16-2-.2-2.58-.36-3.94-.46a29,29,0,0,0-6,.38c-1,.12-1.86.26-2.24.93A1.91,1.91,0,0,0,80.32,35c.19.52.5.58.85,1.16a3.86,3.86,0,0,1,.46,1.54,9.42,9.42,0,0,1-.08,2.94c-.11.93-.16.78-.23,1.47a19.28,19.28,0,0,0,0,2.62C81.35,45.31,81.37,45.61,81.43,46.26Z" transform="translate(-7.53 -25.84)"/><path class="cls-1" d="M80.81,30.87c-.58-.44-.46-1.74,0-2.56a3.37,3.37,0,0,1,1.85-1.39,5.83,5.83,0,0,1,2.1-.35c3.56-.15,2.88-.25,4.29-.23a11,11,0,0,1,4.07.58,3,3,0,0,1,1.16.7,3.45,3.45,0,0,1,.81,2.67c0,.52,0,1-.34,1.16S93.93,31,93,30.52a7.1,7.1,0,0,0-2.55-.7,14.38,14.38,0,0,0-3.26-.11,16.28,16.28,0,0,0-2.78.35C82.07,30.56,81.36,31.29,80.81,30.87Z" transform="translate(-7.53 -25.84)"/><path class="cls-1" d="M133.9,46.26c.31,3.34-.73,9.69-.73,9.69-1.31,8-.54,6.81-1.45,10.9-.56,2.52-.55,1.66-3.15,10.42-1,3.54-1.33,4.61-2.42,8.24-1,3.35-1.46,4.35-2.18,7-.47,1.71-1,3.78-1.46,6.3a60.81,60.81,0,0,0-.72,8.24c-.14,3.2-.22,6.65-.24,14.05,0,1,0,.72,0,9.45v8.72c0,4,.17,8.08,0,12.11a85.43,85.43,0,0,0,.24,10.91,11.64,11.64,0,0,0,1,3.63,12.68,12.68,0,0,0,1.69,2.67c3.79,4.43,22.17,0,30.53.72a6.18,6.18,0,0,0,4.36-1,5.88,5.88,0,0,0,1.94-3.39c1-3.88.66-7,.48-10.17-.12-2.2.11.28,0-9.21,0-4.89-.13-6.63-.24-11.87-.15-7.13-.07-7.31-.24-15.27-.21-9.76-.38-11.72-.49-12.84a76.41,76.41,0,0,0-1.93-12.11c-1.45-5.76-2.34-6-4.85-14-1.64-5.25-2.6-9.43-3.15-11.87-1.11-4.88-1.71-8.55-2.18-11.39a93.28,93.28,0,0,1-1.45-12.6c0-.65,0-1.35-.07-2.58s0-2.22-.15-3.32a1.91,1.91,0,0,1,.08-1.31c.27-.52.7-.46,1-.93a1.88,1.88,0,0,0-.31-2.24c-.23-.22-.73-.3-1.7-.46-.65-.12-1.08-.16-1.08-.16-2-.2-2.57-.36-3.94-.46a29,29,0,0,0-5.95.38c-1,.12-1.85.26-2.24.93a2,2,0,0,0-.08,1.55c.2.52.5.58.85,1.16a3.71,3.71,0,0,1,.47,1.54,9.74,9.74,0,0,1-.08,2.94c-.12.93-.17.78-.23,1.47a16.08,16.08,0,0,0,0,2.62C133.83,45.31,133.84,45.61,133.9,46.26Z" transform="translate(-7.53 -25.84)"/><path class="cls-1" d="M133.28,30.87c-.58-.44-.46-1.74,0-2.56a3.39,3.39,0,0,1,1.86-1.39,5.77,5.77,0,0,1,2.09-.35c3.56-.15,2.88-.25,4.3-.23a11,11,0,0,1,4.06.58,3,3,0,0,1,1.17.7,3.49,3.49,0,0,1,.81,2.67c0,.52,0,1-.35,1.16s-.82-.42-1.74-.93a7.22,7.22,0,0,0-2.56-.7,14.28,14.28,0,0,0-3.25-.11,16.37,16.37,0,0,0-2.79.35C134.54,30.56,133.83,31.29,133.28,30.87Z" transform="translate(-7.53 -25.84)"/><path class="cls-1" d="M193.24,46.26c.31,3.34-.73,9.69-.73,9.69-1.31,8-.54,6.81-1.45,10.9-.56,2.52-.55,1.66-3.15,10.42-1,3.54-1.33,4.61-2.42,8.24-1,3.35-1.46,4.35-2.18,7-.47,1.71-1,3.78-1.46,6.3a59.2,59.2,0,0,0-.72,8.24c-.14,3.2-.22,6.65-.25,14.05v18.17c0,4,.18,8.08,0,12.11a86.33,86.33,0,0,0,.25,10.91,11.54,11.54,0,0,0,1,3.63,13,13,0,0,0,1.7,2.67c3.79,4.43,22.16,0,30.53.72a6.18,6.18,0,0,0,4.36-1,5.93,5.93,0,0,0,1.94-3.39c1-3.88.66-7,.48-10.17-.12-2.2.11.28,0-9.21,0-4.89-.13-6.63-.24-11.87-.15-7.13-.08-7.31-.24-15.27-.21-9.76-.38-11.72-.49-12.84a76.59,76.59,0,0,0-1.94-12.11c-1.44-5.76-2.33-6-4.84-14-1.64-5.25-2.6-9.43-3.15-11.87C209.09,62.7,208.48,59,208,56.19a96.11,96.11,0,0,1-1.46-12.6c0-.65,0-1.35-.06-2.58s0-2.22-.15-3.32a1.91,1.91,0,0,1,.08-1.31c.27-.52.7-.46,1-.93a1.88,1.88,0,0,0-.31-2.24c-.23-.22-.73-.3-1.7-.46-.65-.12-1.08-.16-1.08-.16-2-.2-2.57-.36-3.94-.46a29,29,0,0,0-6,.38c-1,.12-1.86.26-2.24.93a2,2,0,0,0-.08,1.55c.2.52.5.58.85,1.16a3.71,3.71,0,0,1,.46,1.54,9.41,9.41,0,0,1-.07,2.94c-.12.93-.17.78-.23,1.47a16.08,16.08,0,0,0,0,2.62C193.17,45.31,193.18,45.61,193.24,46.26Z" transform="translate(-7.53 -25.84)"/><path class="cls-1" d="M192.62,30.87c-.58-.44-.46-1.74,0-2.56a3.36,3.36,0,0,1,1.86-1.39,5.74,5.74,0,0,1,2.09-.35c3.56-.15,2.88-.25,4.3-.23a11,11,0,0,1,4.06.58,3,3,0,0,1,1.16.7,3.51,3.51,0,0,1,.82,2.67c0,.52-.06,1-.35,1.16s-.82-.42-1.74-.93a7.22,7.22,0,0,0-2.56-.7,14.28,14.28,0,0,0-3.25-.11,16.25,16.25,0,0,0-2.79.35C193.88,30.56,193.17,31.29,192.62,30.87Z" transform="translate(-7.53 -25.84)"/><path class="cls-2" d="M13.93,75.2c5.91.09,11.83-.55,17.74-.31,4.81.2,9.62.08,14.43.12,9.62.09,11.09.11,14.56.12,3.93,0,5.51,0,12.64,0H91.9c7.92,0,13.47.06,22.19.12,16.42.12,18.54.2,29.46.24,7.13,0,6.15,0,17.89,0,9.38,0,20,0,32.8.12,9.16.07,15.78.33,28.63.36,1.86,0,3.74.15,5.6,0,2.33-.2,3.54-.54,4.53.24.42.32.83.88,1.2,3.22a30.94,30.94,0,0,1,.23,6.56c-.1,2.34-.15,4.39-.23,6.08a6.36,6.36,0,0,1-.12,2.26A5.2,5.2,0,0,1,231,97a7.72,7.72,0,0,1-3,.36c-2.42-.06-4.85,0-7.27-.12-.71,0-2.54,0-6.2,0-3.09,0-6.32,0-9.78.12-6.42.12-6.73.2-11.1.23-.62,0-2.76,0-7,0h-8.35c-3.94,0-4.59.13-9.54.24-1.46,0-4.1.06-9.31.12-8.13.09-12.23.14-13.83.12-5.11,0-5.67-.17-9.66-.12-3.09,0-3.38.13-8.11.24-3.75.09-6.67.11-9.19.12-3.66,0-5,0-8.11,0-5.42,0-7.18.07-12.64.12-3.71,0-9,0-19.44,0-8.27,0-9.47,0-13,0-5.77.06-6.83.16-12.05.24-13.7.22-11.93-.35-18.85,0-4.46.22-13.78.89-17.65.48a19.19,19.19,0,0,0-4.29-.36c-1.31.08-2.05.31-2.74-.12-.89-.55-1.07-1.76-1.2-3.1a40.09,40.09,0,0,1,0-7c.26-3.15-.19-4.25-.12-7.16,0-1,.08-1.64,0-2.8s-.17-1.46-.06-1.79C9.05,75.11,13.33,75.19,13.93,75.2Z" transform="translate(-7.53 -25.84)"/><path class="cls-2" d="M9.54,105.34c-.55.71-.67,1.83-.9,4.06a27,27,0,0,0,0,5.4,62.8,62.8,0,0,1-.23,8.11c-.3,5.25-.68,6,0,7,1.4,2.08,4.91,1.93,8.11,1.81,6.68-.25,13.37-.15,20.05-.45,7.48-.35,5.7.27,17.34,0,7.17-.17,8.79-.43,16-.46,4,0,5.31.06,10.36,0,3.86,0,5.27-.1,10.58-.22s9.15-.2,13.29-.23c8,0,8.16.21,16.45.23,6.68,0,6.23-.15,16-.23,2.87,0,3.22,0,17.12,0,8.82,0,13.25,0,14.41,0,8-.07,8.84-.23,20.28-.45,1.42,0,3.36-.06,16.22-.22,5.54-.07,13.63-.55,18.24-.23.47,0,2.38.18,5,.23,3,.06,3.28.14,3.6,0,2-.92.9-5.46.68-13.74-.1-3.54,0-5.31,0-6.08.21-4.07.68-4.87,0-5.86-.93-1.33-2.88-1.45-9-1.35-4.74.07-7.11.11-8.56.22-2.52.2-8.14.21-19.37.23-8.57,0-9.44-.1-15.77,0-4.89.08-4.75.15-9.46.22-8.77.14-9.31-.12-16.45,0s-7.22.4-14.41.45h-17.8c-7.27,0-9.39.3-16,.45-6.2.15-5.24,0-16.22,0-7,0-6.08.12-16.89.23-11.36.12-12.18,0-17.12.23-3.52.13-5.45.27-10.81.45-3.85.12-6.28.2-9.46.22-6.74,0-10.1.06-13.52-.22C14.37,104.54,11,103.41,9.54,105.34Z" transform="translate(-7.53 -25.84)"/><path class="cls-2" d="M9.24,140.27a13.09,13.09,0,0,0-.31,3.39c0,1.23-.06,1.8,0,6.48,0,3.31-.19,3.39-.31,8-.11,4.24.08,3.36,0,7.4-.09,4.49-.31,5.21.31,6.17s1.79,1.85,7.71,2.16c6.31.33,9.66-.41,16.65-.62,2.26-.07,1.09,0,6.79,0,7.74-.05,10.48-.24,17.58-.31,2.64,0,3.63,0,9.25,0,1.83,0,14.22,0,23.44,0,13.16,0,19.74-.07,25.91-.31,10.8-.41,11.7-.84,20.36-.92,2.41,0,2.56,0,18.51.31,13.86.26,16.55.29,18.81.31,9.46.07,8.51-.08,16,0,12.36.12,18.54.18,24.37.61,4,.3,8-.16,12,.31,2.84.34,4.48.73,5.56-.31s.41-2.45.3-9.25c0-1.85,0-3.7,0-5.55v-5.25c.05-3.2.21-4.81.31-9.25.1-4.17,0-4.91-.61-5.55-1-1-2.34-.82-6.17-.62,0,0-4,.22-8,.31-5,.12-4.93-.58-10.18-.62-4.05,0-4.21.39-9.87.62-4.62.19-4.61-.08-10.18,0-6.67.1-6.77.5-13.57.62-4.72.08-5-.1-10.79,0-5.32.09-5.12.24-9.26.31-8.43.13-8.84-.51-16.65-.31-3.46.09-4.78.25-9.56.31-3.13,0-4.09,0-7.1,0-5.45,0-6.32.2-11.72.31-7.2.14-7.2-.16-14.8,0-4.88.09-4.79.21-9.87.3-5.62.1-5.87,0-12,0-8.1.06-8.34.32-15.73.31-4.26,0-5.09-.09-8.33,0-4.93.14-6.45.44-10.18.62A105.09,105.09,0,0,1,24.35,140C15.28,139.3,10.61,138,9.24,140.27Z" transform="translate(-7.53 -25.84)"/></svg>