<svg id="Lag_2" data-name="Lag 2" xmlns="http://www.w3.org/2000/svg" viewBox="0 0 256.87 145.33"><defs><style>.cls-1{fill:none;}.cls-1,.cls-2,.cls-3,.cls-6{stroke:#1e1e1c;stroke-miterlimit:10;}.cls-2,.cls-5{fill:#1e1e1c;}.cls-3,.cls-4,.cls-6{fill:#fff;}.cls-6{stroke-width:0.5px;}</style></defs><polygon class="cls-1" points="17.54 44.44 0.98 67.13 64.14 67.13 169.6 67.13 155.5 44.44 17.54 44.44"/><line class="cls-1" x1="169.6" y1="67.13" x2="123" y2="138.25"/><line class="cls-1" x1="0.98" y1="67.13" x2="50.65" y2="138.25"/><line class="cls-1" x1="17.54" y1="44.44" x2="29.8" y2="67.13"/><line class="cls-1" x1="155.5" y1="44.44" x2="143.85" y2="67.13"/><circle class="cls-1" cx="86.83" cy="102.69" r="6.52"/><circle class="cls-2" cx="86.83" cy="102.69" r="3.18"/><path class="cls-1" d="M146.57,125a120.07,120.07,0,0,0,19.62-7.36c31.41-15.06,32.06-32.52,55.61-40.35,14.32-4.76,28.82-3.21,46.17-1.35a171.28,171.28,0,0,1,23.92,4.3" transform="translate(-59.74 -22.29)"/><ellipse class="cls-3" cx="223.87" cy="54" rx="32.5" ry="4.29"/><line class="cls-2" x1="123" y1="138.25" x2="50.65" y2="138.25"/><polyline class="cls-1" points="57.05 138.25 61.39 144.83 110.12 144.83 116.87 138.25"/><path class="cls-4" d="M145.71,61.06a4.73,4.73,0,0,0-1.74-.34,5.81,5.81,0,0,0-3.43,1.44A13.53,13.53,0,0,0,136.86,66a15.06,15.06,0,0,0-2.36,7.44,11.33,11.33,0,0,0,1.17,6.43,11,11,0,0,0,3.55,3.75,10.47,10.47,0,0,0,4.16,1.94,10.14,10.14,0,0,0,5-.22A12.57,12.57,0,0,0,152.5,83,18.47,18.47,0,0,0,156.61,79a9.92,9.92,0,0,0,2.07-4,7.34,7.34,0,0,0,.11-3,7.74,7.74,0,0,0-1.33-3c-.8-1.23-1.05-1.12-2.68-3S153,63.68,151.84,63a6.83,6.83,0,0,0-2.17-.84" transform="translate(-59.74 -22.29)"/><path class="cls-5" d="M145.7,61.08a4.36,4.36,0,0,0-2.2-.28,5.45,5.45,0,0,0-2.07.82,14.41,14.41,0,0,0-3.4,2.92,14.84,14.84,0,0,0-3.36,8.18,15.86,15.86,0,0,0,.16,4.46,9.5,9.5,0,0,0,1.9,4,14,14,0,0,0,3.4,2.86,9.8,9.8,0,0,0,4.14,1.49,10.22,10.22,0,0,0,4.36-.48,14.16,14.16,0,0,0,3.8-2.29,18.4,18.4,0,0,0,3.3-3,13.55,13.55,0,0,0,2.39-3.7,7.21,7.21,0,0,0,.38-4.3,6.55,6.55,0,0,0-.86-2A8,8,0,0,0,156.31,68a31.1,31.1,0,0,1-3-3.41,5.88,5.88,0,0,0-3.66-2.37v-.05a6,6,0,0,1,3.83,2.28,30.76,30.76,0,0,0,3,3.33,7.9,7.9,0,0,1,1.41,1.8,7.19,7.19,0,0,1,1,2.11,7.68,7.68,0,0,1-.31,4.57,14.32,14.32,0,0,1-2.48,3.86,19.67,19.67,0,0,1-3.39,3.06,14.63,14.63,0,0,1-3.94,2.31,10.52,10.52,0,0,1-4.56.45,10,10,0,0,1-4.28-1.57,14,14,0,0,1-3.46-3,9.65,9.65,0,0,1-1.93-4.12,16.15,16.15,0,0,1-.13-4.55,14.44,14.44,0,0,1,7-11.16,5.72,5.72,0,0,1,2.11-.81,4.47,4.47,0,0,1,2.23.32Z" transform="translate(-59.74 -22.29)"/><path class="cls-4" d="M149.31,62.64a5,5,0,0,0,.19,1.27,6.51,6.51,0,0,0,.51,1.15,10.53,10.53,0,0,0,.62,1" transform="translate(-59.74 -22.29)"/><path class="cls-5" d="M149.34,62.64a5.07,5.07,0,0,0,.55,1.74c.15.26.34.52.48.79a3.29,3.29,0,0,1,.28.92l0,0a3.22,3.22,0,0,1-.68-.7,3,3,0,0,1-.4-.87,4.33,4.33,0,0,1-.24-1.91Z" transform="translate(-59.74 -22.29)"/><path class="cls-6" d="M150.25,67.32a5.64,5.64,0,0,1,.44-1.42,11.23,11.23,0,0,1,1-1.48c.83-1.16,1-1.56,1.41-1.61s.69.12.75.34-.19.45-.4.66c-.49.48-.83,1.1-1.29,1.62a8.49,8.49,0,0,0-1.4,2.28" transform="translate(-59.74 -22.29)"/><path class="cls-4" d="M142,65.85a4.67,4.67,0,0,1,1-.61,4.37,4.37,0,0,1,2.11-.39A6,6,0,0,1,147.64,66c.6.35,1.2.77,1.6,1s.78.52,1.38.9.93.58,1.26.59a2.12,2.12,0,0,0,1.07-.37,3.37,3.37,0,0,1,2.4,0" transform="translate(-59.74 -22.29)"/><path class="cls-5" d="M142,65.83a4.33,4.33,0,0,1,3.46-1,6.44,6.44,0,0,1,1.72.74c.54.29,1,.62,1.57,1l1.57,1,.77.48a1.7,1.7,0,0,0,.72.33,1.15,1.15,0,0,0,.74-.17,2.52,2.52,0,0,1,.94-.29,3.69,3.69,0,0,1,1.84.34l0,0a4.61,4.61,0,0,0-1.77,0,2.55,2.55,0,0,0-.78.33,1.79,1.79,0,0,1-1,.29,2.35,2.35,0,0,1-.95-.39c-.26-.16-.51-.33-.76-.51l-1.51-1c-.51-.34-1-.69-1.53-1a6.08,6.08,0,0,0-1.6-.78,4.2,4.2,0,0,0-3.38.85Z" transform="translate(-59.74 -22.29)"/><path class="cls-4" d="M154.47,69.59a3.43,3.43,0,0,1,1,1,3.87,3.87,0,0,1,.54,2.26,8.7,8.7,0,0,1-1.15,4.06,14.34,14.34,0,0,1-2.19,3.18" transform="translate(-59.74 -22.29)"/><path class="cls-5" d="M154.48,69.57a3.35,3.35,0,0,1,1.1,1,3.55,3.55,0,0,1,.53,1.43,7.18,7.18,0,0,1-.22,3,10.39,10.39,0,0,1-3.18,5.06l0,0a27.58,27.58,0,0,0,1.57-2.51,20.63,20.63,0,0,0,1.27-2.64,6.82,6.82,0,0,0,.35-2.87,3.13,3.13,0,0,0-1.41-2.44Z" transform="translate(-59.74 -22.29)"/><path class="cls-4" d="M137.19,75.07a11.24,11.24,0,0,0-.48,1.57,9.09,9.09,0,0,0-.29,2.35,6.18,6.18,0,0,0,1.27,3.44" transform="translate(-59.74 -22.29)"/><path class="cls-5" d="M137.22,75.07a13,13,0,0,0-.61,3.77,7.82,7.82,0,0,0,.4,1.8,14.44,14.44,0,0,0,.7,1.77l0,0a4.73,4.73,0,0,1-1.13-1.62,4.62,4.62,0,0,1-.33-2,8.94,8.94,0,0,1,.32-1.94c.18-.63.43-1.23.64-1.84Z" transform="translate(-59.74 -22.29)"/><path class="cls-4" d="M129.4,28.29a4.73,4.73,0,0,0-1.23,1.28,5.75,5.75,0,0,0-.66,3.65,14,14,0,0,0,1.22,5.18,15.15,15.15,0,0,0,5,6,11.46,11.46,0,0,0,6,2.51,11.09,11.09,0,0,0,5.08-.94,10.68,10.68,0,0,0,3.89-2.44,10.19,10.19,0,0,0,2.53-4.33,12.52,12.52,0,0,0,.26-4.73,18.38,18.38,0,0,0-1.07-5.59A9.89,9.89,0,0,0,148.21,25a7.25,7.25,0,0,0-2.43-1.71,7.57,7.57,0,0,0-3.24-.51c-1.47,0-1.51.27-4,.63s-3,.19-4.24.77a6.61,6.61,0,0,0-1.88,1.36" transform="translate(-59.74 -22.29)"/><path class="cls-5" d="M129.42,28.31A4.36,4.36,0,0,0,128,30a5.61,5.61,0,0,0-.43,2.18,14.47,14.47,0,0,0,.6,4.44,14.8,14.8,0,0,0,5,7.26,15.79,15.79,0,0,0,3.83,2.3,9.45,9.45,0,0,0,4.37.56,14,14,0,0,0,4.25-1.3,9.88,9.88,0,0,0,3.5-2.67,10.06,10.06,0,0,0,2-3.92,14,14,0,0,0,.14-4.43,18.63,18.63,0,0,0-.71-4.4,13.92,13.92,0,0,0-1.81-4,7.27,7.27,0,0,0-3.4-2.65,6.86,6.86,0,0,0-2.16-.38,8.15,8.15,0,0,0-2.21.16,31,31,0,0,1-4.48.65,5.86,5.86,0,0,0-4,1.79l0,0a6,6,0,0,1,4-2,31.62,31.62,0,0,0,4.44-.73,8.43,8.43,0,0,1,2.29-.21,7.14,7.14,0,0,1,2.28.35,7.76,7.76,0,0,1,3.67,2.74A14.43,14.43,0,0,1,151,29.88a19.3,19.3,0,0,1,.73,4.51,14.29,14.29,0,0,1-.2,4.56,10.45,10.45,0,0,1-2.1,4.08,10.1,10.1,0,0,1-3.64,2.74,14.2,14.2,0,0,1-4.37,1.29,9.62,9.62,0,0,1-4.51-.62A15.86,15.86,0,0,1,133,44.08a15,15,0,0,1-5-7.41,14.83,14.83,0,0,1-.55-4.49,5.79,5.79,0,0,1,.46-2.21,4.42,4.42,0,0,1,1.48-1.7Z" transform="translate(-59.74 -22.29)"/><path class="cls-4" d="M132.69,26.12a5,5,0,0,0,1.16.53,5.83,5.83,0,0,0,1.24.2,9.17,9.17,0,0,0,1.22,0" transform="translate(-59.74 -22.29)"/><path class="cls-5" d="M132.7,26.1a5.13,5.13,0,0,0,1.77.48c.3,0,.62,0,.92,0a3.37,3.37,0,0,1,.92.26v.05a3.15,3.15,0,0,1-1,.19,2.79,2.79,0,0,1-.94-.14,4.2,4.2,0,0,1-1.74-.83Z" transform="translate(-59.74 -22.29)"/><path class="cls-6" d="M137.12,27.87a5.49,5.49,0,0,1-1-1.14,10.39,10.39,0,0,1-.68-1.67c-.53-1.32-.78-1.66-.59-2s.48-.52.7-.45.27.41.33.69c.15.68.47,1.3.66,2a8.17,8.17,0,0,0,1.16,2.41" transform="translate(-59.74 -22.29)"/><path class="cls-4" d="M131.43,34a4.51,4.51,0,0,1,0-1.15,4.29,4.29,0,0,1,.82-2,6.1,6.1,0,0,1,2.3-1.5c.62-.31,1.3-.6,1.74-.78s.86-.38,1.5-.67,1-.47,1.19-.74a2.38,2.38,0,0,0,.27-1.1,3.29,3.29,0,0,1,1.32-2" transform="translate(-59.74 -22.29)"/><path class="cls-5" d="M131.41,34a4.34,4.34,0,0,1,1-3.48,6.34,6.34,0,0,1,1.56-1c.53-.3,1.1-.54,1.65-.81l1.66-.79.82-.38a1.8,1.8,0,0,0,.67-.43,1.14,1.14,0,0,0,.26-.72,2.47,2.47,0,0,1,.27-.94A3.72,3.72,0,0,1,140.57,24l0,0a4.25,4.25,0,0,0-1,1.46,2.66,2.66,0,0,0-.16.84,1.79,1.79,0,0,1-.29,1,2.31,2.31,0,0,1-.84.59l-.85.37-1.69.7c-.56.24-1.13.46-1.68.73a6.32,6.32,0,0,0-1.52.93,4.19,4.19,0,0,0-1.12,3.3Z" transform="translate(-59.74 -22.29)"/><path class="cls-4" d="M141.32,25.57a3.31,3.31,0,0,1,1.39-.32,3.76,3.76,0,0,1,2.19.77,8.79,8.79,0,0,1,2.78,3.17,14.36,14.36,0,0,1,1.49,3.57" transform="translate(-59.74 -22.29)"/><path class="cls-5" d="M141.31,25.55a3.37,3.37,0,0,1,1.46-.38,3.6,3.6,0,0,1,1.48.34,7.12,7.12,0,0,1,2.42,1.83,10.38,10.38,0,0,1,2.52,5.41l-.05,0a26.24,26.24,0,0,0-1.25-2.68,20.36,20.36,0,0,0-1.53-2.5,6.88,6.88,0,0,0-2.22-1.86,3.12,3.12,0,0,0-2.81-.14Z" transform="translate(-59.74 -22.29)"/><path class="cls-4" d="M136.53,43.05a15.46,15.46,0,0,0,1.06,1.26,9.79,9.79,0,0,0,1.82,1.52,6.12,6.12,0,0,0,3.58.79" transform="translate(-59.74 -22.29)"/><path class="cls-5" d="M136.55,43a13.16,13.16,0,0,0,2.84,2.55,7.51,7.51,0,0,0,1.73.65,15.3,15.3,0,0,0,1.86.37v0a4.72,4.72,0,0,1-2,.07,4.6,4.6,0,0,1-1.84-.8,8.76,8.76,0,0,1-1.46-1.32c-.43-.49-.8-1-1.2-1.54Z" transform="translate(-59.74 -22.29)"/></svg>