<svg id="Lag_1" data-name="Lag 1" xmlns="http://www.w3.org/2000/svg" viewBox="0 0 123.48 115.41"><defs><style>.cls-1{fill:#1d1d1b;}.cls-2{fill:none;stroke:#1d1d1b;stroke-miterlimit:10;}</style></defs><path class="cls-1" d="M17.77,38.59A24.72,24.72,0,0,1,27,32.37c2.54-.95,7-2.4,9.25,0,1.59,1.67.54,4.14-.39,5.84a56.81,56.81,0,0,1-3.21,5.15,59.31,59.31,0,0,1-8.15,9c-2.74,2.6-5.37,5.38-6.85,8.91-1,2.47-2.1,7.15.36,9.14s6.38,1.65,9.1.63a17,17,0,0,0,7.76-6.46c2.1-3,4.55-7.07,3.76-10.9C37.91,50,34.2,48.52,31,47.52c-.77-.24-1.1,1-.33,1.21,3.18,1,6.94,2.5,6.85,6.47-.09,3.61-2.64,7.5-4.9,10.19s-5.49,4.91-9.18,5.09c-1.7.09-4.58-.19-5.28-2a9,9,0,0,1,.21-5.59c1.12-3.62,3.69-6.49,6.36-9.07a73.36,73.36,0,0,0,7.66-8c2.55-3.34,10.07-13,2.83-15.5-3-1.05-6.52.05-9.31,1.19a25.84,25.84,0,0,0-9.06,6.25c-.56.58.33,1.47.88.88Z" transform="translate(-8.87 -10.44)"/><path class="cls-1" d="M37.38,57a75.73,75.73,0,0,1,4.13,13.66c.16.79,1.36.45,1.2-.33A75.48,75.48,0,0,0,38.58,56.7c-.3-.73-1.51-.41-1.2.33Z" transform="translate(-8.87 -10.44)"/><path class="cls-1" d="M46.57,42.64A26.12,26.12,0,0,0,59,50.49a.64.64,0,0,0,.79-.6c.21-3.64.56-7.3.59-11,0-2.69-.35-5.59-2.17-7.71-3.3-3.85-9.75-2.85-12,1.52-1.48,2.82-1.71,6.36-1.91,9.49a55.54,55.54,0,0,0,.35,10.86A38.5,38.5,0,0,0,47,63c1,2.27,2.62,4.38,5.17,4.88a8,8,0,0,0,7.46-3c2.24-2.72,2.77-6.37,2.93-9.78,0-.81-1.21-.8-1.25,0-.13,2.76-.49,5.66-2,8.06A7.17,7.17,0,0,1,53,66.77c-2.72-.2-4.3-2.6-5.15-4.94a41,41,0,0,1-1.83-8,47.65,47.65,0,0,1,.4-18c.62-2.5,2-4.8,4.59-5.51A6.32,6.32,0,0,1,57,31.77c2.11,2.09,2.2,5.38,2.1,8.16-.11,3.32-.36,6.64-.56,10l.8-.61a25,25,0,0,1-11.91-7.52c-.53-.6-1.41.28-.88.88Z" transform="translate(-8.87 -10.44)"/><path class="cls-1" d="M68.66,36a142.81,142.81,0,0,1-1.55,33.3c-.13.79,1.08,1.13,1.21.33A144,144,0,0,0,69.91,36c-.06-.79-1.31-.8-1.25,0Z" transform="translate(-8.87 -10.44)"/><path class="cls-1" d="M71.23,35c.87-2.14,4.26-4.73,6.43-2.67,1.64,1.56,1.3,4.49.85,6.47a15.85,15.85,0,0,1-8.37,10.54c-.54.26-.31,1.24.31,1.16,2.76-.36,4.76,2,6.29,4,1.77,2.26,3.42,4.73,3.2,7.72a7.94,7.94,0,0,1-11.67,6.3c-.7-.38-1.34.7-.63,1.08a9.19,9.19,0,0,0,13.49-6.85C81.55,59.35,80,56.57,78,54c-1.83-2.37-4.24-5.28-7.58-4.84l.32,1.17a16.81,16.81,0,0,0,9.34-14.28c0-2.4-.91-5.27-3.61-5.69S71.05,32.11,70,34.61c-.3.75.91,1.07,1.2.34Z" transform="translate(-8.87 -10.44)"/><path class="cls-1" d="M91.94,26.79A171.17,171.17,0,0,1,89.9,66a.63.63,0,0,0,1.14.48c.83-1.2,2.62-.12,3.52.39a5.24,5.24,0,0,0,3,.92c.79-.06.8-1.31,0-1.25-2.41.18-5.55-3.74-7.65-.69l1.14.48a172.93,172.93,0,0,0,2.09-39.49c0-.8-1.3-.8-1.25,0Z" transform="translate(-8.87 -10.44)"/><path class="cls-1" d="M120.44,34.14a15.29,15.29,0,0,0-15-6.48.64.64,0,0,0-.43.77c1,3.17.49,6.41-.12,9.6a62.59,62.59,0,0,0-1.16,9.14c-.26,6.64-.4,13.3-.6,20a.63.63,0,0,0,.62.62,90.43,90.43,0,0,1,10,1.55c.79.17,1.12-1,.33-1.2a91.68,91.68,0,0,0-10.29-1.6l.63.63c.2-6.81.32-13.62.62-20.43A76.75,76.75,0,0,1,106.38,37a18.56,18.56,0,0,0-.13-8.92l-.43.77a14,14,0,0,1,13.54,5.9c.44.66,1.53,0,1.08-.63Z" transform="translate(-8.87 -10.44)"/><path class="cls-1" d="M104.48,44.44q9,4.77,18.32,8.7c.74.31,1.06-.9.33-1.2q-9.19-3.88-18-8.58c-.71-.38-1.34.7-.63,1.08Z" transform="translate(-8.87 -10.44)"/><path class="cls-1" d="M25.58,85.61a282.82,282.82,0,0,1,11.56,27.27c.27.75,1.48.42,1.2-.34A287.37,287.37,0,0,0,26.66,85c-.35-.73-1.43-.09-1.08.63Z" transform="translate(-8.87 -10.44)"/><path class="cls-1" d="M26.78,85.61q7.06-2.3,14.25-4.25a.63.63,0,0,0-.34-1.21q-7.17,2-14.25,4.26c-.76.24-.43,1.45.34,1.2Z" transform="translate(-8.87 -10.44)"/><path class="cls-1" d="M31.13,95.89a42.09,42.09,0,0,1,9.58.49c.78.13,1.12-1.07.33-1.2a43.82,43.82,0,0,0-9.91-.54c-.8,0-.8,1.29,0,1.25Z" transform="translate(-8.87 -10.44)"/><path class="cls-1" d="M84.37,78.05a112.72,112.72,0,0,1-.87,18.36c-.4,3.07-.94,6.11-1.59,9.14a34.9,34.9,0,0,0-1.21,9,.63.63,0,0,0,.46.6,25.13,25.13,0,0,1,7.67,2.65c.71.39,1.34-.69.63-1.07a26.27,26.27,0,0,0-8-2.79l.46.61c-.14-3.21.66-6.3,1.32-9.41q.92-4.35,1.48-8.76a113.85,113.85,0,0,0,.87-18.36c0-.8-1.28-.81-1.25,0Z" transform="translate(-8.87 -10.44)"/><path class="cls-1" d="M96.41,78.05v30.07a.63.63,0,0,0,1.25,0V78.05a.63.63,0,0,0-1.25,0Z" transform="translate(-8.87 -10.44)"/><path class="cls-1" d="M97.12,78.67c3.68-.21,8.22.29,10.61,3.48s1.77,8.46.85,12.15a27.07,27.07,0,0,1-14.45,17.76c-.72.34-.09,1.42.63,1.07a28,28,0,0,0,13.62-14.35,27,27,0,0,0,2.18-9.73c.11-3.42-.52-7-3.34-9.18s-6.65-2.65-10.1-2.45c-.8,0-.81,1.3,0,1.25Z" transform="translate(-8.87 -10.44)"/><path class="cls-1" d="M52,84.44a61.16,61.16,0,0,1,10.53-3.61,22.75,22.75,0,0,1,2.84-.48,7.29,7.29,0,0,1,3,0c2.22,1-.45,4.15-1.24,5.42a50.35,50.35,0,0,1-6.81,8.9c-1.2,1.21-2.44,2.39-3.69,3.55a11.14,11.14,0,0,1-1.88,1.48,9.23,9.23,0,0,0-2.28,1.46,26.32,26.32,0,0,0-5.18,7.38,9.43,9.43,0,0,0-1,3.78c0,1.25,1.22,2.12,2.26,2.6,2.67,1.23,5.65.27,8.06-1.08a24.63,24.63,0,0,0,7-6,26.81,26.81,0,0,0,2.84-4.24c.68-1.27,1.25-2.13.45-3.45s-1.58-2.32-3.29-2.57-3.69-.43-5.53-.63c-.8-.09-.79,1.16,0,1.25,1.59.18,3.18.34,4.76.53a2.89,2.89,0,0,1,2.44,1.19,4.12,4.12,0,0,1,.54.86,1.7,1.7,0,0,1-.17,1.64,25.49,25.49,0,0,1-5.31,7.1c-2.28,2.15-5.36,4.47-8.59,4.74-1.21.11-3.22-.16-4-1.31-.88-1.35.55-4,1.2-5.16,1.39-2.5,3.39-5.42,5.93-6.76a15.32,15.32,0,0,0,3.17-2.5c1.25-1.18,2.5-2.36,3.68-3.61a47.46,47.46,0,0,0,5.74-7.5c.81-1.27,1.69-2.55,2.38-3.89a3.44,3.44,0,0,0,.27-3.2C69.55,79,68,79,66.77,79a22.88,22.88,0,0,0-5.26.76,65.94,65.94,0,0,0-10.14,3.57c-.74.32-.11,1.4.63,1.08Z" transform="translate(-8.87 -10.44)"/><path class="cls-1" d="M66.31,101.47c-.57,4.37.83,8.66,2.61,12.6.33.73,1.41.1,1.08-.63-1.7-3.75-3-7.81-2.44-12,.1-.8-1.15-.79-1.25,0Z" transform="translate(-8.87 -10.44)"/><path class="cls-2" d="M62.67,27.69a51.69,51.69,0,0,0,6.81.46,49.72,49.72,0,0,0,8.62-.46c5.3-.83,6.25-2.35,12.26-4.08a40.26,40.26,0,0,1,10-1.82c8.77-.26,15.49,4,17.7,5.45C120.68,29,130,35,131.67,45.4c.46,2.75,0,5.62-.91,11.35a75.83,75.83,0,0,1-5,17.7c-.24.57-.24.53-5.45,10.44-7,13.32-7.6,14.5-8.62,16.8-2.5,5.63-2.3,6.19-4.09,9.08s-4.3,6.85-9.08,9.53A19.93,19.93,0,0,1,89,123c-1.82,0-4.09-.44-8.63-1.37-4.92-1-4.93-1.27-6.81-1.36a25.38,25.38,0,0,0-8.62,1.36c-4.07,1.17-4.59,1.91-7.27,2.73a24.83,24.83,0,0,1-13.62,0c-6.5-1.91-10.32-6.33-12.25-8.63-4.3-5.1-5.9-10.44-8.63-19.52-1-3.2-1.14-4.41-2.72-9.53-1.72-5.56-3.27-9.9-3.63-10.9-2.18-6-2.59-6.35-4.09-10.89a55.73,55.73,0,0,1-2.72-10c-.54-3.5-1.11-7.21,0-11.8a25.19,25.19,0,0,1,5.44-10.44,28.22,28.22,0,0,1,13.17-8.18A35.09,35.09,0,0,1,40.88,22.7a43.93,43.93,0,0,1,10.44,1.81C56.73,25.94,57.89,27,62.67,27.69Z" transform="translate(-8.87 -10.44)"/><path class="cls-2" d="M71.14,23.05c.33-1.12-1-2.42-3.59-5a24.6,24.6,0,0,0-4.92-4.16,20.23,20.23,0,0,0-5.74-2.26c-2.69-.63-8.64-1.46-9.61.64-.35.74,0,1.58.54,2.59,1.58,3.27,4.66,4.82,6.29,5.6a30.15,30.15,0,0,0,7.8,2.36,14.68,14.68,0,0,1,3.78.86c1.34.56,1.81,1.06,2.8,1A3,3,0,0,0,71.14,23.05Z" transform="translate(-8.87 -10.44)"/></svg>