<svg id="Lag_5" data-name="Lag 5" xmlns="http://www.w3.org/2000/svg" viewBox="0 0 77.56 134.46"><defs><style>.cls-1,.cls-2,.cls-3{fill:none;}.cls-2,.cls-3{stroke:#1d1d1b;stroke-miterlimit:10;}.cls-3{stroke-width:0.25px;}</style></defs><path class="cls-1" d="M54.93,20.67c-7.41-9,18.15,10.53,22.75,14.68C83,40.18,88.84,45.41,92.93,54.27c4.37,9.48,4.38,17.89,4.32,24.49a79,79,0,0,1-8.66,34.81L112.28,124,55,151.57,36.71,88l21,10.14S87.44,60.34,54.93,20.67Z" transform="translate(-35.92 -17.81)"/><path class="cls-2" d="M54.93,20.67c-7.41-9,18.15,10.53,22.75,14.68C83,40.18,88.84,45.41,92.93,54.27c4.37,9.48,4.38,17.89,4.32,24.49a79,79,0,0,1-8.66,34.81L112.28,124,55,151.57,36.71,88l21,10.14S87.44,60.34,54.93,20.67Z" transform="translate(-35.92 -17.81)"/><line class="cls-3" x1="39.28" y1="18.08" x2="55.46" y2="34.86"/><line class="cls-3" x1="42.89" y1="24.37" x2="59.07" y2="41.16"/><line class="cls-3" x1="43.4" y1="27.64" x2="59.58" y2="44.42"/><line class="cls-3" x1="44.03" y1="31.24" x2="60.22" y2="48.03"/><line class="cls-3" x1="44.54" y1="34.51" x2="60.72" y2="51.29"/><line class="cls-3" x1="45.05" y1="37.78" x2="61.23" y2="54.56"/><line class="cls-3" x1="45.22" y1="41.18" x2="61.4" y2="57.96"/><line class="cls-3" x1="45.52" y1="44.91" x2="61.7" y2="61.69"/><line class="cls-3" x1="45.43" y1="47.64" x2="61.61" y2="64.42"/><line class="cls-3" x1="44.75" y1="49.83" x2="60.93" y2="66.62"/><line class="cls-3" x1="44.92" y1="53.23" x2="61.1" y2="70.02"/><line class="cls-3" x1="44.37" y1="55.76" x2="60.55" y2="72.54"/><line class="cls-3" x1="43.81" y1="58.28" x2="59.99" y2="75.07"/><line class="cls-3" x1="43.26" y1="60.81" x2="59.44" y2="77.6"/><line class="cls-3" x1="42.71" y1="63.34" x2="58.89" y2="80.12"/><line class="cls-3" x1="41.69" y1="65.66" x2="57.87" y2="82.45"/><line class="cls-3" x1="41.13" y1="68.19" x2="57.32" y2="84.97"/><line class="cls-3" x1="39.98" y1="70.17" x2="56.17" y2="86.96"/><line class="cls-3" x1="38.97" y1="72.5" x2="55.15" y2="89.28"/><line class="cls-3" x1="38.54" y1="75.36" x2="54.73" y2="92.14"/><line class="cls-3" x1="36.8" y1="76.81" x2="52.98" y2="93.6"/><line class="cls-3" x1="36.12" y1="79" x2="52.3" y2="95.79"/><line class="cls-3" x1="51.7" y1="95.25" x2="67.49" y2="111.03"/><line class="cls-3" x1="58.08" y1="97.77" x2="69.7" y2="109.79"/><line class="cls-3" x1="64.98" y1="101.23" x2="72.91" y2="108.15"/><line class="cls-3" x1="35.1" y1="81.33" x2="64.15" y2="112.34"/><line class="cls-3" x1="35.14" y1="84.39" x2="61.28" y2="113.85"/><path class="cls-3" d="M96.7,135.32" transform="translate(-35.92 -17.81)"/><line class="cls-3" x1="34.64" y1="88.05" x2="58.37" y2="114.79"/><line class="cls-3" x1="34.02" y1="91.38" x2="55.97" y2="116.12"/><line class="cls-3" x1="33.85" y1="94.9" x2="53.48" y2="117.02"/><line class="cls-3" x1="33.49" y1="98.9" x2="51.01" y2="118.65"/><line class="cls-3" x1="32.86" y1="102.22" x2="48.41" y2="119.75"/><line class="cls-3" x1="31.9" y1="105.68" x2="45.57" y2="121.08"/><line class="cls-3" x1="31.14" y1="108.67" x2="43.14" y2="122.19"/><line class="cls-3" x1="30.52" y1="112" x2="40.67" y2="123.44"/></svg>