<svg id="Lag_4" data-name="Lag 4" xmlns="http://www.w3.org/2000/svg" viewBox="0 0 117.74 99.15"><defs><style>.cls-1,.cls-2,.cls-3{fill:none;}.cls-2,.cls-3{stroke:#1d1d1b;stroke-miterlimit:10;}.cls-3{stroke-width:0.25px;}</style></defs><path class="cls-1" d="M10.09,112.29c-11.64,1,20.23,5.57,26.41,5.95,7.2.44,15,.91,24.18-2.38,9.83-3.52,15.84-9.4,20.51-14.07A78.91,78.91,0,0,0,100,71.22l24,9.64L103.53,20.63,45.37,52.11,67.3,60S61.17,107.69,10.09,112.29Z" transform="translate(-7.05 -19.9)"/><path class="cls-2" d="M10.09,112.29c-11.64,1,20.23,5.57,26.41,5.95,7.2.44,15,.91,24.18-2.38,9.83-3.52,15.84-9.4,20.51-14.07A78.91,78.91,0,0,0,100,71.22l24,9.64L103.53,20.63,45.37,52.11,67.3,60S61.17,107.69,10.09,112.29Z" transform="translate(-7.05 -19.9)"/><line class="cls-3" x1="28.1" y1="96.19" x2="51.41" y2="95.97"/><line class="cls-3" x1="35.12" y1="94.36" x2="58.43" y2="94.14"/><line class="cls-3" x1="37.81" y1="92.43" x2="61.12" y2="92.22"/><line class="cls-3" x1="40.82" y1="90.36" x2="64.14" y2="90.15"/><line class="cls-3" x1="43.51" y1="88.43" x2="66.82" y2="88.22"/><line class="cls-3" x1="46.2" y1="86.5" x2="69.51" y2="86.29"/><line class="cls-3" x1="48.74" y1="84.24" x2="72.06" y2="84.03"/><line class="cls-3" x1="51.62" y1="81.84" x2="74.93" y2="81.63"/><line class="cls-3" x1="53.5" y1="79.87" x2="76.82" y2="79.66"/><line class="cls-3" x1="54.59" y1="77.84" x2="77.9" y2="77.63"/><line class="cls-3" x1="57.13" y1="75.59" x2="80.45" y2="75.37"/><line class="cls-3" x1="58.55" y1="73.42" x2="81.86" y2="73.21"/><line class="cls-3" x1="59.96" y1="71.26" x2="83.28" y2="71.04"/><line class="cls-3" x1="61.38" y1="69.09" x2="84.69" y2="68.88"/><line class="cls-3" x1="62.79" y1="66.92" x2="86.11" y2="66.71"/><line class="cls-3" x1="63.74" y1="64.57" x2="87.05" y2="64.36"/><line class="cls-3" x1="65.15" y1="62.41" x2="88.47" y2="62.19"/><line class="cls-3" x1="65.77" y1="60.19" x2="89.08" y2="59.98"/><line class="cls-3" x1="66.71" y1="57.84" x2="90.03" y2="57.63"/><line class="cls-3" x1="68.46" y1="55.53" x2="91.77" y2="55.32"/><line class="cls-3" x1="68.27" y1="53.27" x2="91.59" y2="53.06"/><line class="cls-3" x1="69.36" y1="51.25" x2="92.67" y2="51.03"/><line class="cls-3" x1="91.87" y1="50.99" x2="114.2" y2="51.2"/><line class="cls-3" x1="98.13" y1="53.77" x2="114.85" y2="53.65"/><line class="cls-3" x1="105.44" y1="56.27" x2="115.93" y2="57.09"/><line class="cls-3" x1="70.3" y1="48.89" x2="112.79" y2="47.9"/><line class="cls-3" x1="72.52" y1="46.78" x2="111.85" y2="44.79"/><path class="cls-3" d="M121.16,61.78" transform="translate(-7.05 -19.9)"/><line class="cls-3" x1="74.78" y1="43.86" x2="110.49" y2="42.05"/><line class="cls-3" x1="76.71" y1="41.08" x2="109.76" y2="39.41"/><line class="cls-3" x1="79.12" y1="38.49" x2="108.65" y2="37"/><line class="cls-3" x1="81.71" y1="35.43" x2="108.08" y2="34.1"/><line class="cls-3" x1="83.65" y1="32.66" x2="107.04" y2="31.48"/><line class="cls-3" x1="85.44" y1="29.55" x2="106.01" y2="28.51"/><line class="cls-3" x1="87.04" y1="26.91" x2="105.1" y2="26"/><line class="cls-3" x1="88.98" y1="24.14" x2="104.26" y2="23.37"/></svg>