<svg id="Lag_2" data-name="Lag 2" xmlns="http://www.w3.org/2000/svg" viewBox="0 0 240.73 277.57"><defs><style>.cls-1{fill:none;stroke:#1e1e1c;stroke-miterlimit:10;}.cls-2{fill:#fff;}.cls-3{fill:#1e1e1c;}</style></defs><path class="cls-1" d="M66,150.84c-.68-.66-1.36-1.33-2.05-2-1.09-1.1-2.15-2.18-3.18-3.27l-10.91,2.8-2.29.58" transform="translate(-44.97 -53.45)"/><path class="cls-1" d="M50.56,148.17c-.94.2-1.72.42-2.29.59a4.5,4.5,0,0,0-1.39.56,3.46,3.46,0,0,0-1.23,2,5,5,0,0,0-.1,2.26c1.66,9.05,9,35.12,9,35.12l1.86,7.27c.32,1.25.69,2.48,1,3.74a16.27,16.27,0,0,0,.57,2.2,6.47,6.47,0,0,0,1.17,2.35,4.1,4.1,0,0,0,5,1.17c1.64-.7,4.91-1.61,10.88-2.89l2.4-7.34L66,150.84" transform="translate(-44.97 -53.45)"/><polyline class="cls-1" points="87.02 129.51 36.25 142.5 25.11 98.97 75.89 85.98"/><path class="cls-1" d="M131.46,183.09c.37.3.9.71,1.55,1.2,1.45,1.09,2.89,2.11,3.61,2.59a35,35,0,0,0,7,3.42A34.61,34.61,0,0,0,161.4,192a26.34,26.34,0,0,0,13.3-5.22,37.63,37.63,0,0,0,8.59-7.64,31,31,0,0,0,4.7-7.78c1-2.58,1-3,1-3,.26-1.22.19-1.88.76-2.35.26-.21.46-.22,2-.51s1.33-.28,1.84-.36c1.17-.18,1.5-.11,3.22-.26s1.41-.19,2.21-.22a16.17,16.17,0,0,1,3.36.27,29.22,29.22,0,0,1,3.6.78,26.54,26.54,0,0,1,4.52,1.68,33.22,33.22,0,0,1,3.74,2.22c.73.48,1.51,1,2.49,1.75a28.4,28.4,0,0,1,7.15,8,71.36,71.36,0,0,1,4.66,8.45,87.82,87.82,0,0,1,3.35,8.21c.31.89,1.08,3.13,1.9,6.1.15.54.12.47.92,3.61l2.54,9.9.35,1.39,33-8.44c-1.95-8.08-3.71-14.8-5.1-19.91a84.88,84.88,0,0,0-7.91-20.31,97.17,97.17,0,0,0-10.92-16.94,82.84,82.84,0,0,0-15.42-14.66,65.76,65.76,0,0,0-21.78-10.64,70.21,70.21,0,0,0-19.92-2.05,44,44,0,0,0-5,.57c-2.34.45-3.52.67-3.65.74a2.49,2.49,0,0,1-1.78.36,2.3,2.3,0,0,1-.87-.55,5.63,5.63,0,0,1-1.11-1.35,8.58,8.58,0,0,0-2.11-1.86c-2.66-2-4-3-5.6-3.47-.32-.1-1-.26-1-.61s.59-.36,1.18-1a3.66,3.66,0,0,0,.7-1.23,5.77,5.77,0,0,0,.33-1.72,11.48,11.48,0,0,0-2.13-7.58,4.75,4.75,0,0,0-2.55-1.7,3.71,3.71,0,0,0-1.08-.06c-2.29.17-8.5,2.12-9.33,2.39l-5.89-22.4,15.2-3.88" transform="translate(-44.97 -53.45)"/><path class="cls-1" d="M164,81a4.62,4.62,0,0,1,1.8.3c.94.38,1.23.89,2.2,1.31a6,6,0,0,0,1.9.41,14.92,14.92,0,0,0,4,0,11.34,11.34,0,0,0,5.72-3,15.08,15.08,0,0,0,4.2-6.38,14.28,14.28,0,0,0,.75-7.89,14.11,14.11,0,0,0-3.5-6.65,15.44,15.44,0,0,0-4.05-3,13.58,13.58,0,0,0-5.3-2,12,12,0,0,0-5.79.73,10.12,10.12,0,0,0-5.23,4.11,8.7,8.7,0,0,0-.85,1.93l-15.41,4" transform="translate(-44.97 -53.45)"/><path class="cls-1" d="M144.91,64.7a13.36,13.36,0,0,1-1.47-1.64c-.8-1.07-.92-1.58-1.5-2.38a8.69,8.69,0,0,0-2.68-2.3,11.15,11.15,0,0,0-4.21-1.54,9.67,9.67,0,0,0-5,.54A10.27,10.27,0,0,0,126.36,60a12.54,12.54,0,0,0-2.67,3.89,13.27,13.27,0,0,0-.84,6.35l-15.53,4.12" transform="translate(-44.97 -53.45)"/><path class="cls-1" d="M108.16,74.1c-.39-.22-1-.52-1.64-.84a25.58,25.58,0,0,0-3.33-1.32,10.63,10.63,0,0,0-6.61.72,13.11,13.11,0,0,0-5,3.68,15.26,15.26,0,0,0-2.94,14.8,14.11,14.11,0,0,0,2.17,4.08,14,14,0,0,0,3,2.81,15,15,0,0,0,4.41,2.31,11.78,11.78,0,0,0,14.52-6l15.16-4.12,5.76,22.53L128,114.17" transform="translate(-44.97 -53.45)"/><path class="cls-1" d="M128.53,114a8.3,8.3,0,0,0-1.8.54,8.75,8.75,0,0,0-2.19,1.38,7.06,7.06,0,0,0-1.78,1.8,5.59,5.59,0,0,0-.76,2,35.46,35.46,0,0,0,1.52,6,4.15,4.15,0,0,0,.78,1.29,4.38,4.38,0,0,0,2,1.22l-5.41,11.21" transform="translate(-44.97 -53.45)"/><rect class="cls-1" x="237.12" y="216.1" width="39.99" height="20.99" rx="1.47" transform="translate(517.41 328.94) rotate(165.65)"/><path class="cls-2" d="M249.52,279.72c-3.66,0-6.71-2.19-7.42-5.33-.78-3.48,3.82-13,4.66-14.69,1.56,1.14,10.36,7.66,11.14,11.14a6.52,6.52,0,0,1-1.21,5.37,8.73,8.73,0,0,1-5.14,3.29A9.28,9.28,0,0,1,249.52,279.72Z" transform="translate(-44.97 -53.45)"/><path class="cls-3" d="M246.85,260.07C250,262.4,257,268,257.66,270.89a6.31,6.31,0,0,1-1.17,5.17,8.38,8.38,0,0,1-5,3.19,8.75,8.75,0,0,1-2,.22c-3.54,0-6.5-2.11-7.17-5.14-.73-3.25,3.41-12,4.5-14.26m-.18-.75s-5.7,11.18-4.81,15.12c.74,3.32,4,5.53,7.66,5.53a9.34,9.34,0,0,0,2.08-.23c4.5-1,7.43-5,6.55-9s-11.48-11.46-11.48-11.46Z" transform="translate(-44.97 -53.45)"/><path class="cls-2" d="M274.62,259.85c-3.66,0-6.71-2.2-7.42-5.34-.78-3.48,3.81-13,4.66-14.69C273.42,241,282.22,247.49,283,251c.85,3.8-2,7.68-6.35,8.66A9.29,9.29,0,0,1,274.62,259.85Z" transform="translate(-44.97 -53.45)"/><path class="cls-3" d="M272,240.2c3.19,2.32,10.15,7.9,10.81,10.82a6.36,6.36,0,0,1-1.17,5.17,8.44,8.44,0,0,1-5,3.18,8.75,8.75,0,0,1-2,.22c-3.55,0-6.5-2.11-7.18-5.14-.72-3.24,3.42-12,4.51-14.25m-.19-.75s-5.69,11.18-4.8,15.11c.74,3.33,4,5.53,7.66,5.53a9.34,9.34,0,0,0,2.08-.23c4.5-1,7.43-5,6.55-9s-11.49-11.46-11.49-11.46Z" transform="translate(-44.97 -53.45)"/><path class="cls-2" d="M276.91,301.3c-3.64,0-6.69-2.18-7.41-5.3-.79-3.47,3.75-13,4.59-14.71,1.57,1.13,10.4,7.62,11.2,11.09a6.57,6.57,0,0,1-1.19,5.38,8.68,8.68,0,0,1-5.12,3.31A9.73,9.73,0,0,1,276.91,301.3Z" transform="translate(-44.97 -53.45)"/><path class="cls-3" d="M274.18,281.67c3.2,2.3,10.2,7.85,10.87,10.76.84,3.66-1.91,7.42-6.13,8.39a8.61,8.61,0,0,1-2,.23c-3.53,0-6.47-2.1-7.16-5.1-.75-3.25,3.35-12,4.43-14.28m-.19-.75s-5.63,11.21-4.73,15.14c.76,3.3,4,5.49,7.65,5.49a9.71,9.71,0,0,0,2.12-.24c4.5-1,7.41-5.06,6.5-9S274,280.92,274,280.92Z" transform="translate(-44.97 -53.45)"/><path class="cls-2" d="M258.27,330.77c-3.66,0-6.71-2.2-7.42-5.34-.78-3.48,3.81-13,4.66-14.69,1.56,1.14,10.36,7.67,11.14,11.14.85,3.8-2,7.68-6.35,8.66A9.29,9.29,0,0,1,258.27,330.77Z" transform="translate(-44.97 -53.45)"/><path class="cls-3" d="M255.6,311.12c3.19,2.32,10.15,7.9,10.81,10.82a6.36,6.36,0,0,1-1.17,5.17,8.5,8.5,0,0,1-5,3.19,9.37,9.37,0,0,1-2,.22c-3.54,0-6.5-2.12-7.18-5.15-.72-3.24,3.42-12,4.51-14.25m-.19-.75s-5.69,11.18-4.8,15.11c.74,3.33,4,5.54,7.66,5.54a9.36,9.36,0,0,0,2.08-.24c4.5-1,7.43-5,6.55-8.95s-11.49-11.46-11.49-11.46Z" transform="translate(-44.97 -53.45)"/></svg>