<svg id="Lag_1" data-name="Lag 1" xmlns="http://www.w3.org/2000/svg" viewBox="0 0 305.71 168.21"><defs><style>.cls-1,.cls-3{fill:#fff;}.cls-2{fill:#1d1d1b;}.cls-3{stroke:#1d1d1b;stroke-miterlimit:10;stroke-width:0.5px;}</style></defs><path class="cls-1" d="M217.31,67.58a6.33,6.33,0,0,1,2.46.67c.84.42,2.07,1.27,3.51,4a19.81,19.81,0,0,1,2.31,7.27,21.77,21.77,0,0,1-1.67,11.07,16.37,16.37,0,0,1-5.59,7.54,15.94,15.94,0,0,1-6.94,2.58,15.41,15.41,0,0,1-6.6-.14,14.69,14.69,0,0,1-6.3-3.46c-1.71-1.6-2.5-3.12-3.8-5.63a26.42,26.42,0,0,1-2.8-7.67,14.17,14.17,0,0,1-.14-6.42,10,10,0,0,1,1.73-3.89,11,11,0,0,1,3.61-3c1.82-1.07,2.07-.77,5.34-2.13s3.87-2,5.78-2.18a9.5,9.5,0,0,1,3.32.29" transform="translate(-17.56 -15.36)"/><path class="cls-2" d="M217.32,67.55a6.43,6.43,0,0,1,3.06,1,8.16,8.16,0,0,1,2.19,2.38,21.23,21.23,0,0,1,2.61,5.93,21.49,21.49,0,0,1-.76,12.81,22.93,22.93,0,0,1-3,5.75,14,14,0,0,1-5.08,4.06A20.58,20.58,0,0,1,210,101.1a14.38,14.38,0,0,1-6.47-.69A15,15,0,0,1,198,97a20.61,20.61,0,0,1-3.58-5.46A27.69,27.69,0,0,1,192,85.43a20.23,20.23,0,0,1-.75-6.49,11,11,0,0,1,2.46-6,10.42,10.42,0,0,1,2.53-2.11,11.65,11.65,0,0,1,3-1.42,45.43,45.43,0,0,0,6-2.39,8.61,8.61,0,0,1,6.36-.54l0,0a8.4,8.4,0,0,0-6.24.7,46.18,46.18,0,0,1-6,2.48,11.6,11.6,0,0,0-2.86,1.43,9.89,9.89,0,0,0-2.4,2.06A10.49,10.49,0,0,0,191.74,79a19.51,19.51,0,0,0,.74,6.33,26.56,26.56,0,0,0,2.37,6,20,20,0,0,0,3.46,5.36,14.42,14.42,0,0,0,5.35,3.4,14,14,0,0,0,6.3.71,19.88,19.88,0,0,0,6.22-1.55,13.55,13.55,0,0,0,5-3.93,22.74,22.74,0,0,0,3-5.67A21.3,21.3,0,0,0,225,76.91,20.93,20.93,0,0,0,222.49,71a8,8,0,0,0-2.15-2.38,6.44,6.44,0,0,0-3-1Z" transform="translate(-17.56 -15.36)"/><path class="cls-1" d="M249.32,85.83a9.18,9.18,0,0,1,2.65,2.4c.78,1.06,1.78,2.91,1.84,7.24A27.82,27.82,0,0,1,252.1,106,30.51,30.51,0,0,1,243,118.8c-2.51,2.08-6.17,5.11-11.77,5.89a22.46,22.46,0,0,1-10.32-1.17,21.45,21.45,0,0,1-8.15-4.36,20.42,20.42,0,0,1-5.69-8.31c-1.13-3.09-1.15-5.5-1.19-9.46A37.39,37.39,0,0,1,207.23,90a20.25,20.25,0,0,1,3.89-8.12,14.46,14.46,0,0,1,4.65-3.77,15.41,15.41,0,0,1,6.43-1.5c3-.18,3.07.35,8,.72s6.12-.06,8.61.94a13.5,13.5,0,0,1,4,2.47" transform="translate(-17.56 -15.36)"/><path class="cls-2" d="M249.34,85.81a9,9,0,0,1,3.18,3.2,11.47,11.47,0,0,1,1.22,4.36,29.3,29.3,0,0,1-.51,9.06,30.1,30.1,0,0,1-9.06,15.51,31.78,31.78,0,0,1-7.44,5.25,19.31,19.31,0,0,1-8.88,1.84,28.27,28.27,0,0,1-8.89-2,20.13,20.13,0,0,1-7.63-5,20.71,20.71,0,0,1-4.7-7.8c-1-2.93-1-6-1-9.06a38.57,38.57,0,0,1,.82-9.09,44.13,44.13,0,0,1,1.24-4.4,18.56,18.56,0,0,1,1.93-4.17,15.33,15.33,0,0,1,6.85-6,14.4,14.4,0,0,1,4.47-1,16.66,16.66,0,0,1,4.57.08,63.38,63.38,0,0,0,9,.8,11.43,11.43,0,0,1,4.47.85,13.68,13.68,0,0,1,3.81,2.46l0,0a11.79,11.79,0,0,0-8.26-3.12,62.77,62.77,0,0,1-9.07-.72,16.46,16.46,0,0,0-4.49,0,14.07,14.07,0,0,0-4.34,1A14.79,14.79,0,0,0,210,83.83a27.79,27.79,0,0,0-3.1,8.41,37.42,37.42,0,0,0-.81,9c0,3,0,6.08.94,8.93a20.32,20.32,0,0,0,4.56,7.67,19.87,19.87,0,0,0,7.47,4.9,28.25,28.25,0,0,0,8.77,2,19,19,0,0,0,8.75-1.78,32,32,0,0,0,7.39-5.17,30,30,0,0,0,9.09-15.36,29.08,29.08,0,0,0,.55-9,11.24,11.24,0,0,0-1.19-4.33,8.92,8.92,0,0,0-3.14-3.2Z" transform="translate(-17.56 -15.36)"/><path class="cls-1" d="M246.05,97.52a9.31,9.31,0,0,0-.2-2.3,8.66,8.66,0,0,0-1.91-3.88c-1-1.12-2.29-1.64-4.83-2.69-1.29-.53-2.69-1-3.6-1.32-1.13-.38-1.79-.63-3.12-1.12-1.59-.6-2.07-.81-2.48-1.32a4.56,4.56,0,0,1-.7-2.17,6.61,6.61,0,0,0-2.93-3.83" transform="translate(-17.56 -15.36)"/><path class="cls-2" d="M246,97.52A8.52,8.52,0,0,0,243.36,91a12,12,0,0,0-3.2-1.7c-1.13-.48-2.3-.86-3.45-1.28l-3.48-1.21c-.58-.21-1.16-.41-1.74-.64a4.36,4.36,0,0,1-1.68-1,3.27,3.27,0,0,1-.7-1.82,5.28,5.28,0,0,0-.49-1.7,8.41,8.41,0,0,0-2.35-2.73l0,0a7.72,7.72,0,0,1,2.63,2.61,5.21,5.21,0,0,1,.61,1.79,2.69,2.69,0,0,0,.64,1.55,3.88,3.88,0,0,0,1.49.85l1.73.64,3.45,1.3c1.15.44,2.31.84,3.43,1.35a12.67,12.67,0,0,1,3.25,1.81,8.66,8.66,0,0,1,2.54,6.75Z" transform="translate(-17.56 -15.36)"/><path class="cls-1" d="M225,82.06a6.6,6.6,0,0,0-2.82-.45,7.85,7.85,0,0,0-4.3,1.85,17.78,17.78,0,0,0-5.13,6.76,29,29,0,0,0-2.47,7.37" transform="translate(-17.56 -15.36)"/><path class="cls-2" d="M225,82.08a6.62,6.62,0,0,0-2.92-.39,7.08,7.08,0,0,0-2.77,1,14,14,0,0,0-4.28,4A32.81,32.81,0,0,0,212.26,92a37.91,37.91,0,0,0-1.94,5.64h0a23.58,23.58,0,0,1,1.53-5.82,25.26,25.26,0,0,1,2.91-5.29,14.37,14.37,0,0,1,4.49-4,7.16,7.16,0,0,1,2.88-.92A6.76,6.76,0,0,1,225,82Z" transform="translate(-17.56 -15.36)"/><path class="cls-3" d="M207.5,72.75a7.36,7.36,0,0,0,.33-2.1,14.33,14.33,0,0,0-.38-2.56c-.33-2-.26-2.62-.79-3s-1-.29-1.19,0,0,.71.1,1.1c.32.94.38,2,.64,2.9a11.85,11.85,0,0,1,.35,3.83" transform="translate(-17.56 -15.36)"/><path class="cls-1" d="M219,76.07a6.33,6.33,0,0,0-.87-1.4,6.1,6.1,0,0,0-2.47-1.85c-1-.39-2-.31-3.94-.16-1,.08-2,.23-2.71.33-.84.12-1.34.17-2.35.29-1.2.13-1.57.15-2,0-.59-.27-.77-.71-1.14-1.16a4.76,4.76,0,0,0-3.11-1.49" transform="translate(-17.56 -15.36)"/><path class="cls-2" d="M219,76.08a6,6,0,0,0-3.81-3.28,8.56,8.56,0,0,0-2.58,0c-.87.06-1.74.2-2.6.31l-2.61.37c-.43.06-.86.12-1.31.16a3.13,3.13,0,0,1-1.41-.09,2.32,2.32,0,0,1-1.06-1,3.69,3.69,0,0,0-.84-.92,6,6,0,0,0-2.35-1v-.05a5.31,5.31,0,0,1,2.54.78,3.59,3.59,0,0,1,1,1,1.85,1.85,0,0,0,.89.74,2.7,2.7,0,0,0,1.18,0l1.3-.13,2.62-.28c.88-.08,1.75-.2,2.63-.23a9.17,9.17,0,0,1,2.66.11A6.21,6.21,0,0,1,219,76.06Z" transform="translate(-17.56 -15.36)"/><path class="cls-1" d="M200.64,73a4.63,4.63,0,0,0-1.95.62,5.52,5.52,0,0,0-2.13,2.57,12.54,12.54,0,0,0-1.08,6,20.1,20.1,0,0,0,.8,5.48" transform="translate(-17.56 -15.36)"/><path class="cls-2" d="M200.64,73a4.68,4.68,0,0,0-2,.71,4.77,4.77,0,0,0-1.42,1.51,10,10,0,0,0-1.4,3.94,25.84,25.84,0,0,0-.06,4.22,30.4,30.4,0,0,0,.52,4.22h-.05a16.42,16.42,0,0,1-.81-8.51,10.15,10.15,0,0,1,1.59-4,5.07,5.07,0,0,1,1.55-1.51,4.85,4.85,0,0,1,2-.63Z" transform="translate(-17.56 -15.36)"/><path class="cls-1" d="M189.9,84.65a6.63,6.63,0,0,1,2.54-.2c.93.11,2.38.5,4.66,2.59a19.87,19.87,0,0,1,4.64,6,21.79,21.79,0,0,1,2.18,11,16.34,16.34,0,0,1-2.7,9,16.09,16.09,0,0,1-5.66,4.79,15.45,15.45,0,0,1-6.25,2.1,14.72,14.72,0,0,1-7.1-1.12c-2.16-.93-3.42-2.09-5.49-4a26.45,26.45,0,0,1-5.23-6.27,14.26,14.26,0,0,1-2.31-6,10.32,10.32,0,0,1,.31-4.25,11,11,0,0,1,2.37-4.07c1.35-1.63,1.68-1.43,4.3-3.82s3-3.2,4.7-4a9.74,9.74,0,0,1,3.22-.85" transform="translate(-17.56 -15.36)"/><path class="cls-2" d="M189.9,84.63a6.39,6.39,0,0,1,3.22-.09A8.06,8.06,0,0,1,196,86a20.91,20.91,0,0,1,4.46,4.69A21.45,21.45,0,0,1,204.08,103a23.45,23.45,0,0,1-.9,6.44,13.82,13.82,0,0,1-3.41,5.53,20.09,20.09,0,0,1-5.38,3.66,14.38,14.38,0,0,1-6.33,1.54,14.93,14.93,0,0,1-6.38-1.38,20.56,20.56,0,0,1-5.22-3.91,27.63,27.63,0,0,1-4.33-4.89,20.2,20.2,0,0,1-2.91-5.86,11,11,0,0,1,.27-6.51,10.48,10.48,0,0,1,1.66-2.84,12.08,12.08,0,0,1,2.29-2.34,44.72,44.72,0,0,0,4.85-4.28,8.51,8.51,0,0,1,5.79-2.66v0a8.41,8.41,0,0,0-5.63,2.77,44.21,44.21,0,0,1-4.81,4.37,11.55,11.55,0,0,0-2.2,2.32,9.87,9.87,0,0,0-1.56,2.75,10.57,10.57,0,0,0-.18,6.25,20.14,20.14,0,0,0,2.84,5.7,27,27,0,0,0,4.26,4.8,20.12,20.12,0,0,0,5.07,3.88,14.34,14.34,0,0,0,6.18,1.38,14,14,0,0,0,6.18-1.47,20,20,0,0,0,5.32-3.56,13.59,13.59,0,0,0,3.35-5.39,22.71,22.71,0,0,0,.93-6.36,21.26,21.26,0,0,0-3.5-12.21,20.91,20.91,0,0,0-4.4-4.7,8,8,0,0,0-2.83-1.51,6.39,6.39,0,0,0-3.19.06Z" transform="translate(-17.56 -15.36)"/><path class="cls-1" d="M237.09,116.45a24.47,24.47,0,0,1-2,2.68,18.58,18.58,0,0,1-3.43,3.31,12.47,12.47,0,0,1-7.06,2.1" transform="translate(-17.56 -15.36)"/><path class="cls-2" d="M237.11,116.46a24.45,24.45,0,0,1-2.25,3.19,17.76,17.76,0,0,1-2.78,2.77,10.12,10.12,0,0,1-3.52,1.79,11.5,11.5,0,0,1-3.91.35v0a19.71,19.71,0,0,0,3.77-.78,13,13,0,0,0,3.43-1.63,17.4,17.4,0,0,0,2.82-2.61,24.2,24.2,0,0,0,2.4-3Z" transform="translate(-17.56 -15.36)"/><path class="cls-1" d="M219.41,91a17.79,17.79,0,0,1-.38,2.33,13.25,13.25,0,0,1-1.11,3.22,8.9,8.9,0,0,1-3.82,3.61" transform="translate(-17.56 -15.36)"/><path class="cls-2" d="M219.43,91c-.12.92-.2,1.85-.37,2.77a12.79,12.79,0,0,1-.86,2.67,7,7,0,0,1-1.67,2.3,7.55,7.55,0,0,1-2.42,1.44l0,0a17.16,17.16,0,0,0,2.1-1.76,9.74,9.74,0,0,0,1.65-2.12,11.88,11.88,0,0,0,1-2.55c.24-.89.38-1.8.57-2.71Z" transform="translate(-17.56 -15.36)"/><path class="cls-3" d="M182.43,92.85a7.79,7.79,0,0,0-.41-2.09,13.42,13.42,0,0,0-1.23-2.28c-1-1.79-1.13-2.38-1.75-2.52-.45-.11-1,.06-1.13.36s.21.68.47,1c.62.77,1,1.7,1.59,2.51a12,12,0,0,1,1.62,3.48" transform="translate(-17.56 -15.36)"/><path class="cls-1" d="M194.37,92.07a6.45,6.45,0,0,0-1.3-1,6,6,0,0,0-2.94-.91c-1.08,0-2,.38-3.77,1.19-.9.41-1.83.9-2.44,1.23s-1.2.62-2.11,1.06c-1.08.54-1.43.68-1.89.65a3.3,3.3,0,0,1-1.47-.7,4.8,4.8,0,0,0-3.43-.36" transform="translate(-17.56 -15.36)"/><path class="cls-2" d="M194.35,92.09a6.07,6.07,0,0,0-4.7-1.8,8.46,8.46,0,0,0-2.43.84c-.81.35-1.57.78-2.35,1.17l-2.32,1.23c-.39.2-.78.41-1.18.6a3.23,3.23,0,0,1-1.37.39,2.31,2.31,0,0,1-1.31-.54,3.8,3.8,0,0,0-1.11-.58,6.05,6.05,0,0,0-2.55-.16v0a5.43,5.43,0,0,1,2.66-.13,3.61,3.61,0,0,1,1.25.56A1.83,1.83,0,0,0,180,94a2.8,2.8,0,0,0,1.13-.36l1.17-.57L184.69,92c.8-.38,1.58-.79,2.39-1.12a9.23,9.23,0,0,1,2.55-.79,6.2,6.2,0,0,1,4.75,2Z" transform="translate(-17.56 -15.36)"/><path class="cls-1" d="M176.06,95.42a4.84,4.84,0,0,0-1.62,1.24,5.54,5.54,0,0,0-1.14,3.14,12.59,12.59,0,0,0,1,6,20.51,20.51,0,0,0,2.61,4.89" transform="translate(-17.56 -15.36)"/><path class="cls-2" d="M176.07,95.44a4.72,4.72,0,0,0-1.63,1.34,4.87,4.87,0,0,0-.82,1.91,10,10,0,0,0,0,4.18,26.49,26.49,0,0,0,1.37,4,31.34,31.34,0,0,0,1.92,3.79l0,0a16.28,16.28,0,0,1-3.64-7.74,10,10,0,0,1,.13-4.31,5.07,5.07,0,0,1,1-1.95A4.78,4.78,0,0,1,176,95.4Z" transform="translate(-17.56 -15.36)"/><path class="cls-1" d="M267.65,111.27a9.33,9.33,0,0,1,2.65,2.4c.78,1.06,1.78,2.91,1.84,7.24a27.79,27.79,0,0,1-1.71,10.55,30.49,30.49,0,0,1-9.11,12.79c-2.51,2.07-6.17,5.1-11.77,5.89A22.44,22.44,0,0,1,239.23,149a21.4,21.4,0,0,1-8.15-4.35,20.5,20.5,0,0,1-5.69-8.32c-1.13-3.09-1.15-5.49-1.19-9.46a37.39,37.39,0,0,1,1.36-11.36,20.25,20.25,0,0,1,3.89-8.12,14.46,14.46,0,0,1,4.65-3.77,15.54,15.54,0,0,1,6.43-1.49c2.95-.19,3.07.34,8,.71s6.12,0,8.61.94a13.72,13.72,0,0,1,4,2.47" transform="translate(-17.56 -15.36)"/><path class="cls-2" d="M267.67,111.25a9.19,9.19,0,0,1,3.18,3.2,11.47,11.47,0,0,1,1.22,4.37,29.34,29.34,0,0,1-.51,9.06,30.07,30.07,0,0,1-9.06,15.5,31.78,31.78,0,0,1-7.44,5.25,19.19,19.19,0,0,1-8.88,1.84,28.26,28.26,0,0,1-8.89-2,20.24,20.24,0,0,1-7.63-5,20.82,20.82,0,0,1-4.7-7.81c-1-2.93-1-6.05-1-9.06a38.57,38.57,0,0,1,.82-9.09,44.9,44.9,0,0,1,1.24-4.4,18.56,18.56,0,0,1,1.93-4.17,15.39,15.39,0,0,1,6.85-6,14.69,14.69,0,0,1,4.47-1,16.67,16.67,0,0,1,4.57.08,63.38,63.38,0,0,0,9,.8,11.44,11.44,0,0,1,4.47.86,13.43,13.43,0,0,1,3.81,2.45l0,0a11.88,11.88,0,0,0-8.26-3.12,62.76,62.76,0,0,1-9.07-.71,16.07,16.07,0,0,0-4.49,0,14.36,14.36,0,0,0-4.34,1,14.91,14.91,0,0,0-6.59,5.86,27.79,27.79,0,0,0-3.1,8.41,37.55,37.55,0,0,0-.81,9c0,3,0,6.07.93,8.93a20.43,20.43,0,0,0,4.57,7.66,19.87,19.87,0,0,0,7.47,4.9,28.25,28.25,0,0,0,8.77,2,19,19,0,0,0,8.75-1.78,32,32,0,0,0,7.39-5.17,29.91,29.91,0,0,0,9.09-15.36,29,29,0,0,0,.55-9,11.28,11.28,0,0,0-1.19-4.34,8.92,8.92,0,0,0-3.14-3.2Z" transform="translate(-17.56 -15.36)"/><path class="cls-1" d="M260.64,107.68a4.82,4.82,0,0,1,.84-2.11,10.27,10.27,0,0,1,2.32-2.76,9.55,9.55,0,0,1,3.11-1.66,9.65,9.65,0,0,1,3.82-.37,13.15,13.15,0,0,1,7.23,3.09c2.11,1.74,3.14,3.64,4.48,6.11a25.1,25.1,0,0,1,1.85,4.3,23.71,23.71,0,0,1,.94,4.38,3.76,3.76,0,0,0-1.55-2.29,3.86,3.86,0,0,0-1.28-.39,15,15,0,0,1-3.66-1.45c-1.47-.77-1.17-1-2.71-1.86a15.26,15.26,0,0,0-4-1.6,14.24,14.24,0,0,0-3.85-.41,19.54,19.54,0,0,1-3.41.2,8.52,8.52,0,0,1-2.68-.84,2.45,2.45,0,0,1-1.25-1A2.35,2.35,0,0,1,260.64,107.68Z" transform="translate(-17.56 -15.36)"/><path class="cls-2" d="M260.62,107.68a9.44,9.44,0,0,1,6.34-6.61,10.3,10.3,0,0,1,4.75-.27,12.41,12.41,0,0,1,4.48,1.64,14.33,14.33,0,0,1,3.66,3.1,24.84,24.84,0,0,1,2.57,4,23.77,23.77,0,0,1,3,9l-.44.09a3,3,0,0,0-2.11-2.38,13.81,13.81,0,0,1-3.47-1.18,17,17,0,0,1-1.61-.88c-.54-.37-.93-.8-1.43-1.1a15.91,15.91,0,0,0-3.19-1.54,14.25,14.25,0,0,0-7-.66,7,7,0,0,1-3.56-.63,5.06,5.06,0,0,1-1.55-.95A2,2,0,0,1,260.62,107.68Zm.05,0a1.9,1.9,0,0,0,.45,1.64,4.88,4.88,0,0,0,1.53.89,7,7,0,0,0,3.49.53,14.56,14.56,0,0,1,7.2.48,13.72,13.72,0,0,1,3.32,1.54c.54.32,1,.78,1.44,1.09a14.34,14.34,0,0,0,1.55.85,12.72,12.72,0,0,0,3.36,1.15,2.79,2.79,0,0,1,1.62,1,4.72,4.72,0,0,1,.81,1.71l-.44.08a23.28,23.28,0,0,0-2.89-8.93,25.41,25.41,0,0,0-2.5-4,13.57,13.57,0,0,0-3.56-3.06,12.57,12.57,0,0,0-4.38-1.68,10.15,10.15,0,0,0-4.68.19A9.3,9.3,0,0,0,260.67,107.69Z" transform="translate(-17.56 -15.36)"/><path class="cls-1" d="M260.76,107.39a9.23,9.23,0,0,1-2.27,1.22,11.49,11.49,0,0,1-2.45.58,20,20,0,0,1-2.44.26" transform="translate(-17.56 -15.36)"/><path class="cls-2" d="M260.77,107.41a9,9,0,0,1-3.38,1.74,8.65,8.65,0,0,1-1.88.35,13.51,13.51,0,0,1-1.91,0v0a12.48,12.48,0,0,1,1.84-.42c.62-.09,1.25-.15,1.86-.25a9.78,9.78,0,0,0,3.44-1.39Z" transform="translate(-17.56 -15.36)"/><path class="cls-3" d="M252.11,111.53a10.64,10.64,0,0,0,1.74-2.43,19.93,19.93,0,0,0,1.14-3.44c.87-2.73,1.34-3.44.89-4.21-.32-.56-1-1-1.46-.8s-.49.86-.57,1.44c-.2,1.38-.77,2.68-1,4a16.52,16.52,0,0,1-2,5" transform="translate(-17.56 -15.36)"/><path class="cls-1" d="M264.38,123a9.35,9.35,0,0,0-.2-2.3,8.65,8.65,0,0,0-1.92-3.88c-1-1.11-2.28-1.64-4.82-2.69-1.29-.53-2.69-1-3.6-1.32-1.13-.38-1.79-.63-3.12-1.12-1.59-.59-2.07-.8-2.48-1.32a4.52,4.52,0,0,1-.7-2.17,6.61,6.61,0,0,0-2.93-3.83" transform="translate(-17.56 -15.36)"/><path class="cls-2" d="M264.35,123a8.52,8.52,0,0,0-2.66-6.56,12.27,12.27,0,0,0-3.2-1.7c-1.13-.48-2.3-.86-3.45-1.27l-3.48-1.22c-.58-.2-1.16-.41-1.74-.64a4.24,4.24,0,0,1-1.68-1,3.24,3.24,0,0,1-.7-1.81,5.26,5.26,0,0,0-.49-1.71,8.51,8.51,0,0,0-2.35-2.73l0,0a7.72,7.72,0,0,1,2.63,2.61,5.26,5.26,0,0,1,.61,1.8,2.71,2.71,0,0,0,.64,1.55,3.92,3.92,0,0,0,1.49.84l1.73.64,3.45,1.3c1.15.44,2.31.85,3.43,1.35a12.67,12.67,0,0,1,3.25,1.81A8.67,8.67,0,0,1,264.4,123Z" transform="translate(-17.56 -15.36)"/><path class="cls-1" d="M243.35,107.5a6.76,6.76,0,0,0-2.82-.45,7.82,7.82,0,0,0-4.3,1.86,17.63,17.63,0,0,0-5.13,6.76,28.38,28.38,0,0,0-2.47,7.36" transform="translate(-17.56 -15.36)"/><path class="cls-2" d="M243.34,107.53a6.62,6.62,0,0,0-2.92-.4,6.89,6.89,0,0,0-2.77,1,13.84,13.84,0,0,0-4.28,4,33.24,33.24,0,0,0-2.78,5.24,38.31,38.31,0,0,0-1.94,5.64h-.05a23.65,23.65,0,0,1,1.53-5.83,25.26,25.26,0,0,1,2.91-5.29,14.37,14.37,0,0,1,4.49-4,7.16,7.16,0,0,1,2.88-.92,6.76,6.76,0,0,1,3,.5Z" transform="translate(-17.56 -15.36)"/><path class="cls-1" d="M255.42,141.89a22.69,22.69,0,0,1-1.95,2.68,18.58,18.58,0,0,1-3.43,3.31A12.32,12.32,0,0,1,243,150" transform="translate(-17.56 -15.36)"/><path class="cls-2" d="M255.44,141.91a25,25,0,0,1-2.25,3.18,17.76,17.76,0,0,1-2.78,2.77,10.12,10.12,0,0,1-3.52,1.79A11.25,11.25,0,0,1,243,150V150a19,19,0,0,0,3.77-.78,12.71,12.71,0,0,0,3.43-1.63,17.4,17.4,0,0,0,2.82-2.61,24.2,24.2,0,0,0,2.4-3.05Z" transform="translate(-17.56 -15.36)"/><path class="cls-1" d="M255.13,83.51a6.71,6.71,0,0,1,2.46.67c.84.42,2.07,1.28,3.51,4a19.74,19.74,0,0,1,2.31,7.26,21.73,21.73,0,0,1-1.67,11.07,16.39,16.39,0,0,1-5.59,7.55,16.07,16.07,0,0,1-6.94,2.58,15.41,15.41,0,0,1-6.6-.14,14.69,14.69,0,0,1-6.3-3.46c-1.71-1.6-2.5-3.12-3.8-5.63a26.54,26.54,0,0,1-2.8-7.67,14.18,14.18,0,0,1-.14-6.42,10.09,10.09,0,0,1,1.73-3.9,11,11,0,0,1,3.61-3c1.82-1.08,2.07-.77,5.34-2.14s3.87-2,5.78-2.18a9.7,9.7,0,0,1,3.32.3" transform="translate(-17.56 -15.36)"/><path class="cls-2" d="M255.14,83.49a6.32,6.32,0,0,1,3.06,1,8,8,0,0,1,2.19,2.38A21,21,0,0,1,263,92.81a21.49,21.49,0,0,1-.76,12.81,22.93,22.93,0,0,1-3,5.75,13.93,13.93,0,0,1-5.08,4,20,20,0,0,1-6.31,1.61,14.37,14.37,0,0,1-6.47-.69,14.78,14.78,0,0,1-5.54-3.46,20.4,20.4,0,0,1-3.58-5.45,27.89,27.89,0,0,1-2.42-6.06,20.32,20.32,0,0,1-.75-6.5,11,11,0,0,1,2.46-6,10.6,10.6,0,0,1,2.53-2.1A11.67,11.67,0,0,1,237,85.3a45.38,45.38,0,0,0,6-2.38,8.56,8.56,0,0,1,6.36-.55l0,0a8.4,8.4,0,0,0-6.24.7,44.88,44.88,0,0,1-6,2.49A11.23,11.23,0,0,0,234.24,87a10.15,10.15,0,0,0-2.4,2.07,10.46,10.46,0,0,0-2.28,5.82,19.71,19.71,0,0,0,.73,6.32,26.88,26.88,0,0,0,2.38,6,20.09,20.09,0,0,0,3.46,5.37,14.4,14.4,0,0,0,5.35,3.39,14,14,0,0,0,6.3.71,20.14,20.14,0,0,0,6.22-1.54,13.57,13.57,0,0,0,5-3.94,22.68,22.68,0,0,0,3-5.66,21.3,21.3,0,0,0,.84-12.68,20.86,20.86,0,0,0-2.54-5.92,8.12,8.12,0,0,0-2.15-2.37,6.33,6.33,0,0,0-3-1Z" transform="translate(-17.56 -15.36)"/><path class="cls-1" d="M287.14,101.77a9.13,9.13,0,0,1,2.65,2.39c.78,1.06,1.78,2.91,1.84,7.25A27.84,27.84,0,0,1,289.92,122a30.51,30.51,0,0,1-9.11,12.78c-2.51,2.07-6.17,5.1-11.77,5.89a22.46,22.46,0,0,1-10.32-1.17,21.59,21.59,0,0,1-8.15-4.36,20.5,20.5,0,0,1-5.69-8.32c-1.13-3.09-1.15-5.49-1.19-9.46A37.39,37.39,0,0,1,245.05,106a20.22,20.22,0,0,1,3.89-8.11,14.32,14.32,0,0,1,4.65-3.78A15.54,15.54,0,0,1,260,92.58c3-.19,3.07.34,8,.71s6.12-.05,8.61.95a13.3,13.3,0,0,1,4,2.47" transform="translate(-17.56 -15.36)"/><path class="cls-2" d="M287.16,101.74a9.05,9.05,0,0,1,3.18,3.21,11.42,11.42,0,0,1,1.22,4.36,29.34,29.34,0,0,1-.51,9.06A30.14,30.14,0,0,1,282,133.88a32.38,32.38,0,0,1-7.44,5.25,19.3,19.3,0,0,1-8.88,1.83,28.26,28.26,0,0,1-8.89-2,20.13,20.13,0,0,1-7.63-5,20.86,20.86,0,0,1-4.7-7.8c-1-2.93-1-6.06-1-9.07a38.62,38.62,0,0,1,.82-9.09,44.9,44.9,0,0,1,1.24-4.4,18.77,18.77,0,0,1,1.93-4.17,15.31,15.31,0,0,1,6.85-6,14.7,14.7,0,0,1,4.47-1,16.66,16.66,0,0,1,4.57.08,63.4,63.4,0,0,0,9,.81,11.25,11.25,0,0,1,4.47.85,13.46,13.46,0,0,1,3.81,2.46l0,0a11.88,11.88,0,0,0-8.26-3.12,62.76,62.76,0,0,1-9.07-.71,16.07,16.07,0,0,0-4.49,0,14.06,14.06,0,0,0-4.34,1,14.91,14.91,0,0,0-6.59,5.86,27.79,27.79,0,0,0-3.1,8.41,37.55,37.55,0,0,0-.81,9c0,3,0,6.08.94,8.93a20.28,20.28,0,0,0,4.56,7.66,19.75,19.75,0,0,0,7.47,4.9,28,28,0,0,0,8.77,2,19.13,19.13,0,0,0,8.75-1.77,32.05,32.05,0,0,0,7.39-5.18,29.93,29.93,0,0,0,9.09-15.35,29.08,29.08,0,0,0,.55-9,11.28,11.28,0,0,0-1.19-4.34,8.89,8.89,0,0,0-3.14-3.19Z" transform="translate(-17.56 -15.36)"/><path class="cls-1" d="M283.87,113.46a9.38,9.38,0,0,0-.2-2.31,8.64,8.64,0,0,0-1.91-3.87c-1-1.12-2.29-1.65-4.83-2.7-1.29-.53-2.69-1-3.6-1.31-1.13-.39-1.79-.63-3.12-1.13-1.59-.59-2.07-.8-2.48-1.32a4.52,4.52,0,0,1-.7-2.17,6.64,6.64,0,0,0-2.93-3.83" transform="translate(-17.56 -15.36)"/><path class="cls-2" d="M283.84,113.45a8.52,8.52,0,0,0-2.66-6.56,12.57,12.57,0,0,0-3.2-1.7c-1.13-.48-2.3-.86-3.45-1.27l-3.48-1.21-1.74-.64a4.39,4.39,0,0,1-1.68-1,3.24,3.24,0,0,1-.7-1.81,5.2,5.2,0,0,0-.49-1.7,8.44,8.44,0,0,0-2.35-2.74l0,0a7.72,7.72,0,0,1,2.63,2.61,5.33,5.33,0,0,1,.61,1.8,2.71,2.71,0,0,0,.64,1.55,4,4,0,0,0,1.49.84c.57.23,1.15.43,1.73.64l3.45,1.3c1.15.44,2.31.85,3.43,1.35a12.67,12.67,0,0,1,3.25,1.81,8.68,8.68,0,0,1,2.54,6.76Z" transform="translate(-17.56 -15.36)"/><path class="cls-1" d="M262.84,98a6.92,6.92,0,0,0-2.82-.45,7.82,7.82,0,0,0-4.3,1.86,17.63,17.63,0,0,0-5.13,6.76,28.76,28.76,0,0,0-2.47,7.36" transform="translate(-17.56 -15.36)"/><path class="cls-2" d="M262.83,98a6.62,6.62,0,0,0-2.92-.39,6.77,6.77,0,0,0-2.77,1,14,14,0,0,0-4.28,4,32.91,32.91,0,0,0-2.78,5.25,37.52,37.52,0,0,0-1.94,5.64h0a23.65,23.65,0,0,1,1.53-5.83,24.94,24.94,0,0,1,2.91-5.28,14.4,14.4,0,0,1,4.49-4,7,7,0,0,1,2.88-.91,6.75,6.75,0,0,1,3,.49Z" transform="translate(-17.56 -15.36)"/><path class="cls-3" d="M245.32,88.69a7.5,7.5,0,0,0,.33-2.11,14.14,14.14,0,0,0-.38-2.55c-.33-2-.26-2.62-.79-3s-1-.29-1.19,0,0,.71.1,1.1c.32.94.38,1.95.64,2.91a11.81,11.81,0,0,1,.35,3.82" transform="translate(-17.56 -15.36)"/><path class="cls-1" d="M256.82,92A6.36,6.36,0,0,0,256,90.6a6.1,6.1,0,0,0-2.47-1.85c-1-.38-2-.3-3.94-.15-1,.08-2,.22-2.71.32-.84.12-1.34.18-2.35.29-1.2.14-1.57.16-2,0-.59-.26-.77-.71-1.14-1.15a4.76,4.76,0,0,0-3.11-1.49" transform="translate(-17.56 -15.36)"/><path class="cls-2" d="M256.8,92A6.09,6.09,0,0,0,253,88.73a8.57,8.57,0,0,0-2.58,0c-.87.06-1.74.2-2.6.31l-2.61.36-1.31.17a3.14,3.14,0,0,1-1.41-.1,2.26,2.26,0,0,1-1.06-1,3.87,3.87,0,0,0-.84-.92,6.19,6.19,0,0,0-2.35-1v0a5.43,5.43,0,0,1,2.54.78,3.59,3.59,0,0,1,1,1,1.82,1.82,0,0,0,.89.75,2.7,2.7,0,0,0,1.18,0l1.3-.14,2.62-.27c.88-.09,1.75-.2,2.63-.24a8.84,8.84,0,0,1,2.66.12,6.2,6.2,0,0,1,3.79,3.5Z" transform="translate(-17.56 -15.36)"/><path class="cls-1" d="M238.46,89a4.94,4.94,0,0,0-2,.62,5.65,5.65,0,0,0-2.13,2.57,12.58,12.58,0,0,0-1.08,6,20.11,20.11,0,0,0,.8,5.49" transform="translate(-17.56 -15.36)"/><path class="cls-2" d="M238.46,89a4.66,4.66,0,0,0-2,.7,4.8,4.8,0,0,0-1.42,1.52,9.91,9.91,0,0,0-1.4,3.94,25.81,25.81,0,0,0-.06,4.22,30.26,30.26,0,0,0,.52,4.21l-.05,0a16.46,16.46,0,0,1-.81-8.52,10.27,10.27,0,0,1,1.59-4,5.19,5.19,0,0,1,1.55-1.51,4.84,4.84,0,0,1,2-.62Z" transform="translate(-17.56 -15.36)"/><path class="cls-1" d="M227.72,100.58a6.83,6.83,0,0,1,2.54-.2c.93.12,2.38.51,4.66,2.59a19.87,19.87,0,0,1,4.64,6,21.82,21.82,0,0,1,2.18,11,16.38,16.38,0,0,1-2.7,9,16.15,16.15,0,0,1-5.66,4.78,15.3,15.3,0,0,1-6.25,2.1,14.6,14.6,0,0,1-7.1-1.12c-2.16-.92-3.42-2.09-5.49-4a26.16,26.16,0,0,1-5.23-6.26,14.32,14.32,0,0,1-2.31-6,10.36,10.36,0,0,1,.31-4.26,11,11,0,0,1,2.37-4.07c1.35-1.62,1.68-1.42,4.3-3.82s3-3.2,4.7-4a9.74,9.74,0,0,1,3.22-.85" transform="translate(-17.56 -15.36)"/><path class="cls-2" d="M227.72,100.56a6.5,6.5,0,0,1,3.22-.09,8.22,8.22,0,0,1,2.87,1.5,21.17,21.17,0,0,1,4.46,4.7A21.42,21.42,0,0,1,241.9,119a23.35,23.35,0,0,1-.9,6.44,13.86,13.86,0,0,1-3.41,5.54,20.29,20.29,0,0,1-5.38,3.65,14.38,14.38,0,0,1-6.33,1.54,14.77,14.77,0,0,1-6.38-1.37,20.37,20.37,0,0,1-5.22-3.92A27.56,27.56,0,0,1,210,126a20.46,20.46,0,0,1-2.91-5.86,11,11,0,0,1,.27-6.52,10.58,10.58,0,0,1,1.66-2.83,11.81,11.81,0,0,1,2.29-2.34,45.82,45.82,0,0,0,4.85-4.28,8.56,8.56,0,0,1,5.79-2.67v0a8.38,8.38,0,0,0-5.63,2.78,45.26,45.26,0,0,1-4.81,4.37,11.76,11.76,0,0,0-2.2,2.31,9.92,9.92,0,0,0-1.56,2.76,10.57,10.57,0,0,0-.18,6.25,20.41,20.41,0,0,0,2.84,5.7,27.33,27.33,0,0,0,4.26,4.8,20.08,20.08,0,0,0,5.07,3.87,14.34,14.34,0,0,0,6.18,1.38,14.1,14.1,0,0,0,6.18-1.46,20.23,20.23,0,0,0,5.32-3.56,13.56,13.56,0,0,0,3.35-5.4,22.64,22.64,0,0,0,.93-6.35,20.48,20.48,0,0,0-7.9-16.92,8.13,8.13,0,0,0-2.83-1.5,6.27,6.27,0,0,0-3.19.06Z" transform="translate(-17.56 -15.36)"/><path class="cls-1" d="M274.91,132.38a22.69,22.69,0,0,1-2,2.68,18.26,18.26,0,0,1-3.43,3.31,12.32,12.32,0,0,1-7.06,2.1" transform="translate(-17.56 -15.36)"/><path class="cls-2" d="M274.93,132.4a24.35,24.35,0,0,1-2.25,3.18,16.94,16.94,0,0,1-2.78,2.77,10,10,0,0,1-3.52,1.79,11.26,11.26,0,0,1-3.91.36v-.05a19.73,19.73,0,0,0,3.77-.79,12.71,12.71,0,0,0,3.43-1.63,17.4,17.4,0,0,0,2.82-2.61,23.5,23.5,0,0,0,2.4-3Z" transform="translate(-17.56 -15.36)"/><path class="cls-1" d="M257.23,106.94a18.05,18.05,0,0,1-.38,2.33,13.34,13.34,0,0,1-1.11,3.21,8.9,8.9,0,0,1-3.82,3.62" transform="translate(-17.56 -15.36)"/><path class="cls-2" d="M257.25,106.94c-.12.91-.2,1.85-.37,2.76a12.88,12.88,0,0,1-.86,2.68,7,7,0,0,1-1.67,2.3,7.55,7.55,0,0,1-2.42,1.44l0-.05a16.31,16.31,0,0,0,2.1-1.76,9.92,9.92,0,0,0,1.65-2.11,12,12,0,0,0,1-2.56c.24-.89.38-1.8.57-2.71Z" transform="translate(-17.56 -15.36)"/><path class="cls-3" d="M220.25,108.78a7.79,7.79,0,0,0-.41-2.09,13.81,13.81,0,0,0-1.23-2.28c-1-1.78-1.13-2.37-1.75-2.52-.45-.1-1,.06-1.13.37s.21.68.47,1c.62.78,1,1.71,1.59,2.52a12,12,0,0,1,1.62,3.47" transform="translate(-17.56 -15.36)"/><path class="cls-1" d="M232.19,108a6.45,6.45,0,0,0-1.3-1,6.06,6.06,0,0,0-2.94-.9c-1.08,0-2,.38-3.77,1.19-.9.4-1.83.9-2.44,1.22s-1.2.62-2.11,1.07c-1.08.53-1.43.68-1.89.64a3.19,3.19,0,0,1-1.47-.7,4.76,4.76,0,0,0-3.43-.35" transform="translate(-17.56 -15.36)"/><path class="cls-2" d="M232.17,108a6.07,6.07,0,0,0-4.7-1.8,9.11,9.11,0,0,0-2.43.84c-.81.36-1.57.78-2.35,1.18l-2.32,1.22c-.39.21-.78.41-1.18.6a3.1,3.1,0,0,1-1.37.4,2.32,2.32,0,0,1-1.31-.55,4.06,4.06,0,0,0-1.11-.58,6.22,6.22,0,0,0-2.55-.16v0a5.32,5.32,0,0,1,2.66-.12,3.79,3.79,0,0,1,1.25.55,1.85,1.85,0,0,0,1.09.41,2.68,2.68,0,0,0,1.13-.37l1.17-.57,2.37-1.14c.8-.38,1.58-.78,2.39-1.11a8.92,8.92,0,0,1,2.55-.8,6.2,6.2,0,0,1,4.75,2Z" transform="translate(-17.56 -15.36)"/><path class="cls-1" d="M213.88,111.35a4.9,4.9,0,0,0-1.62,1.25,5.47,5.47,0,0,0-1.14,3.14,12.61,12.61,0,0,0,1,6,20.51,20.51,0,0,0,2.61,4.89" transform="translate(-17.56 -15.36)"/><path class="cls-2" d="M213.89,111.38a4.69,4.69,0,0,0-1.63,1.33,4.93,4.93,0,0,0-.82,1.91,10,10,0,0,0,0,4.18,25.75,25.75,0,0,0,1.37,4,31.34,31.34,0,0,0,1.92,3.79l0,0a16.24,16.24,0,0,1-3.64-7.73,10,10,0,0,1,.13-4.32,5,5,0,0,1,1-1.94,4.81,4.81,0,0,1,1.71-1.29Z" transform="translate(-17.56 -15.36)"/><path class="cls-1" d="M305.47,127.21a9.13,9.13,0,0,1,2.65,2.39c.78,1.07,1.78,2.91,1.84,7.25a27.82,27.82,0,0,1-1.71,10.55,30.51,30.51,0,0,1-9.11,12.78c-2.51,2.08-6.17,5.1-11.77,5.89a22.46,22.46,0,0,1-10.32-1.17,21.45,21.45,0,0,1-8.15-4.36,20.44,20.44,0,0,1-5.69-8.32c-1.13-3.09-1.15-5.49-1.19-9.45a37.45,37.45,0,0,1,1.36-11.37,20.22,20.22,0,0,1,3.89-8.11,14.59,14.59,0,0,1,4.65-3.78,15.54,15.54,0,0,1,6.43-1.49c2.95-.19,3.07.35,8,.71s6.12,0,8.61,1a13.5,13.5,0,0,1,4,2.47" transform="translate(-17.56 -15.36)"/><path class="cls-2" d="M305.49,127.19a9,9,0,0,1,3.18,3.2,11.47,11.47,0,0,1,1.22,4.36,29.34,29.34,0,0,1-.51,9.06,30.14,30.14,0,0,1-9.06,15.51,32.38,32.38,0,0,1-7.44,5.25,19.31,19.31,0,0,1-8.88,1.84,28.55,28.55,0,0,1-8.89-2,20.13,20.13,0,0,1-7.63-5,20.79,20.79,0,0,1-4.7-7.8c-1-2.93-1-6.06-1-9.07a38.53,38.53,0,0,1,.82-9.08,44.13,44.13,0,0,1,1.24-4.4,19,19,0,0,1,1.92-4.17,15.35,15.35,0,0,1,6.86-6,14.7,14.7,0,0,1,4.47-1,16.67,16.67,0,0,1,4.57.08,62,62,0,0,0,9,.81,11.43,11.43,0,0,1,4.47.85,13.46,13.46,0,0,1,3.81,2.46l0,0a11.79,11.79,0,0,0-8.26-3.12,64.22,64.22,0,0,1-9.07-.72,16.07,16.07,0,0,0-4.49,0,14.07,14.07,0,0,0-4.34,1,14.82,14.82,0,0,0-6.59,5.85,28,28,0,0,0-3.1,8.41,37.55,37.55,0,0,0-.81,9c0,3,0,6.08.93,8.93a20.47,20.47,0,0,0,4.57,7.67,19.73,19.73,0,0,0,7.47,4.89,27.69,27.69,0,0,0,8.77,2,19,19,0,0,0,8.75-1.77,31.75,31.75,0,0,0,7.39-5.18,29.93,29.93,0,0,0,9.09-15.35,29.08,29.08,0,0,0,.55-9,11.28,11.28,0,0,0-1.19-4.34,9,9,0,0,0-3.14-3.19Z" transform="translate(-17.56 -15.36)"/><path class="cls-1" d="M298.46,123.62a4.86,4.86,0,0,1,.84-2.12,10.1,10.1,0,0,1,2.32-2.75,9.18,9.18,0,0,1,3.11-1.66,9.7,9.7,0,0,1,3.82-.38,13.15,13.15,0,0,1,7.23,3.09c2.11,1.75,3.14,3.65,4.47,6.12a24.64,24.64,0,0,1,1.86,4.29,23.88,23.88,0,0,1,.94,4.38,3.77,3.77,0,0,0-1.55-2.28,4.09,4.09,0,0,0-1.29-.4,14.71,14.71,0,0,1-3.65-1.45c-1.47-.76-1.17-1-2.71-1.85a15,15,0,0,0-4-1.61,14.67,14.67,0,0,0-3.85-.41,18.61,18.61,0,0,1-3.41.2,8.09,8.09,0,0,1-2.68-.83,2.46,2.46,0,0,1-1.25-1.06A2.31,2.31,0,0,1,298.46,123.62Z" transform="translate(-17.56 -15.36)"/><path class="cls-2" d="M298.44,123.61a9.43,9.43,0,0,1,6.33-6.6,10.22,10.22,0,0,1,4.76-.28,12.43,12.43,0,0,1,4.48,1.65,14.13,14.13,0,0,1,3.66,3.1,24.84,24.84,0,0,1,2.57,4,23.77,23.77,0,0,1,3,9l-.44.08a3.06,3.06,0,0,0-2.11-2.38,13.06,13.06,0,0,1-3.47-1.18,15,15,0,0,1-1.61-.88c-.54-.37-.93-.79-1.43-1.09a15.91,15.91,0,0,0-3.19-1.54,14.14,14.14,0,0,0-7-.66,7.24,7.24,0,0,1-3.56-.63,5.06,5.06,0,0,1-1.55-1A2,2,0,0,1,298.44,123.61Zm.05,0a1.92,1.92,0,0,0,.45,1.65,4.85,4.85,0,0,0,1.53.88,7,7,0,0,0,3.49.53,14.68,14.68,0,0,1,7.2.48,14.11,14.11,0,0,1,3.32,1.54c.54.32,1,.79,1.44,1.1a14.34,14.34,0,0,0,1.55.85,13.07,13.07,0,0,0,3.36,1.14,2.8,2.8,0,0,1,1.62,1,4.68,4.68,0,0,1,.81,1.7l-.44.09a23.22,23.22,0,0,0-2.89-8.93,24.53,24.53,0,0,0-2.5-4,13.79,13.79,0,0,0-3.56-3.07,12.77,12.77,0,0,0-4.38-1.68,10.15,10.15,0,0,0-4.68.2A9.28,9.28,0,0,0,298.49,123.62Z" transform="translate(-17.56 -15.36)"/><path class="cls-1" d="M298.58,123.33a9.59,9.59,0,0,1-2.27,1.22,12.13,12.13,0,0,1-2.45.58,22.24,22.24,0,0,1-2.44.26" transform="translate(-17.56 -15.36)"/><path class="cls-2" d="M298.59,123.35a8.84,8.84,0,0,1-3.38,1.73,9.32,9.32,0,0,1-1.88.36,12.16,12.16,0,0,1-1.91,0v0a12.48,12.48,0,0,1,1.84-.42c.62-.08,1.25-.14,1.86-.25a9.58,9.58,0,0,0,3.44-1.38Z" transform="translate(-17.56 -15.36)"/><path class="cls-3" d="M289.93,127.47a10.87,10.87,0,0,0,1.74-2.43,20.26,20.26,0,0,0,1.14-3.44c.87-2.73,1.34-3.44.89-4.21-.32-.56-1-1-1.46-.8s-.49.86-.57,1.44c-.2,1.37-.77,2.67-1.05,4a16.71,16.71,0,0,1-2,5" transform="translate(-17.56 -15.36)"/><path class="cls-1" d="M302.2,138.9a9.38,9.38,0,0,0-.2-2.31,8.58,8.58,0,0,0-1.92-3.87c-1-1.12-2.28-1.64-4.83-2.7-1.28-.53-2.68-1-3.59-1.31-1.13-.38-1.79-.63-3.12-1.13-1.59-.59-2.07-.8-2.48-1.31a4.56,4.56,0,0,1-.7-2.17,6.62,6.62,0,0,0-2.93-3.84" transform="translate(-17.56 -15.36)"/><path class="cls-2" d="M302.17,138.9a8.52,8.52,0,0,0-2.66-6.56,12,12,0,0,0-3.2-1.7c-1.13-.49-2.3-.86-3.45-1.28l-3.48-1.21-1.74-.64a4.36,4.36,0,0,1-1.68-1,3.27,3.27,0,0,1-.7-1.82,5.28,5.28,0,0,0-.49-1.7,8.54,8.54,0,0,0-2.35-2.74l0,0a7.75,7.75,0,0,1,2.63,2.62,5.21,5.21,0,0,1,.61,1.79,2.69,2.69,0,0,0,.64,1.55,3.79,3.79,0,0,0,1.49.84c.57.23,1.15.44,1.73.64L293,129c1.15.45,2.31.85,3.43,1.36a12.37,12.37,0,0,1,3.25,1.81,8.65,8.65,0,0,1,2.54,6.75Z" transform="translate(-17.56 -15.36)"/><path class="cls-1" d="M281.17,123.44a6.73,6.73,0,0,0-2.82-.46,7.9,7.9,0,0,0-4.3,1.86,17.78,17.78,0,0,0-5.13,6.76,28.51,28.51,0,0,0-2.47,7.36" transform="translate(-17.56 -15.36)"/><path class="cls-2" d="M281.16,123.46a6.62,6.62,0,0,0-2.92-.39,6.72,6.72,0,0,0-2.77,1,14.08,14.08,0,0,0-4.28,4,32.91,32.91,0,0,0-2.78,5.25,37.91,37.91,0,0,0-1.94,5.64h-.05a23.58,23.58,0,0,1,1.53-5.82,25,25,0,0,1,2.91-5.29,14.4,14.4,0,0,1,4.49-4,7,7,0,0,1,2.88-.91,6.75,6.75,0,0,1,2.95.49Z" transform="translate(-17.56 -15.36)"/><path class="cls-1" d="M293.24,157.83a23.57,23.57,0,0,1-1.95,2.67,18.57,18.57,0,0,1-3.43,3.32,12.41,12.41,0,0,1-7.06,2.09" transform="translate(-17.56 -15.36)"/><path class="cls-2" d="M293.26,157.84A25.14,25.14,0,0,1,291,161a17.76,17.76,0,0,1-2.78,2.77,9.93,9.93,0,0,1-3.52,1.78,11.26,11.26,0,0,1-3.91.36v-.05a19.71,19.71,0,0,0,3.77-.78,13.33,13.33,0,0,0,3.43-1.63,17.46,17.46,0,0,0,2.82-2.62,22.85,22.85,0,0,0,2.4-3.05Z" transform="translate(-17.56 -15.36)"/><path class="cls-1" d="M90.71,18.46a7,7,0,0,0-2.63.72c-.9.46-2.22,1.37-3.77,4.31a21.21,21.21,0,0,0-2.48,7.81,23.35,23.35,0,0,0,1.79,11.88,17.51,17.51,0,0,0,6,8.1,17.14,17.14,0,0,0,7.45,2.78,16.53,16.53,0,0,0,7.08-.15,15.74,15.74,0,0,0,6.77-3.72c1.84-1.72,2.69-3.35,4.08-6a28.13,28.13,0,0,0,3-8.23,15.37,15.37,0,0,0,.15-6.89,11,11,0,0,0-1.86-4.19,11.89,11.89,0,0,0-3.88-3.25c-2-1.15-2.22-.83-5.73-2.29s-4.16-2.16-6.21-2.34a10.26,10.26,0,0,0-3.56.32" transform="translate(-17.56 -15.36)"/><path class="cls-2" d="M90.72,18.49a6.84,6.84,0,0,0-3.25,1.09,8.66,8.66,0,0,0-2.31,2.55,22.79,22.79,0,0,0-2.74,6.35,22.92,22.92,0,0,0,.9,13.63,24.22,24.22,0,0,0,3.26,6.08,14.53,14.53,0,0,0,5.35,4.23,21.3,21.3,0,0,0,6.68,1.67,15,15,0,0,0,6.77-.77,15.56,15.56,0,0,0,5.76-3.64,21.87,21.87,0,0,0,3.72-5.77,29.68,29.68,0,0,0,2.55-6.4,21.58,21.58,0,0,0,.79-6.8,11.31,11.31,0,0,0-2.45-6.26,11,11,0,0,0-2.59-2.22,12.41,12.41,0,0,0-3.07-1.53A48.33,48.33,0,0,1,103.64,18a9,9,0,0,0-6.71-.75v-.05a9.22,9.22,0,0,1,6.82.59,49.79,49.79,0,0,0,6.45,2.57,12.65,12.65,0,0,1,3.16,1.53,11.25,11.25,0,0,1,2.71,2.25,11.81,11.81,0,0,1,2.64,6.48,14.88,14.88,0,0,1-.13,3.53c-.18,1.16-.39,2.3-.68,3.44a30.08,30.08,0,0,1-2.59,6.51A22.13,22.13,0,0,1,111.45,50a15.79,15.79,0,0,1-5.93,3.71,15.36,15.36,0,0,1-7,.75,22,22,0,0,1-6.77-1.73,14.83,14.83,0,0,1-5.45-4.35,24.65,24.65,0,0,1-3.26-6.17,23,23,0,0,1-.81-13.75,22.5,22.5,0,0,1,2.79-6.37,8.87,8.87,0,0,1,2.36-2.56,6.83,6.83,0,0,1,3.28-1.08Z" transform="translate(-17.56 -15.36)"/><path class="cls-1" d="M56.34,38.06a10.08,10.08,0,0,0-2.84,2.58c-.84,1.14-1.91,3.12-2,7.78a30,30,0,0,0,1.84,11.33,32.69,32.69,0,0,0,9.79,13.72C65.84,75.7,69.77,79,75.79,79.8a24.17,24.17,0,0,0,11.07-1.26,23.08,23.08,0,0,0,8.76-4.68,22.11,22.11,0,0,0,6.11-8.93C102.94,61.61,103,59,103,54.77a39.66,39.66,0,0,0-1.46-12.2c-.85-2.93-1.72-5.82-4.18-8.71a15.44,15.44,0,0,0-5-4.06,16.72,16.72,0,0,0-6.91-1.6c-3.17-.2-3.3.37-8.62.77s-6.56-.06-9.24,1a14.41,14.41,0,0,0-4.26,2.65" transform="translate(-17.56 -15.36)"/><path class="cls-2" d="M56.35,38.09A9.47,9.47,0,0,0,53,41.52a12.13,12.13,0,0,0-1.28,4.66,31.78,31.78,0,0,0,.59,9.68,32.14,32.14,0,0,0,9.76,16.49A34,34,0,0,0,70,77.91a20.36,20.36,0,0,0,9.4,1.91,30.13,30.13,0,0,0,9.43-2.14,21.24,21.24,0,0,0,8-5.27,22,22,0,0,0,4.92-8.23c1-3.07,1-6.35,1-9.6a41,41,0,0,0-.88-9.64,30.06,30.06,0,0,0-3.34-9,16.05,16.05,0,0,0-7.09-6.29,15.28,15.28,0,0,0-4.67-1.13,17.75,17.75,0,0,0-4.83,0,67.44,67.44,0,0,1-9.74.77,12.68,12.68,0,0,0-8.86,3.36l0,0A14.65,14.65,0,0,1,67.43,30a10.12,10.12,0,0,1,2.35-.71,22.28,22.28,0,0,1,2.45-.21,67.1,67.1,0,0,0,9.7-.86,17.88,17.88,0,0,1,4.9-.08,15.67,15.67,0,0,1,4.8,1.11A16.49,16.49,0,0,1,99,35.63,20.87,20.87,0,0,1,101,40.11a48.6,48.6,0,0,1,1.32,4.72,41.06,41.06,0,0,1,.87,9.76c0,3.23,0,6.58-1.07,9.72a22.24,22.24,0,0,1-5,8.38A21.51,21.51,0,0,1,88.94,78a30.33,30.33,0,0,1-9.53,2.14,20.73,20.73,0,0,1-9.55-2,34.52,34.52,0,0,1-8-5.63,32.3,32.3,0,0,1-9.74-16.65,31.42,31.42,0,0,1-.55-9.72,12.36,12.36,0,0,1,1.31-4.69A9.72,9.72,0,0,1,56.33,38Z" transform="translate(-17.56 -15.36)"/><path class="cls-1" d="M59.86,50.62a9.42,9.42,0,0,1,.21-2.48A9.28,9.28,0,0,1,62.13,44c1.08-1.2,2.45-1.76,5.18-2.89,1.38-.57,2.89-1.08,3.87-1.41,1.21-.42,1.92-.68,3.34-1.21,1.71-.64,2.22-.86,2.67-1.42a4.93,4.93,0,0,0,.75-2.33,7.12,7.12,0,0,1,3.14-4.11" transform="translate(-17.56 -15.36)"/><path class="cls-2" d="M59.83,50.62a9.32,9.32,0,0,1,2.74-7.24,13.11,13.11,0,0,1,3.48-1.94c1.21-.55,2.46-1,3.7-1.45l3.7-1.4c.62-.22,1.24-.44,1.85-.68A4.35,4.35,0,0,0,76.91,37a2.9,2.9,0,0,0,.69-1.68,5.48,5.48,0,0,1,.66-1.92,8.13,8.13,0,0,1,2.81-2.81l0,0a9,9,0,0,0-2.54,2.93A5.76,5.76,0,0,0,78,35.39a3.38,3.38,0,0,1-.75,1.94,4.58,4.58,0,0,1-1.8,1l-1.86.69-3.74,1.3c-1.23.45-2.49.86-3.7,1.38a13.08,13.08,0,0,0-3.45,1.82,9.22,9.22,0,0,0-2.85,7.06Z" transform="translate(-17.56 -15.36)"/><path class="cls-1" d="M82.44,34a7.12,7.12,0,0,1,3-.49,8.38,8.38,0,0,1,4.61,2,19,19,0,0,1,5.51,7.26,30.54,30.54,0,0,1,2.66,7.91" transform="translate(-17.56 -15.36)"/><path class="cls-2" d="M82.43,34a7.31,7.31,0,0,1,3.17-.53,7.64,7.64,0,0,1,3.08,1,15.43,15.43,0,0,1,4.82,4.31,28,28,0,0,1,3.12,5.68,25.69,25.69,0,0,1,1.66,6.24h0a40.08,40.08,0,0,0-2.07-6.06c-.4-1-.88-1.94-1.37-2.89A22.16,22.16,0,0,0,93.17,39a15,15,0,0,0-4.61-4.33,7.36,7.36,0,0,0-3-1.06,7.22,7.22,0,0,0-3.15.43Z" transform="translate(-17.56 -15.36)"/><path class="cls-3" d="M101.25,24a8,8,0,0,1-.35-2.26,15.44,15.44,0,0,1,.41-2.75c.35-2.16.28-2.81.85-3.18a1.11,1.11,0,0,1,1.28,0c.23.26,0,.76-.11,1.18-.35,1-.41,2.09-.69,3.12a12.84,12.84,0,0,0-.37,4.11" transform="translate(-17.56 -15.36)"/><path class="cls-1" d="M88.91,27.58a6.69,6.69,0,0,1,.93-1.5,6.59,6.59,0,0,1,2.65-2c1.07-.41,2.13-.33,4.23-.17,1.06.09,2.19.25,2.91.35.91.13,1.45.19,2.52.31,1.29.15,1.69.17,2.15,0,.64-.29.83-.76,1.23-1.24a5.13,5.13,0,0,1,3.33-1.6" transform="translate(-17.56 -15.36)"/><path class="cls-2" d="M88.88,27.57A6.65,6.65,0,0,1,93,23.82a9.43,9.43,0,0,1,2.85-.13c.94,0,1.88.17,2.82.26l2.81.3,1.4.14a2.86,2.86,0,0,0,1.28,0,2,2,0,0,0,1-.81,3.92,3.92,0,0,1,1-1,5.86,5.86,0,0,1,2.73-.85v0a6.52,6.52,0,0,0-2.53,1.08,4.08,4.08,0,0,0-.91,1,2.47,2.47,0,0,1-1.13,1,3.42,3.42,0,0,1-1.51.09c-.48,0-.94-.11-1.41-.17l-2.8-.39c-.93-.12-1.85-.27-2.79-.33a9.17,9.17,0,0,0-2.77,0,6.51,6.51,0,0,0-4.09,3.53Z" transform="translate(-17.56 -15.36)"/><path class="cls-1" d="M108.62,24.3a5.12,5.12,0,0,1,2.09.67A6,6,0,0,1,113,27.73a13.54,13.54,0,0,1,1.17,6.39,21.83,21.83,0,0,1-.86,5.89" transform="translate(-17.56 -15.36)"/><path class="cls-2" d="M108.63,24.28a5.26,5.26,0,0,1,2.2.67,5.69,5.69,0,0,1,1.66,1.62,11.19,11.19,0,0,1,1.7,4.31,18.91,18.91,0,0,1,.17,4.63,16.9,16.9,0,0,1-1,4.51h0a31.9,31.9,0,0,0,.58-4.53,26.45,26.45,0,0,0-.07-4.54,10.7,10.7,0,0,0-1.51-4.23,5.29,5.29,0,0,0-1.53-1.63,5,5,0,0,0-2.13-.75Z" transform="translate(-17.56 -15.36)"/><path class="cls-1" d="M120.15,36.8a7.1,7.1,0,0,0-2.72-.22c-1,.12-2.56.54-5,2.78a21.32,21.32,0,0,0-5,6.5,23.39,23.39,0,0,0-2.34,11.79,17.59,17.59,0,0,0,2.9,9.66,17.07,17.07,0,0,0,6.08,5.13,16.51,16.51,0,0,0,6.71,2.26,15.72,15.72,0,0,0,7.62-1.2c2.32-1,3.67-2.24,5.9-4.31a28.43,28.43,0,0,0,5.62-6.73A15.49,15.49,0,0,0,142.41,56a11.11,11.11,0,0,0-.34-4.57,11.76,11.76,0,0,0-2.55-4.37c-1.44-1.74-1.8-1.53-4.61-4.1s-3.18-3.43-5-4.3a10.13,10.13,0,0,0-3.46-.91" transform="translate(-17.56 -15.36)"/><path class="cls-2" d="M120.15,36.82a6.87,6.87,0,0,0-3.43-.07,8.67,8.67,0,0,0-3,1.62A22.47,22.47,0,0,0,109,43.42a22.85,22.85,0,0,0-3.77,13.12,24.46,24.46,0,0,0,1,6.82,14.51,14.51,0,0,0,3.61,5.8A21.5,21.5,0,0,0,115.5,73a15.15,15.15,0,0,0,6.64,1.58,15.59,15.59,0,0,0,6.65-1.48,21.84,21.84,0,0,0,5.45-4.17,29.08,29.08,0,0,0,4.57-5.16,21.31,21.31,0,0,0,3.05-6.13,11.41,11.41,0,0,0-.19-6.72A10.87,10.87,0,0,0,140,48a12.4,12.4,0,0,0-2.37-2.48,48.84,48.84,0,0,1-5.16-4.69,9.06,9.06,0,0,0-6.06-3v0a9.2,9.2,0,0,1,6.22,2.87,49.42,49.42,0,0,0,5.2,4.6,12.4,12.4,0,0,1,2.45,2.51,11.32,11.32,0,0,1,1.79,3,11.82,11.82,0,0,1,.28,7A14.78,14.78,0,0,1,141,61c-.56,1-1.15,2-1.81,3a29.37,29.37,0,0,1-4.64,5.24,22.07,22.07,0,0,1-5.6,4.21A16,16,0,0,1,122.13,75a15.56,15.56,0,0,1-6.79-1.66,21.77,21.77,0,0,1-5.78-3.92,14.77,14.77,0,0,1-3.65-5.94,24.87,24.87,0,0,1-1-6.91,23.06,23.06,0,0,1,3.9-13.21,22.47,22.47,0,0,1,4.79-5,8.74,8.74,0,0,1,3.08-1.61,6.88,6.88,0,0,1,3.46.09Z" transform="translate(-17.56 -15.36)"/><path class="cls-1" d="M75.66,62.05a9.74,9.74,0,0,0-2.84,2.57c-.84,1.14-1.91,3.12-2,7.78a30,30,0,0,0,1.84,11.33,32.69,32.69,0,0,0,9.79,13.72c2.69,2.23,6.62,5.48,12.63,6.33a24.2,24.2,0,0,0,11.08-1.26,23.15,23.15,0,0,0,8.76-4.68,22,22,0,0,0,6.1-8.93c1.22-3.32,1.24-5.9,1.28-10.16a39.66,39.66,0,0,0-1.46-12.2c-.85-2.93-1.72-5.81-4.18-8.71a15.44,15.44,0,0,0-5-4.06,16.72,16.72,0,0,0-6.91-1.6c-3.17-.2-3.3.37-8.62.77s-6.56-.06-9.25,1a14.47,14.47,0,0,0-4.25,2.65" transform="translate(-17.56 -15.36)"/><path class="cls-2" d="M75.67,62.07A9.47,9.47,0,0,0,72.3,65.5,12.13,12.13,0,0,0,71,70.16a31.78,31.78,0,0,0,.59,9.68,32.17,32.17,0,0,0,9.76,16.5,34.61,34.61,0,0,0,7.94,5.56,20.33,20.33,0,0,0,9.4,1.9,30.13,30.13,0,0,0,9.43-2.14,21.33,21.33,0,0,0,8-5.26,22.07,22.07,0,0,0,4.92-8.24c1-3.06,1-6.35,1-9.6a41,41,0,0,0-.88-9.64,29.91,29.91,0,0,0-3.35-9,16,16,0,0,0-7.08-6.29,15.28,15.28,0,0,0-4.67-1.13,17.75,17.75,0,0,0-4.83,0,67.55,67.55,0,0,1-9.74.77,12.68,12.68,0,0,0-8.86,3.36l0,0A14.65,14.65,0,0,1,86.75,54a10.12,10.12,0,0,1,2.35-.71,20.06,20.06,0,0,1,2.45-.2,68.56,68.56,0,0,0,9.7-.87,17.88,17.88,0,0,1,4.9-.08,15.84,15.84,0,0,1,4.79,1.11,16.48,16.48,0,0,1,7.36,6.41,20.57,20.57,0,0,1,2.06,4.47,48,48,0,0,1,1.32,4.73,40.93,40.93,0,0,1,.87,9.75c0,3.23,0,6.58-1.07,9.72a22.24,22.24,0,0,1-5,8.38,21.65,21.65,0,0,1-8.19,5.33,30.59,30.59,0,0,1-9.54,2.13,20.84,20.84,0,0,1-9.54-2,34.83,34.83,0,0,1-8-5.64,32.28,32.28,0,0,1-9.73-16.65,31.42,31.42,0,0,1-.55-9.72,12.36,12.36,0,0,1,1.31-4.69A9.72,9.72,0,0,1,75.65,62Z" transform="translate(-17.56 -15.36)"/><path class="cls-1" d="M103.47,77.29a9.94,9.94,0,0,0-2.84,2.58c-.84,1.14-1.91,3.12-2,7.78A30,30,0,0,0,100.49,99a32.69,32.69,0,0,0,9.79,13.72c2.69,2.23,6.62,5.48,12.63,6.33A24.2,24.2,0,0,0,134,117.77a23.15,23.15,0,0,0,8.76-4.68,22,22,0,0,0,6.1-8.93c1.22-3.32,1.24-5.9,1.28-10.16a39.66,39.66,0,0,0-1.46-12.2c-.85-2.93-1.72-5.82-4.18-8.71a15.44,15.44,0,0,0-5-4.06,16.75,16.75,0,0,0-6.91-1.6c-3.17-.2-3.3.37-8.62.77s-6.57-.06-9.25,1a14.47,14.47,0,0,0-4.25,2.65" transform="translate(-17.56 -15.36)"/><path class="cls-2" d="M103.48,77.32a9.47,9.47,0,0,0-3.37,3.43,12.13,12.13,0,0,0-1.28,4.66,31.46,31.46,0,0,0,.59,9.68,32.14,32.14,0,0,0,9.76,16.49,34,34,0,0,0,7.94,5.56,20.31,20.31,0,0,0,9.4,1.91,30.19,30.19,0,0,0,9.43-2.14,21.24,21.24,0,0,0,8-5.27,22,22,0,0,0,4.92-8.23c1-3.07,1-6.35,1-9.6a41,41,0,0,0-.88-9.64,29.81,29.81,0,0,0-3.35-9,16,16,0,0,0-7.09-6.29,15.22,15.22,0,0,0-4.66-1.13,17.75,17.75,0,0,0-4.83,0,67.55,67.55,0,0,1-9.74.77,12.68,12.68,0,0,0-8.86,3.36l0,0a14.5,14.5,0,0,1,4.1-2.63,10.12,10.12,0,0,1,2.35-.71,22.28,22.28,0,0,1,2.45-.21,66.84,66.84,0,0,0,9.69-.86,18,18,0,0,1,4.91-.08,15.55,15.55,0,0,1,4.79,1.11,16.52,16.52,0,0,1,7.36,6.4,20.87,20.87,0,0,1,2.06,4.48,48.6,48.6,0,0,1,1.32,4.72,41.06,41.06,0,0,1,.87,9.76c0,3.23,0,6.58-1.07,9.72a22.24,22.24,0,0,1-5,8.38,21.51,21.51,0,0,1-8.19,5.32,30.33,30.33,0,0,1-9.54,2.14,20.84,20.84,0,0,1-9.54-2,35.14,35.14,0,0,1-8-5.64,32.28,32.28,0,0,1-9.73-16.65,31.42,31.42,0,0,1-.55-9.72A12.19,12.19,0,0,1,100,80.71a9.72,9.72,0,0,1,3.42-3.44Z" transform="translate(-17.56 -15.36)"/><path class="cls-1" d="M69.48,71a25.93,25.93,0,0,0,2.09,2.87,20,20,0,0,0,3.68,3.56,13.42,13.42,0,0,0,7.59,2.25" transform="translate(-17.56 -15.36)"/><path class="cls-2" d="M69.5,70.93a25.42,25.42,0,0,0,2.57,3.28,18.3,18.3,0,0,0,3,2.81,13.33,13.33,0,0,0,3.69,1.76,19.53,19.53,0,0,0,4,.82v.05a12.45,12.45,0,0,1-4.2-.39,11,11,0,0,1-3.78-1.92,18.6,18.6,0,0,1-3-3A26.36,26.36,0,0,1,69.45,71Z" transform="translate(-17.56 -15.36)"/><path class="cls-1" d="M88.47,43.62a17.69,17.69,0,0,0,.4,2.5,14.4,14.4,0,0,0,1.2,3.45,9.42,9.42,0,0,0,4.1,3.88" transform="translate(-17.56 -15.36)"/><path class="cls-2" d="M88.49,43.62c.21,1,.35,2,.61,2.9a13,13,0,0,0,1,2.75,10.1,10.1,0,0,0,1.77,2.28,16.55,16.55,0,0,0,2.27,1.88l0,0a8.16,8.16,0,0,1-2.59-1.55,7.57,7.57,0,0,1-1.79-2.47,13.94,13.94,0,0,1-.93-2.87c-.19-1-.27-2-.41-3Z" transform="translate(-17.56 -15.36)"/><path class="cls-3" d="M128.18,45.6a8.32,8.32,0,0,1,.43-2.25,16.63,16.63,0,0,1,1.32-2.44c1.07-1.92,1.22-2.56,1.88-2.71.48-.11,1.09.07,1.22.39s-.23.73-.51,1.08c-.66.83-1.09,1.83-1.7,2.7a12.76,12.76,0,0,0-1.74,3.74" transform="translate(-17.56 -15.36)"/><path class="cls-1" d="M115.36,44.77a6.26,6.26,0,0,1,1.39-1.1,6.45,6.45,0,0,1,3.16-1c1.15,0,2.12.4,4,1.27,1,.44,2,1,2.62,1.32.81.42,1.3.66,2.27,1.14,1.16.58,1.53.73,2,.69a3.33,3.33,0,0,0,1.57-.75,5.17,5.17,0,0,1,3.68-.38" transform="translate(-17.56 -15.36)"/><path class="cls-2" d="M115.34,44.75a6.69,6.69,0,0,1,5.11-2.16,9.7,9.7,0,0,1,2.72.86c.88.35,1.71.79,2.57,1.19l2.54,1.23,1.27.62a3,3,0,0,0,1.22.39,2,2,0,0,0,1.17-.44,4.15,4.15,0,0,1,1.34-.6,5.84,5.84,0,0,1,2.85.13V46a6.3,6.3,0,0,0-2.74.16,3.86,3.86,0,0,0-1.19.62,2.52,2.52,0,0,1-1.41.58,3.51,3.51,0,0,1-1.46-.42l-1.26-.64L125.56,45c-.84-.42-1.66-.88-2.52-1.26a9.36,9.36,0,0,0-2.62-.9,6.51,6.51,0,0,0-5,1.94Z" transform="translate(-17.56 -15.36)"/><path class="cls-1" d="M135,48.36a5.26,5.26,0,0,1,1.74,1.34A6,6,0,0,1,138,53.07a13.53,13.53,0,0,1-1.07,6.41,22,22,0,0,1-2.81,5.25" transform="translate(-17.56 -15.36)"/><path class="cls-2" d="M135,48.34a5.19,5.19,0,0,1,1.84,1.38,5.3,5.3,0,0,1,1,2.09,11,11,0,0,1,.13,4.63,18.42,18.42,0,0,1-1.4,4.41,16.88,16.88,0,0,1-2.5,3.89l0,0a30.47,30.47,0,0,0,2.08-4.06,27.5,27.5,0,0,0,1.47-4.29,10.79,10.79,0,0,0,0-4.49,5.5,5.5,0,0,0-.89-2.06A5.3,5.3,0,0,0,135,48.38Z" transform="translate(-17.56 -15.36)"/><path class="cls-1" d="M36.66,65.39A9.74,9.74,0,0,0,33.82,68c-.84,1.14-1.91,3.12-2,7.78a29.75,29.75,0,0,0,1.84,11.33,32.62,32.62,0,0,0,9.78,13.72c2.7,2.23,6.62,5.48,12.64,6.33a24.22,24.22,0,0,0,11.08-1.26,23.15,23.15,0,0,0,8.76-4.68A22,22,0,0,0,82,92.25c1.22-3.32,1.24-5.9,1.28-10.16a40,40,0,0,0-1.46-12.2,21.59,21.59,0,0,0-4.18-8.71,15.39,15.39,0,0,0-5-4.06,16.71,16.71,0,0,0-6.9-1.6c-3.17-.2-3.3.37-8.62.77s-6.57-.06-9.25,1A14.33,14.33,0,0,0,43.67,60" transform="translate(-17.56 -15.36)"/><path class="cls-2" d="M36.67,65.41a9.55,9.55,0,0,0-3.37,3.43A12,12,0,0,0,32,73.5a31.16,31.16,0,0,0,.59,9.68,32,32,0,0,0,9.76,16.5,34.34,34.34,0,0,0,7.93,5.56,20.37,20.37,0,0,0,9.41,1.9A30.13,30.13,0,0,0,69.13,105a21.37,21.37,0,0,0,8-5.26,21.91,21.91,0,0,0,4.91-8.24c1.05-3.06,1-6.35,1-9.59a40.54,40.54,0,0,0-.89-9.65,30.16,30.16,0,0,0-3.34-9,16,16,0,0,0-7.09-6.29,15.22,15.22,0,0,0-4.66-1.13,17.75,17.75,0,0,0-4.83,0,67.66,67.66,0,0,1-9.74.77A12.77,12.77,0,0,0,43.68,60l0,0a14.5,14.5,0,0,1,4.1-2.63,10.12,10.12,0,0,1,2.35-.71,20.06,20.06,0,0,1,2.44-.2,68.29,68.29,0,0,0,9.7-.87,18,18,0,0,1,4.91-.08,15.84,15.84,0,0,1,4.79,1.11A16.46,16.46,0,0,1,79.29,63a20.15,20.15,0,0,1,2.07,4.47c.5,1.56,1,3.12,1.32,4.73a41.45,41.45,0,0,1,.87,9.75c0,3.23,0,6.58-1.07,9.72a22.27,22.27,0,0,1-5,8.38,21.53,21.53,0,0,1-8.18,5.33,30.59,30.59,0,0,1-9.54,2.13,20.78,20.78,0,0,1-9.54-2,34.62,34.62,0,0,1-8-5.64,32.31,32.31,0,0,1-9.74-16.64,31.8,31.8,0,0,1-.54-9.73,12.19,12.19,0,0,1,1.31-4.69,9.77,9.77,0,0,1,3.41-3.44Z" transform="translate(-17.56 -15.36)"/><path class="cls-1" d="M44.19,61.53a5.13,5.13,0,0,0-.91-2.27,10.82,10.82,0,0,0-2.48-3,10.07,10.07,0,0,0-3.34-1.78,10.5,10.5,0,0,0-4.1-.41,14.24,14.24,0,0,0-7.77,3.32c-2.26,1.88-3.37,3.92-4.81,6.57a27.36,27.36,0,0,0-2,4.61,24.65,24.65,0,0,0-1,4.7,4,4,0,0,1,1.65-2.45,4.15,4.15,0,0,1,1.39-.42,15.87,15.87,0,0,0,3.92-1.56c1.58-.82,1.25-1,2.92-2A16,16,0,0,1,32,65.17a15.36,15.36,0,0,1,4.13-.45c1.76.06,2.11.39,3.67.22a8.72,8.72,0,0,0,2.87-.9A2.62,2.62,0,0,0,44,62.91,2.49,2.49,0,0,0,44.19,61.53Z" transform="translate(-17.56 -15.36)"/><path class="cls-2" d="M44.16,61.53a10,10,0,0,0-6.79-7,10.83,10.83,0,0,0-5-.21,13.38,13.38,0,0,0-4.71,1.8,14.85,14.85,0,0,0-3.82,3.29,26.85,26.85,0,0,0-2.69,4.31A25.11,25.11,0,0,0,18,73.34l-.44-.09a5.18,5.18,0,0,1,.87-1.82,3,3,0,0,1,1.74-1.1,14.32,14.32,0,0,0,3.6-1.23,16.67,16.67,0,0,0,1.67-.92c.49-.33,1-.83,1.54-1.18a15.22,15.22,0,0,1,3.57-1.65,15.61,15.61,0,0,1,7.73-.52A7.54,7.54,0,0,0,42,64.26a5.51,5.51,0,0,0,1.65-1A2.1,2.1,0,0,0,44.16,61.53Zm.05,0a2.11,2.11,0,0,1-.46,1.84,5.59,5.59,0,0,1-1.66,1,7.75,7.75,0,0,1-3.83.68,15.22,15.22,0,0,0-7.57.7,17.47,17.47,0,0,0-3.43,1.65c-.54.33-1,.78-1.53,1.18a17.23,17.23,0,0,1-1.73.94,14.17,14.17,0,0,1-3.71,1.27A3.27,3.27,0,0,0,18,73.38l-.44-.09a25.66,25.66,0,0,1,3.25-9.71,27,27,0,0,1,2.76-4.34,15.45,15.45,0,0,1,3.92-3.33,13.48,13.48,0,0,1,4.82-1.77,11.14,11.14,0,0,1,5.1.3A10.13,10.13,0,0,1,44.21,61.53Z" transform="translate(-17.56 -15.36)"/><path class="cls-1" d="M44.06,61.22a10.67,10.67,0,0,0,2.43,1.31,12.81,12.81,0,0,0,2.64.62,21.42,21.42,0,0,0,2.62.28" transform="translate(-17.56 -15.36)"/><path class="cls-2" d="M44.08,61.2a10.49,10.49,0,0,0,3.69,1.5c.66.11,1.34.18,2,.27a14,14,0,0,1,2,.43v.05a12.76,12.76,0,0,1-2,0,9.24,9.24,0,0,1-2-.37,9.74,9.74,0,0,1-3.64-1.85Z" transform="translate(-17.56 -15.36)"/><path class="cls-3" d="M53.35,65.66a11.23,11.23,0,0,1-1.87-2.6,22.58,22.58,0,0,1-1.22-3.7c-.94-2.93-1.44-3.69-1-4.52.35-.6,1.11-1,1.57-.86s.53.93.62,1.55c.2,1.48.81,2.87,1.12,4.33a17.49,17.49,0,0,0,2.13,5.37" transform="translate(-17.56 -15.36)"/><path class="cls-1" d="M40.18,77.94a9.42,9.42,0,0,1,.21-2.48,9.23,9.23,0,0,1,2-4.16c1.09-1.2,2.46-1.76,5.19-2.89,1.38-.57,2.89-1.08,3.86-1.41,1.21-.41,1.93-.68,3.35-1.21,1.71-.64,2.22-.86,2.66-1.41a4.89,4.89,0,0,0,.75-2.33,7.21,7.21,0,0,1,3.15-4.12" transform="translate(-17.56 -15.36)"/><path class="cls-2" d="M40.15,77.94a9.27,9.27,0,0,1,2.74-7.24,13.23,13.23,0,0,1,3.48-1.94c1.2-.55,2.46-1,3.69-1.45l3.71-1.4c.62-.22,1.24-.44,1.85-.68a4.3,4.3,0,0,0,1.6-.91,2.91,2.91,0,0,0,.7-1.68,5.53,5.53,0,0,1,.65-1.92,8.33,8.33,0,0,1,2.82-2.81l0,0a9,9,0,0,0-2.54,2.93,5.51,5.51,0,0,0-.53,1.83,3.45,3.45,0,0,1-.75,1.94,4.6,4.6,0,0,1-1.8,1q-.93.36-1.86.69l-3.74,1.3c-1.24.45-2.49.86-3.7,1.38a13,13,0,0,0-3.45,1.83,9.18,9.18,0,0,0-2.85,7Z" transform="translate(-17.56 -15.36)"/><path class="cls-1" d="M62.75,61.34a7.2,7.2,0,0,1,3-.49,8.34,8.34,0,0,1,4.61,2,18.93,18.93,0,0,1,5.51,7.25A31.32,31.32,0,0,1,78.57,78" transform="translate(-17.56 -15.36)"/><path class="cls-2" d="M62.74,61.31a7.32,7.32,0,0,1,3.18-.52,7.48,7.48,0,0,1,3.08,1,15.39,15.39,0,0,1,4.81,4.31,28.34,28.34,0,0,1,3.13,5.68A25.63,25.63,0,0,1,78.59,78h0A39.79,39.79,0,0,0,76.48,72c-.41-1-.88-1.94-1.38-2.89a22.09,22.09,0,0,0-1.61-2.74A15,15,0,0,0,68.88,62a7.62,7.62,0,0,0-3-1.06,7.2,7.2,0,0,0-3.14.43Z" transform="translate(-17.56 -15.36)"/><path class="cls-1" d="M49.79,98.27a26.23,26.23,0,0,0,2.1,2.87,19.7,19.7,0,0,0,3.68,3.56A13.35,13.35,0,0,0,63.15,107" transform="translate(-17.56 -15.36)"/><path class="cls-2" d="M49.81,98.25a26.53,26.53,0,0,0,2.57,3.28,18.34,18.34,0,0,0,3,2.81,13.27,13.27,0,0,0,3.68,1.76,20.36,20.36,0,0,0,4,.83v0a12.66,12.66,0,0,1-4.19-.4,11,11,0,0,1-3.78-1.91,19.46,19.46,0,0,1-3-3,26.19,26.19,0,0,1-2.43-3.42Z" transform="translate(-17.56 -15.36)"/><path class="cls-1" d="M176.4,18.65a7,7,0,0,0-2.63.72c-.91.45-2.23,1.37-3.77,4.31a21.18,21.18,0,0,0-2.49,7.8,23.37,23.37,0,0,0,1.8,11.89,17.53,17.53,0,0,0,6,8.1,17.13,17.13,0,0,0,7.46,2.77,16.37,16.37,0,0,0,7.08-.15,15.74,15.74,0,0,0,6.76-3.71c1.84-1.72,2.69-3.36,4.09-6.05a28.62,28.62,0,0,0,3-8.24,15.37,15.37,0,0,0,.15-6.89A11,11,0,0,0,202,25a12,12,0,0,0-3.87-3.24c-2-1.16-2.22-.83-5.73-2.3s-4.16-2.15-6.21-2.33a10.36,10.36,0,0,0-3.57.31" transform="translate(-17.56 -15.36)"/><path class="cls-2" d="M176.4,18.67a6.85,6.85,0,0,0-3.25,1.1,8.82,8.82,0,0,0-2.31,2.55,22.35,22.35,0,0,0-2.73,6.35,22.82,22.82,0,0,0,.9,13.62,24.58,24.58,0,0,0,3.25,6.09,14.56,14.56,0,0,0,5.36,4.23,21.43,21.43,0,0,0,6.67,1.66,15.14,15.14,0,0,0,6.78-.76,15.46,15.46,0,0,0,5.75-3.65,21.72,21.72,0,0,0,3.72-5.76,28.77,28.77,0,0,0,2.55-6.41,21.52,21.52,0,0,0,.8-6.8,11.45,11.45,0,0,0-2.46-6.26,10.8,10.8,0,0,0-2.59-2.21,12.52,12.52,0,0,0-3.06-1.53,47.84,47.84,0,0,1-6.45-2.67,9,9,0,0,0-6.71-.74v-.05a9.18,9.18,0,0,1,6.82.58,47.48,47.48,0,0,0,6.44,2.57A12.72,12.72,0,0,1,199,22.11a11,11,0,0,1,2.7,2.26,11.78,11.78,0,0,1,2.64,6.48,14.37,14.37,0,0,1-.12,3.53,34.32,34.32,0,0,1-.69,3.44,29,29,0,0,1-2.59,6.5,22.14,22.14,0,0,1-3.84,5.86,16.16,16.16,0,0,1-5.94,3.71,15.48,15.48,0,0,1-6.95.74,21.58,21.58,0,0,1-6.77-1.73A14.69,14.69,0,0,1,172,48.55a24.16,24.16,0,0,1-3.26-6.17,22.16,22.16,0,0,1,2-20.12,8.67,8.67,0,0,1,2.35-2.55,6.92,6.92,0,0,1,3.29-1.09Z" transform="translate(-17.56 -15.36)"/><path class="cls-1" d="M142,38.25a9.88,9.88,0,0,0-2.84,2.57c-.84,1.14-1.91,3.13-2,7.78a29.72,29.72,0,0,0,1.84,11.33,32.67,32.67,0,0,0,9.78,13.73c2.7,2.23,6.62,5.48,12.64,6.32a24,24,0,0,0,11.08-1.26,23.25,23.25,0,0,0,8.76-4.67,21.91,21.91,0,0,0,6.1-8.94c1.22-3.31,1.24-5.9,1.28-10.15a40,40,0,0,0-1.46-12.21A21.59,21.59,0,0,0,183.05,34a15.38,15.38,0,0,0-5-4.05,16.58,16.58,0,0,0-6.9-1.61c-3.17-.2-3.3.38-8.62.77s-6.57-.06-9.25,1A14.53,14.53,0,0,0,149,32.82" transform="translate(-17.56 -15.36)"/><path class="cls-2" d="M142,38.27a9.63,9.63,0,0,0-3.37,3.43,12,12,0,0,0-1.28,4.66,31.24,31.24,0,0,0,.59,9.69,32,32,0,0,0,9.76,16.49,34.34,34.34,0,0,0,7.93,5.56A20.5,20.5,0,0,0,165.08,80a30.15,30.15,0,0,0,9.42-2.15,21.14,21.14,0,0,0,8-5.26,21.77,21.77,0,0,0,4.92-8.23c1.05-3.07,1-6.36,1-9.6a40.54,40.54,0,0,0-.89-9.65,30.1,30.1,0,0,0-3.34-9,16,16,0,0,0-7.09-6.3,15.19,15.19,0,0,0-4.67-1.12,17.29,17.29,0,0,0-4.82,0,66.27,66.27,0,0,1-9.74.78,12.71,12.71,0,0,0-8.87,3.35l0,0a14.54,14.54,0,0,1,4.1-2.64,10.1,10.1,0,0,1,2.35-.7,18.26,18.26,0,0,1,2.44-.21,68.28,68.28,0,0,0,9.7-.86,18,18,0,0,1,4.91-.09,15.56,15.56,0,0,1,4.79,1.12,16.37,16.37,0,0,1,7.35,6.4,20,20,0,0,1,2.07,4.48c.5,1.55,1,3.11,1.32,4.72a41.5,41.5,0,0,1,.87,9.75c0,3.23,0,6.58-1.07,9.73a22.34,22.34,0,0,1-5,8.38,21.63,21.63,0,0,1-8.18,5.32,30.59,30.59,0,0,1-9.54,2.13,20.78,20.78,0,0,1-9.54-2,34.32,34.32,0,0,1-8-5.64,32.23,32.23,0,0,1-9.74-16.64,31.8,31.8,0,0,1-.54-9.73,12.14,12.14,0,0,1,1.31-4.68A9.61,9.61,0,0,1,142,38.23Z" transform="translate(-17.56 -15.36)"/><path class="cls-1" d="M145.55,50.8a9.35,9.35,0,0,1,.21-2.47,9.18,9.18,0,0,1,2.05-4.16c1.09-1.2,2.45-1.77,5.19-2.9,1.38-.57,2.89-1.08,3.86-1.41,1.21-.41,1.93-.68,3.35-1.21,1.71-.63,2.22-.86,2.66-1.41a4.86,4.86,0,0,0,.75-2.33,7.21,7.21,0,0,1,3.15-4.12" transform="translate(-17.56 -15.36)"/><path class="cls-2" d="M145.52,50.8a9.28,9.28,0,0,1,2.74-7.24,13.23,13.23,0,0,1,3.48-1.94c1.2-.54,2.46-1,3.69-1.45l3.71-1.39c.62-.23,1.24-.45,1.85-.69a4.17,4.17,0,0,0,1.6-.91,2.91,2.91,0,0,0,.7-1.67,5.58,5.58,0,0,1,.65-1.93,8.33,8.33,0,0,1,2.82-2.81l0,0a9,9,0,0,0-2.54,2.93,5.57,5.57,0,0,0-.53,1.84,3.45,3.45,0,0,1-.75,1.94,4.7,4.7,0,0,1-1.8,1c-.62.25-1.24.47-1.86.69l-3.74,1.31c-1.24.44-2.49.85-3.7,1.37a13.25,13.25,0,0,0-3.45,1.83,9.18,9.18,0,0,0-2.85,7Z" transform="translate(-17.56 -15.36)"/><path class="cls-1" d="M168.12,34.2a7.36,7.36,0,0,1,3-.49,8.34,8.34,0,0,1,4.61,2A19.08,19.08,0,0,1,181.28,43a31.09,31.09,0,0,1,2.66,7.9" transform="translate(-17.56 -15.36)"/><path class="cls-2" d="M168.11,34.18a7.19,7.19,0,0,1,3.18-.53,7.63,7.63,0,0,1,3.08,1A15.3,15.3,0,0,1,179.18,39a28,28,0,0,1,3.13,5.67A25.63,25.63,0,0,1,184,50.87h-.05a39.3,39.3,0,0,0-2.06-6.06c-.41-1-.88-1.94-1.38-2.89a22.21,22.21,0,0,0-1.61-2.75,15.13,15.13,0,0,0-4.61-4.33,7.45,7.45,0,0,0-3-1.05,7.17,7.17,0,0,0-3.14.42Z" transform="translate(-17.56 -15.36)"/><path class="cls-3" d="M186.93,24.21a8.49,8.49,0,0,1-.34-2.26A15.44,15.44,0,0,1,187,19.2c.35-2.17.28-2.81.85-3.18.41-.27,1-.31,1.27,0s0,.76-.1,1.19c-.35,1-.41,2.09-.69,3.12a12.75,12.75,0,0,0-.38,4.1" transform="translate(-17.56 -15.36)"/><path class="cls-1" d="M174.59,27.77a7.05,7.05,0,0,1,.94-1.51,6.53,6.53,0,0,1,2.64-2c1.08-.42,2.13-.33,4.24-.17,1.06.08,2.18.24,2.91.35.9.13,1.44.19,2.52.31,1.29.14,1.69.17,2.15,0,.63-.29.83-.77,1.23-1.24a5.12,5.12,0,0,1,3.33-1.61" transform="translate(-17.56 -15.36)"/><path class="cls-2" d="M174.57,27.76A6.65,6.65,0,0,1,178.64,24a9.49,9.49,0,0,1,2.86-.12c.94,0,1.88.16,2.82.26l2.81.29,1.39.15a2.89,2.89,0,0,0,1.29,0,2,2,0,0,0,1-.81,4.08,4.08,0,0,1,1-1,5.85,5.85,0,0,1,2.73-.84v.05A6.58,6.58,0,0,0,192,23a4.1,4.1,0,0,0-.91,1A2.48,2.48,0,0,1,190,25a3.33,3.33,0,0,1-1.52.1c-.47-.05-.93-.12-1.4-.18l-2.8-.39c-.93-.11-1.86-.26-2.8-.33a9.51,9.51,0,0,0-2.77,0,6.55,6.55,0,0,0-4.09,3.54Z" transform="translate(-17.56 -15.36)"/><path class="cls-1" d="M194.31,24.49a5.12,5.12,0,0,1,2.09.67,6,6,0,0,1,2.29,2.75,13.55,13.55,0,0,1,1.16,6.4A21.93,21.93,0,0,1,199,40.2" transform="translate(-17.56 -15.36)"/><path class="cls-2" d="M194.31,24.46a5.19,5.19,0,0,1,2.2.68,5.49,5.49,0,0,1,1.67,1.62,11,11,0,0,1,1.69,4.31,18.9,18.9,0,0,1,.18,4.63,17.22,17.22,0,0,1-1,4.5H199a31.72,31.72,0,0,0,.58-4.53,27.4,27.4,0,0,0-.07-4.53A10.64,10.64,0,0,0,198,26.9a5.22,5.22,0,0,0-1.54-1.63,5.15,5.15,0,0,0-2.12-.76Z" transform="translate(-17.56 -15.36)"/><path class="cls-1" d="M205.84,37a7.18,7.18,0,0,0-2.73-.21c-1,.12-2.55.53-5,2.78a21.09,21.09,0,0,0-5,6.49,23.31,23.31,0,0,0-2.34,11.8,17.45,17.45,0,0,0,2.9,9.65,17.3,17.3,0,0,0,6.07,5.14,16.51,16.51,0,0,0,6.71,2.26,15.74,15.74,0,0,0,7.63-1.21c2.32-1,3.67-2.24,5.9-4.3a28.44,28.44,0,0,0,5.61-6.73,15.28,15.28,0,0,0,2.48-6.43,11.06,11.06,0,0,0-.33-4.57,11.81,11.81,0,0,0-2.55-4.37c-1.45-1.75-1.8-1.53-4.61-4.1s-3.19-3.44-5-4.31a10.68,10.68,0,0,0-3.46-.91" transform="translate(-17.56 -15.36)"/><path class="cls-2" d="M205.83,37a6.76,6.76,0,0,0-3.43-.07,8.61,8.61,0,0,0-3,1.61,22.24,22.24,0,0,0-4.73,5.05,22.82,22.82,0,0,0-3.77,13.12,24.17,24.17,0,0,0,1,6.83,14.56,14.56,0,0,0,3.6,5.8,21.51,21.51,0,0,0,5.72,3.82,15,15,0,0,0,6.63,1.58,15.59,15.59,0,0,0,6.65-1.48,21.9,21.9,0,0,0,5.46-4.16A29,29,0,0,0,224.49,64a21.18,21.18,0,0,0,3-6.13,11.32,11.32,0,0,0-.18-6.72,10.76,10.76,0,0,0-1.69-3,12.4,12.4,0,0,0-2.36-2.49A46.85,46.85,0,0,1,218.15,41a9.07,9.07,0,0,0-6.06-3v-.05a9.17,9.17,0,0,1,6.22,2.86,47.15,47.15,0,0,0,5.19,4.6A13,13,0,0,1,226,47.91,11.09,11.09,0,0,1,227.74,51a11.71,11.71,0,0,1,.29,7,14.17,14.17,0,0,1-1.32,3.28c-.56,1-1.14,2-1.8,3a30.13,30.13,0,0,1-4.65,5.24,22.13,22.13,0,0,1-5.6,4.21,16,16,0,0,1-6.84,1.47A15.38,15.38,0,0,1,201,73.5a21.62,21.62,0,0,1-5.78-3.92,15,15,0,0,1-3.66-5.94,24.54,24.54,0,0,1-1-6.91,23,23,0,0,1,3.89-13.21,22.75,22.75,0,0,1,4.79-5.05,9,9,0,0,1,3.09-1.61,7,7,0,0,1,3.45.1Z" transform="translate(-17.56 -15.36)"/><path class="cls-1" d="M161.35,62.23a10,10,0,0,0-2.84,2.57c-.84,1.14-1.91,3.13-2,7.78a29.72,29.72,0,0,0,1.84,11.33,32.67,32.67,0,0,0,9.78,13.73c2.69,2.23,6.62,5.48,12.64,6.32a24.11,24.11,0,0,0,11.08-1.25A23.44,23.44,0,0,0,200.63,98a21.91,21.91,0,0,0,6.1-8.94C208,85.78,208,83.19,208,78.94a40,40,0,0,0-1.46-12.2c-.86-2.94-1.73-5.82-4.18-8.72a15.51,15.51,0,0,0-5-4.05,16.55,16.55,0,0,0-6.9-1.6c-3.17-.21-3.3.37-8.62.76s-6.57-.06-9.25,1a14.33,14.33,0,0,0-4.25,2.65" transform="translate(-17.56 -15.36)"/><path class="cls-2" d="M161.36,62.25A9.74,9.74,0,0,0,158,65.68a12.36,12.36,0,0,0-1.28,4.66,31.55,31.55,0,0,0,.6,9.69,32,32,0,0,0,9.76,16.49,34.34,34.34,0,0,0,7.93,5.56A20.5,20.5,0,0,0,184.4,104a30.15,30.15,0,0,0,9.42-2.15,21.1,21.1,0,0,0,8-5.26,21.69,21.69,0,0,0,4.92-8.23c1.05-3.07,1-6.36,1-9.6a41.06,41.06,0,0,0-.89-9.65,30.1,30.1,0,0,0-3.34-9,16,16,0,0,0-7.09-6.29,15.21,15.21,0,0,0-4.67-1.13,16.92,16.92,0,0,0-4.82,0,67.66,67.66,0,0,1-9.74.77,12.68,12.68,0,0,0-8.87,3.36l0,0a14.54,14.54,0,0,1,4.1-2.64,10.1,10.1,0,0,1,2.35-.7,20.08,20.08,0,0,1,2.44-.21,68.41,68.41,0,0,0,9.7-.86,17.56,17.56,0,0,1,4.91-.08,15.26,15.26,0,0,1,4.79,1.11A16.37,16.37,0,0,1,204,59.8a20.22,20.22,0,0,1,2.07,4.48c.5,1.55,1,3.12,1.32,4.72a41.55,41.55,0,0,1,.87,9.75c0,3.24,0,6.59-1.07,9.73a22.27,22.27,0,0,1-5,8.38,21.51,21.51,0,0,1-8.18,5.32,30.31,30.31,0,0,1-9.54,2.13,20.78,20.78,0,0,1-9.54-2,34.58,34.58,0,0,1-8-5.63,32.3,32.3,0,0,1-9.74-16.65,31.79,31.79,0,0,1-.54-9.73,12.14,12.14,0,0,1,1.31-4.68,9.61,9.61,0,0,1,3.41-3.44Z" transform="translate(-17.56 -15.36)"/><path class="cls-1" d="M155.16,71.13a24.44,24.44,0,0,0,2.1,2.87,19.39,19.39,0,0,0,3.68,3.56,13.19,13.19,0,0,0,7.58,2.25" transform="translate(-17.56 -15.36)"/><path class="cls-2" d="M155.18,71.12a28.12,28.12,0,0,0,2.57,3.28,19.23,19.23,0,0,0,3,2.81A13.53,13.53,0,0,0,164.47,79a20.36,20.36,0,0,0,4.05.83v0a12.15,12.15,0,0,1-4.19-.4,10.8,10.8,0,0,1-3.78-1.91,20,20,0,0,1-3-3,27.1,27.1,0,0,1-2.42-3.42Z" transform="translate(-17.56 -15.36)"/><path class="cls-1" d="M174.15,43.8a18,18,0,0,0,.41,2.51,14.14,14.14,0,0,0,1.19,3.45,9.6,9.6,0,0,0,4.1,3.88" transform="translate(-17.56 -15.36)"/><path class="cls-2" d="M174.18,43.8c.2,1,.35,2,.6,2.91a13.79,13.79,0,0,0,1,2.75,10.08,10.08,0,0,0,1.78,2.28,17.21,17.21,0,0,0,2.26,1.88l0,0a8,8,0,0,1-2.58-1.56,7.49,7.49,0,0,1-1.79-2.46,13.36,13.36,0,0,1-.93-2.87c-.19-1-.27-2-.41-3Z" transform="translate(-17.56 -15.36)"/><path class="cls-3" d="M213.86,45.78a8.35,8.35,0,0,1,.44-2.24,15.18,15.18,0,0,1,1.32-2.45c1.06-1.91,1.21-2.55,1.88-2.7.48-.12,1.08.06,1.21.39s-.22.73-.5,1.08c-.67.83-1.09,1.83-1.7,2.7a12.78,12.78,0,0,0-1.75,3.73" transform="translate(-17.56 -15.36)"/><path class="cls-1" d="M201,45a7.13,7.13,0,0,1,1.39-1.1,6.57,6.57,0,0,1,3.17-1c1.15,0,2.11.41,4,1.28,1,.44,2,1,2.62,1.31.81.43,1.29.67,2.26,1.15,1.17.57,1.54.73,2,.69a3.52,3.52,0,0,0,1.58-.75,5.08,5.08,0,0,1,3.67-.38" transform="translate(-17.56 -15.36)"/><path class="cls-2" d="M201,44.93a6.66,6.66,0,0,1,5.1-2.15,9.44,9.44,0,0,1,2.73.85c.87.36,1.71.79,2.56,1.2L214,46.06l1.26.61a2.8,2.8,0,0,0,1.22.39,2,2,0,0,0,1.18-.43A3.86,3.86,0,0,1,219,46a5.84,5.84,0,0,1,2.85.12v.05a6.68,6.68,0,0,0-2.75.16,4,4,0,0,0-1.19.62,2.4,2.4,0,0,1-1.4.58,3.24,3.24,0,0,1-1.46-.42c-.43-.2-.85-.42-1.26-.64l-2.5-1.31c-.84-.43-1.66-.88-2.52-1.26a9.47,9.47,0,0,0-2.62-.9A6.53,6.53,0,0,0,201.06,45Z" transform="translate(-17.56 -15.36)"/><path class="cls-1" d="M220.71,48.55a5.1,5.1,0,0,1,1.73,1.33,6,6,0,0,1,1.23,3.38,13.5,13.5,0,0,1-1.08,6.4,21.73,21.73,0,0,1-2.8,5.25" transform="translate(-17.56 -15.36)"/><path class="cls-2" d="M220.72,48.52a5.22,5.22,0,0,1,1.84,1.39,5.45,5.45,0,0,1,1,2.08,11,11,0,0,1,.14,4.63A18.83,18.83,0,0,1,222.3,61a16.84,16.84,0,0,1-2.49,3.89l0,0a33.08,33.08,0,0,0,2.08-4.06,27.5,27.5,0,0,0,1.47-4.29,10.67,10.67,0,0,0,0-4.5,5.15,5.15,0,0,0-.89-2,5,5,0,0,0-1.74-1.43Z" transform="translate(-17.56 -15.36)"/><path class="cls-1" d="M122.34,65.57a10.31,10.31,0,0,0-2.84,2.57c-.84,1.14-1.9,3.13-2,7.78a29.93,29.93,0,0,0,1.84,11.33A32.76,32.76,0,0,0,129.15,101c2.69,2.23,6.62,5.48,12.64,6.32a24.11,24.11,0,0,0,11.08-1.25,23.2,23.2,0,0,0,8.75-4.68,22.06,22.06,0,0,0,6.11-8.94c1.21-3.31,1.24-5.89,1.28-10.15a40,40,0,0,0-1.47-12.2c-.85-2.94-1.72-5.82-4.18-8.72a15.45,15.45,0,0,0-5-4,16.72,16.72,0,0,0-6.91-1.6c-3.17-.21-3.29.37-8.62.76s-6.56,0-9.24,1a14.54,14.54,0,0,0-4.26,2.65" transform="translate(-17.56 -15.36)"/><path class="cls-2" d="M122.36,65.59A9.66,9.66,0,0,0,119,69a12.36,12.36,0,0,0-1.28,4.66,31.53,31.53,0,0,0,.6,9.69,32,32,0,0,0,9.76,16.49,34,34,0,0,0,7.93,5.56,20.5,20.5,0,0,0,9.41,1.91,30.15,30.15,0,0,0,9.42-2.15,21.1,21.1,0,0,0,8-5.26,21.82,21.82,0,0,0,4.92-8.23c1.05-3.07,1-6.36,1-9.6a40.58,40.58,0,0,0-.88-9.65,30.1,30.1,0,0,0-3.34-9,16,16,0,0,0-7.09-6.29A15.21,15.21,0,0,0,152.8,56,16.92,16.92,0,0,0,148,56a67.66,67.66,0,0,1-9.74.77,12.66,12.66,0,0,0-8.87,3.36l0,0a14.4,14.4,0,0,1,4.1-2.64,10.1,10.1,0,0,1,2.35-.7,20.08,20.08,0,0,1,2.44-.21,67,67,0,0,0,9.7-.86,17.56,17.56,0,0,1,4.91-.08,15.26,15.26,0,0,1,4.79,1.11,16.37,16.37,0,0,1,7.35,6.4A19.74,19.74,0,0,1,167,67.62a47.82,47.82,0,0,1,1.32,4.72,41,41,0,0,1,.87,9.75c0,3.24,0,6.59-1.07,9.73a22.24,22.24,0,0,1-5,8.38,21.66,21.66,0,0,1-8.18,5.32,30.38,30.38,0,0,1-9.54,2.13,20.65,20.65,0,0,1-9.54-2,34.58,34.58,0,0,1-8-5.63,32.3,32.3,0,0,1-9.74-16.65,31.48,31.48,0,0,1-.55-9.73A12.33,12.33,0,0,1,118.92,69a9.61,9.61,0,0,1,3.41-3.44Z" transform="translate(-17.56 -15.36)"/><path class="cls-1" d="M129.87,61.72a5.09,5.09,0,0,0-.9-2.28,10.82,10.82,0,0,0-2.49-2.95,10.06,10.06,0,0,0-3.33-1.79,10.49,10.49,0,0,0-4.11-.4,14,14,0,0,0-7.76,3.32c-2.27,1.87-3.37,3.91-4.81,6.56a26.14,26.14,0,0,0-2,4.62,25.59,25.59,0,0,0-1,4.7,4,4,0,0,1,1.66-2.45,4.32,4.32,0,0,1,1.38-.43,15.8,15.8,0,0,0,3.93-1.56c1.57-.82,1.25-1,2.91-2a16.48,16.48,0,0,1,4.34-1.72,15.42,15.42,0,0,1,4.13-.44c1.75.06,2.11.39,3.67.22a9.15,9.15,0,0,0,2.87-.9,2.63,2.63,0,0,0,1.34-1.13A2.41,2.41,0,0,0,129.87,61.72Z" transform="translate(-17.56 -15.36)"/><path class="cls-2" d="M129.85,61.72a10,10,0,0,0-6.79-7,11,11,0,0,0-5-.21,13.7,13.7,0,0,0-4.71,1.8,15.07,15.07,0,0,0-3.82,3.29,26.85,26.85,0,0,0-2.69,4.31,25,25,0,0,0-3.11,9.6l-.45-.09a5.12,5.12,0,0,1,.88-1.82,3,3,0,0,1,1.73-1.11,13.88,13.88,0,0,0,3.61-1.23,17.79,17.79,0,0,0,1.67-.91c.49-.34,1-.83,1.54-1.18a15.15,15.15,0,0,1,3.56-1.65A15.63,15.63,0,0,1,124,65a7.58,7.58,0,0,0,3.75-.58,5.07,5.07,0,0,0,1.64-.95A2.05,2.05,0,0,0,129.85,61.72Zm.05,0a2.15,2.15,0,0,1-.47,1.85,5.47,5.47,0,0,1-1.66,1,7.71,7.71,0,0,1-3.82.67,15.31,15.31,0,0,0-7.57.7A17.24,17.24,0,0,0,113,67.61c-.54.32-1,.78-1.54,1.17a15.37,15.37,0,0,1-1.73,1A14.39,14.39,0,0,1,106,71a3.26,3.26,0,0,0-2.28,2.57l-.44-.09a25.55,25.55,0,0,1,3.25-9.71,26.74,26.74,0,0,1,2.76-4.34,15,15,0,0,1,3.92-3.32A13.37,13.37,0,0,1,118,54.33a11,11,0,0,1,5.1.29A10.14,10.14,0,0,1,129.9,61.71Z" transform="translate(-17.56 -15.36)"/><path class="cls-1" d="M129.75,61.41a10.17,10.17,0,0,0,2.43,1.3,12.54,12.54,0,0,0,2.64.63,23.23,23.23,0,0,0,2.62.27" transform="translate(-17.56 -15.36)"/><path class="cls-2" d="M129.76,61.39a10.62,10.62,0,0,0,3.7,1.5c.65.11,1.33.18,2,.26a16.17,16.17,0,0,1,2,.44v0a14.16,14.16,0,0,1-2.06,0,10,10,0,0,1-2-.37,9.81,9.81,0,0,1-3.64-1.85Z" transform="translate(-17.56 -15.36)"/><path class="cls-3" d="M139,65.85a11.55,11.55,0,0,1-1.87-2.61,21.15,21.15,0,0,1-1.23-3.69c-.93-2.93-1.43-3.7-.95-4.52.35-.6,1.11-1.05,1.57-.87s.52.93.61,1.55c.21,1.48.82,2.88,1.12,4.34a18,18,0,0,0,2.13,5.37" transform="translate(-17.56 -15.36)"/><path class="cls-1" d="M125.86,78.12a9.91,9.91,0,0,1,.22-2.47,9.07,9.07,0,0,1,2-4.16c1.08-1.2,2.45-1.77,5.19-2.89,1.38-.57,2.88-1.09,3.86-1.42,1.21-.41,1.92-.67,3.34-1.2,1.71-.64,2.23-.87,2.67-1.42a4.86,4.86,0,0,0,.75-2.33,7.19,7.19,0,0,1,3.15-4.12" transform="translate(-17.56 -15.36)"/><path class="cls-2" d="M125.84,78.13a9.31,9.31,0,0,1,2.73-7.25,13.58,13.58,0,0,1,3.49-1.94c1.2-.54,2.45-1,3.69-1.45l3.7-1.39c.62-.22,1.25-.45,1.85-.69a4,4,0,0,0,1.61-.91,2.91,2.91,0,0,0,.7-1.67,5.58,5.58,0,0,1,.65-1.93,8.39,8.39,0,0,1,2.81-2.81l0,0a8.88,8.88,0,0,0-2.53,2.93A5.53,5.53,0,0,0,144,62.9a3.38,3.38,0,0,1-.75,1.94,4.74,4.74,0,0,1-1.79,1c-.62.24-1.24.46-1.87.68l-3.73,1.31c-1.24.45-2.49.85-3.71,1.37a13.19,13.19,0,0,0-3.44,1.83,9.13,9.13,0,0,0-2.85,7.05Z" transform="translate(-17.56 -15.36)"/><path class="cls-1" d="M148.44,61.52a7.33,7.33,0,0,1,3-.48,8.34,8.34,0,0,1,4.62,2,19.16,19.16,0,0,1,5.51,7.26,30.84,30.84,0,0,1,2.65,7.91" transform="translate(-17.56 -15.36)"/><path class="cls-2" d="M148.43,61.5A7.31,7.31,0,0,1,151.6,61a7.54,7.54,0,0,1,3.09,1,15.26,15.26,0,0,1,4.81,4.31,28.26,28.26,0,0,1,3.13,5.67,26.21,26.21,0,0,1,1.65,6.25h-.05a40.4,40.4,0,0,0-2.06-6.06c-.41-1-.89-1.94-1.38-2.89a22.28,22.28,0,0,0-1.62-2.75,14.9,14.9,0,0,0-4.61-4.33,7.35,7.35,0,0,0-3-1.05,7.16,7.16,0,0,0-3.14.43Z" transform="translate(-17.56 -15.36)"/><path class="cls-1" d="M135.48,98.45a25,25,0,0,0,2.09,2.88,20.14,20.14,0,0,0,3.69,3.55,13.26,13.26,0,0,0,7.58,2.26" transform="translate(-17.56 -15.36)"/><path class="cls-2" d="M135.5,98.44a27.09,27.09,0,0,0,2.57,3.28,19.17,19.17,0,0,0,3,2.81,13.92,13.92,0,0,0,3.69,1.76,20.92,20.92,0,0,0,4.05.82v0a12.13,12.13,0,0,1-4.19-.4,10.8,10.8,0,0,1-3.78-1.91,18.26,18.26,0,0,1-3-3,26.29,26.29,0,0,1-2.42-3.41Z" transform="translate(-17.56 -15.36)"/><path class="cls-1" d="M101.4,64.34a7,7,0,0,0-2.63.72c-.91.45-2.23,1.37-3.77,4.31a21.18,21.18,0,0,0-2.49,7.8,23.37,23.37,0,0,0,1.8,11.89,17.53,17.53,0,0,0,6,8.1,17.13,17.13,0,0,0,7.46,2.77,16.53,16.53,0,0,0,7.08-.15,15.74,15.74,0,0,0,6.76-3.71c1.84-1.72,2.69-3.36,4.09-6a28.62,28.62,0,0,0,3-8.24,15.37,15.37,0,0,0,.15-6.89A11,11,0,0,0,127,70.7a11.82,11.82,0,0,0-3.87-3.24c-2-1.16-2.22-.83-5.73-2.3s-4.16-2.15-6.21-2.33a10.36,10.36,0,0,0-3.57.31" transform="translate(-17.56 -15.36)"/><path class="cls-2" d="M101.4,64.36a6.75,6.75,0,0,0-3.25,1.1A8.82,8.82,0,0,0,95.84,68a22.35,22.35,0,0,0-2.73,6.35A22.82,22.82,0,0,0,94,88a24.58,24.58,0,0,0,3.25,6.09,14.56,14.56,0,0,0,5.36,4.23,21.43,21.43,0,0,0,6.67,1.66,15.14,15.14,0,0,0,6.78-.76,15.46,15.46,0,0,0,5.75-3.65,21.72,21.72,0,0,0,3.72-5.76,28.77,28.77,0,0,0,2.55-6.41,21.52,21.52,0,0,0,.8-6.8,11.45,11.45,0,0,0-2.46-6.26,10.8,10.8,0,0,0-2.59-2.21,12.52,12.52,0,0,0-3.06-1.53,47.84,47.84,0,0,1-6.45-2.67,9,9,0,0,0-6.71-.75v0a9.18,9.18,0,0,1,6.82.58,47.48,47.48,0,0,0,6.44,2.57A12.72,12.72,0,0,1,124,67.8a11,11,0,0,1,2.7,2.26,11.78,11.78,0,0,1,2.64,6.48,14.37,14.37,0,0,1-.12,3.53,34.32,34.32,0,0,1-.69,3.44A29,29,0,0,1,126,90a22.14,22.14,0,0,1-3.84,5.86,16.16,16.16,0,0,1-5.94,3.71,15.48,15.48,0,0,1-7,.74,21.58,21.58,0,0,1-6.77-1.73A14.69,14.69,0,0,1,97,94.24a24.16,24.16,0,0,1-3.26-6.17,22.16,22.16,0,0,1,2-20.12,8.67,8.67,0,0,1,2.35-2.55,6.92,6.92,0,0,1,3.29-1.09Z" transform="translate(-17.56 -15.36)"/><path class="cls-1" d="M67,83.94a9.88,9.88,0,0,0-2.84,2.57c-.84,1.14-1.91,3.13-2,7.78a29.72,29.72,0,0,0,1.84,11.33,32.67,32.67,0,0,0,9.78,13.73c2.7,2.23,6.62,5.48,12.64,6.32a24,24,0,0,0,11.08-1.26,23.15,23.15,0,0,0,8.76-4.68,21.83,21.83,0,0,0,6.1-8.93c1.22-3.32,1.24-5.9,1.28-10.15a40,40,0,0,0-1.46-12.21,21.59,21.59,0,0,0-4.18-8.71,15.38,15.38,0,0,0-5-4,16.58,16.58,0,0,0-6.9-1.61c-3.17-.2-3.3.38-8.62.77s-6.57-.06-9.25,1A14.53,14.53,0,0,0,74,78.51" transform="translate(-17.56 -15.36)"/><path class="cls-2" d="M67,84a9.63,9.63,0,0,0-3.37,3.43,12,12,0,0,0-1.28,4.66,31.24,31.24,0,0,0,.59,9.69,32,32,0,0,0,9.76,16.49,34.34,34.34,0,0,0,7.93,5.56,20.5,20.5,0,0,0,9.41,1.91,30.15,30.15,0,0,0,9.42-2.15,21.14,21.14,0,0,0,8-5.26,21.77,21.77,0,0,0,4.92-8.23c1-3.07,1-6.36,1-9.6a40.54,40.54,0,0,0-.89-9.65,30.1,30.1,0,0,0-3.34-9,16,16,0,0,0-7.09-6.3,15.19,15.19,0,0,0-4.67-1.12,17.29,17.29,0,0,0-4.82,0,66.27,66.27,0,0,1-9.74.78,12.71,12.71,0,0,0-8.87,3.35l0,0a14.54,14.54,0,0,1,4.1-2.64,10.1,10.1,0,0,1,2.35-.7,18.26,18.26,0,0,1,2.44-.21,68.28,68.28,0,0,0,9.7-.86A18,18,0,0,1,97.52,74a15.56,15.56,0,0,1,4.79,1.12,16.37,16.37,0,0,1,7.35,6.4A20.15,20.15,0,0,1,111.73,86c.5,1.56,1,3.12,1.32,4.73a41.5,41.5,0,0,1,.87,9.75c0,3.23,0,6.58-1.07,9.73a22.34,22.34,0,0,1-5,8.38,21.63,21.63,0,0,1-8.18,5.32A30.59,30.59,0,0,1,90.09,126a20.78,20.78,0,0,1-9.54-2,34.32,34.32,0,0,1-8-5.64,32.23,32.23,0,0,1-9.74-16.64A31.8,31.8,0,0,1,62.29,92a12.14,12.14,0,0,1,1.31-4.68A9.61,9.61,0,0,1,67,83.92Z" transform="translate(-17.56 -15.36)"/><path class="cls-1" d="M70.55,96.49A9.35,9.35,0,0,1,70.76,94a9.18,9.18,0,0,1,2-4.16c1.09-1.2,2.45-1.77,5.19-2.9,1.38-.57,2.89-1.08,3.86-1.41,1.21-.41,1.93-.68,3.35-1.21,1.71-.63,2.22-.86,2.66-1.41a4.86,4.86,0,0,0,.75-2.33,7.21,7.21,0,0,1,3.15-4.12" transform="translate(-17.56 -15.36)"/><path class="cls-2" d="M70.52,96.49a9.28,9.28,0,0,1,2.74-7.24,13.23,13.23,0,0,1,3.48-1.94c1.2-.54,2.46-1,3.69-1.45l3.71-1.39c.62-.23,1.24-.45,1.85-.69a4.17,4.17,0,0,0,1.6-.91,2.91,2.91,0,0,0,.7-1.67,5.58,5.58,0,0,1,.65-1.93,8.33,8.33,0,0,1,2.82-2.81l0,0a9,9,0,0,0-2.54,2.93,5.58,5.58,0,0,0-.53,1.83A3.4,3.4,0,0,1,88,83.2a4.6,4.6,0,0,1-1.8,1c-.62.25-1.24.47-1.86.69l-3.74,1.31c-1.24.44-2.49.85-3.7,1.37a13,13,0,0,0-3.45,1.83,9.18,9.18,0,0,0-2.85,7Z" transform="translate(-17.56 -15.36)"/><path class="cls-1" d="M93.12,79.89a7.36,7.36,0,0,1,3-.49,8.34,8.34,0,0,1,4.61,2,19.08,19.08,0,0,1,5.51,7.26,31.09,31.09,0,0,1,2.66,7.9" transform="translate(-17.56 -15.36)"/><path class="cls-2" d="M93.11,79.87a7.19,7.19,0,0,1,3.18-.53,7.63,7.63,0,0,1,3.08,1,15.3,15.3,0,0,1,4.81,4.32,28,28,0,0,1,3.13,5.67A25.63,25.63,0,0,1,109,96.56h0a39.79,39.79,0,0,0-2.06-6.07c-.41-1-.88-1.93-1.38-2.88a22.21,22.21,0,0,0-1.61-2.75,15.13,15.13,0,0,0-4.61-4.33,7.45,7.45,0,0,0-3-1.05,7.17,7.17,0,0,0-3.14.42Z" transform="translate(-17.56 -15.36)"/><path class="cls-3" d="M111.93,69.9a8.56,8.56,0,0,1-.34-2.26,15.32,15.32,0,0,1,.41-2.75c.35-2.17.28-2.81.85-3.18.41-.27,1-.31,1.27-.05s0,.76-.1,1.19c-.35,1-.41,2.09-.69,3.12a12.75,12.75,0,0,0-.38,4.1" transform="translate(-17.56 -15.36)"/><path class="cls-1" d="M99.59,73.46a7.05,7.05,0,0,1,.94-1.51,6.53,6.53,0,0,1,2.64-2c1.08-.42,2.13-.33,4.24-.17,1.06.08,2.18.24,2.91.35.9.13,1.44.19,2.52.31,1.29.14,1.69.17,2.15,0,.63-.29.83-.77,1.23-1.24a5.12,5.12,0,0,1,3.33-1.61" transform="translate(-17.56 -15.36)"/><path class="cls-2" d="M99.57,73.45a6.65,6.65,0,0,1,4.07-3.76,9.49,9.49,0,0,1,2.86-.12c.94,0,1.88.16,2.82.26l2.81.29,1.39.15a2.89,2.89,0,0,0,1.29,0,2,2,0,0,0,1-.81,4.08,4.08,0,0,1,1-1,5.85,5.85,0,0,1,2.73-.84v0A6.58,6.58,0,0,0,117,68.68a4.1,4.1,0,0,0-.91,1,2.48,2.48,0,0,1-1.12,1,3.33,3.33,0,0,1-1.52.1c-.47-.05-.93-.12-1.4-.18l-2.8-.39c-.93-.11-1.86-.26-2.8-.33a9.51,9.51,0,0,0-2.77,0,6.55,6.55,0,0,0-4.09,3.54Z" transform="translate(-17.56 -15.36)"/><path class="cls-1" d="M119.31,70.18a5.12,5.12,0,0,1,2.09.67,6,6,0,0,1,2.29,2.75,13.55,13.55,0,0,1,1.16,6.4,21.93,21.93,0,0,1-.86,5.89" transform="translate(-17.56 -15.36)"/><path class="cls-2" d="M119.31,70.15a5.19,5.19,0,0,1,2.2.68,5.38,5.38,0,0,1,1.67,1.62,11,11,0,0,1,1.69,4.31,18.9,18.9,0,0,1,.18,4.63,17.22,17.22,0,0,1-1,4.5h0a31.72,31.72,0,0,0,.58-4.53,27.4,27.4,0,0,0-.07-4.53A10.64,10.64,0,0,0,123,72.59a4.83,4.83,0,0,0-3.66-2.39Z" transform="translate(-17.56 -15.36)"/><path class="cls-1" d="M130.84,82.67a7.18,7.18,0,0,0-2.73-.21c-1,.12-2.55.53-5,2.78a21.09,21.09,0,0,0-5,6.49,23.31,23.31,0,0,0-2.34,11.8,15.87,15.87,0,0,0,9,14.79,16.38,16.38,0,0,0,6.71,2.25,15.64,15.64,0,0,0,7.63-1.2c2.32-1,3.67-2.24,5.9-4.3a28.65,28.65,0,0,0,5.61-6.73,15.28,15.28,0,0,0,2.48-6.43,11.06,11.06,0,0,0-.33-4.57A11.81,11.81,0,0,0,150.21,93c-1.45-1.75-1.8-1.53-4.61-4.1s-3.19-3.44-5-4.31a10.68,10.68,0,0,0-3.46-.91" transform="translate(-17.56 -15.36)"/><path class="cls-2" d="M130.83,82.7a6.76,6.76,0,0,0-3.43-.07,8.61,8.61,0,0,0-3,1.61,22.24,22.24,0,0,0-4.73,5.05,22.82,22.82,0,0,0-3.77,13.12,24.17,24.17,0,0,0,1,6.83,14.56,14.56,0,0,0,3.6,5.8,21.51,21.51,0,0,0,5.72,3.82,15,15,0,0,0,6.63,1.58,15.59,15.59,0,0,0,6.65-1.48,21.9,21.9,0,0,0,5.46-4.16,29,29,0,0,0,4.56-5.16,21.18,21.18,0,0,0,3-6.13,11.32,11.32,0,0,0-.18-6.72,10.76,10.76,0,0,0-1.69-3,12.4,12.4,0,0,0-2.36-2.49,47.88,47.88,0,0,1-5.17-4.69,9,9,0,0,0-6-3v-.05a9.17,9.17,0,0,1,6.22,2.86,47.15,47.15,0,0,0,5.19,4.6A13,13,0,0,1,151,93.6a11.09,11.09,0,0,1,1.78,3.05,11.71,11.71,0,0,1,.29,7,14.17,14.17,0,0,1-1.32,3.28c-.56,1-1.14,2-1.8,3a29.73,29.73,0,0,1-4.65,5.24,21.86,21.86,0,0,1-5.6,4.2,15.87,15.87,0,0,1-6.84,1.48,15.38,15.38,0,0,1-6.79-1.65,21.85,21.85,0,0,1-5.78-3.92,15,15,0,0,1-3.66-5.94,24.54,24.54,0,0,1-1-6.91,23,23,0,0,1,3.89-13.21,22.75,22.75,0,0,1,4.79-5,8.87,8.87,0,0,1,3.09-1.61,7,7,0,0,1,3.45.1Z" transform="translate(-17.56 -15.36)"/><path class="cls-1" d="M86.35,107.92a10,10,0,0,0-2.84,2.57c-.84,1.14-1.91,3.13-2,7.78a29.72,29.72,0,0,0,1.84,11.33,32.67,32.67,0,0,0,9.78,13.73c2.69,2.23,6.62,5.48,12.64,6.32a24,24,0,0,0,11.08-1.26,23.25,23.25,0,0,0,8.76-4.67,21.91,21.91,0,0,0,6.1-8.94c1.22-3.31,1.24-5.9,1.28-10.15a40,40,0,0,0-1.46-12.2c-.86-2.94-1.73-5.82-4.18-8.72a15.51,15.51,0,0,0-5-4,16.4,16.4,0,0,0-6.9-1.6c-3.17-.21-3.3.37-8.62.76s-6.57-.06-9.25,1a14.33,14.33,0,0,0-4.25,2.65" transform="translate(-17.56 -15.36)"/><path class="cls-2" d="M86.36,107.94A9.74,9.74,0,0,0,83,111.37,12.36,12.36,0,0,0,81.7,116a31.55,31.55,0,0,0,.6,9.69,32,32,0,0,0,9.76,16.49,34.34,34.34,0,0,0,7.93,5.56,20.5,20.5,0,0,0,9.41,1.91,30.15,30.15,0,0,0,9.42-2.15,21.21,21.21,0,0,0,8-5.26,21.69,21.69,0,0,0,4.92-8.23c1.05-3.07,1-6.36,1-9.6a41.06,41.06,0,0,0-.89-9.65,30.1,30.1,0,0,0-3.34-9,16,16,0,0,0-7.09-6.3,15.19,15.19,0,0,0-4.67-1.12,16.92,16.92,0,0,0-4.82,0,67.66,67.66,0,0,1-9.74.77,12.68,12.68,0,0,0-8.87,3.36l0,0a14.54,14.54,0,0,1,4.1-2.64,10.1,10.1,0,0,1,2.35-.7,20.08,20.08,0,0,1,2.44-.21,68.41,68.41,0,0,0,9.7-.86,17.56,17.56,0,0,1,4.91-.08,15.26,15.26,0,0,1,4.79,1.11,16.37,16.37,0,0,1,7.35,6.4,20.22,20.22,0,0,1,2.07,4.48c.5,1.55,1,3.12,1.32,4.72a41.55,41.55,0,0,1,.87,9.75c0,3.23,0,6.59-1.07,9.73a22.34,22.34,0,0,1-5,8.38,21.51,21.51,0,0,1-8.18,5.32,30.31,30.31,0,0,1-9.54,2.13,20.78,20.78,0,0,1-9.54-2,34.58,34.58,0,0,1-8-5.63,32.3,32.3,0,0,1-9.74-16.65,31.79,31.79,0,0,1-.54-9.73,12.14,12.14,0,0,1,1.31-4.68,9.61,9.61,0,0,1,3.41-3.44Z" transform="translate(-17.56 -15.36)"/><path class="cls-1" d="M114.16,123.17a9.88,9.88,0,0,0-2.84,2.57c-.85,1.14-1.91,3.13-2,7.78a29.52,29.52,0,0,0,1.84,11.33A32.67,32.67,0,0,0,121,158.58c2.69,2.23,6.62,5.48,12.64,6.32a24,24,0,0,0,11.08-1.26,23.15,23.15,0,0,0,8.76-4.68,21.93,21.93,0,0,0,6.1-8.93c1.22-3.32,1.24-5.9,1.28-10.15a40,40,0,0,0-1.46-12.21c-.86-2.93-1.73-5.81-4.18-8.71a15.5,15.5,0,0,0-5-4,16.58,16.58,0,0,0-6.9-1.61c-3.18-.2-3.3.38-8.62.77s-6.57-.06-9.25,1a14.53,14.53,0,0,0-4.25,2.66" transform="translate(-17.56 -15.36)"/><path class="cls-2" d="M114.17,123.19a9.74,9.74,0,0,0-3.38,3.43,12.36,12.36,0,0,0-1.28,4.66,31.55,31.55,0,0,0,.6,9.69,32,32,0,0,0,9.76,16.49A34.34,34.34,0,0,0,127.8,163a20.5,20.5,0,0,0,9.41,1.91,30.15,30.15,0,0,0,9.42-2.15,21.21,21.21,0,0,0,8-5.26,21.77,21.77,0,0,0,4.92-8.23c1.05-3.07,1-6.36,1-9.6a41.06,41.06,0,0,0-.89-9.65,30.1,30.1,0,0,0-3.34-9,16,16,0,0,0-7.09-6.3,15.19,15.19,0,0,0-4.67-1.12,17.29,17.29,0,0,0-4.82,0,66.27,66.27,0,0,1-9.74.78,12.71,12.71,0,0,0-8.87,3.35l0,0a14.54,14.54,0,0,1,4.1-2.64,10.1,10.1,0,0,1,2.35-.7,18.26,18.26,0,0,1,2.44-.21,68.41,68.41,0,0,0,9.7-.86,18,18,0,0,1,4.91-.09,15.56,15.56,0,0,1,4.79,1.12,16.37,16.37,0,0,1,7.35,6.4,20,20,0,0,1,2.07,4.48c.5,1.55,1,3.11,1.32,4.72a42,42,0,0,1,.87,9.75c-.05,3.23,0,6.58-1.07,9.73a22.34,22.34,0,0,1-5,8.38,21.71,21.71,0,0,1-8.18,5.32,30.59,30.59,0,0,1-9.54,2.13,20.78,20.78,0,0,1-9.54-2,34.32,34.32,0,0,1-8-5.64,31.06,31.06,0,0,1-10.29-26.37,12.33,12.33,0,0,1,1.32-4.68,9.61,9.61,0,0,1,3.41-3.44Z" transform="translate(-17.56 -15.36)"/><path class="cls-1" d="M80.16,116.82a24.44,24.44,0,0,0,2.1,2.87,19.39,19.39,0,0,0,3.68,3.56,13.19,13.19,0,0,0,7.58,2.25" transform="translate(-17.56 -15.36)"/><path class="cls-2" d="M80.18,116.81a28.12,28.12,0,0,0,2.57,3.28,19.23,19.23,0,0,0,3,2.81,13.53,13.53,0,0,0,3.68,1.75,20.36,20.36,0,0,0,4,.83v0a12.15,12.15,0,0,1-4.19-.4,10.8,10.8,0,0,1-3.78-1.91,20,20,0,0,1-3-3,27.1,27.1,0,0,1-2.42-3.42Z" transform="translate(-17.56 -15.36)"/><path class="cls-1" d="M99.15,89.49A18,18,0,0,0,99.56,92a14.14,14.14,0,0,0,1.19,3.45,9.6,9.6,0,0,0,4.1,3.88" transform="translate(-17.56 -15.36)"/><path class="cls-2" d="M99.18,89.49c.2,1,.35,2,.6,2.91a13.79,13.79,0,0,0,1,2.75,10.08,10.08,0,0,0,1.78,2.28,18,18,0,0,0,2.26,1.88l0,0a8,8,0,0,1-2.58-1.56,7.49,7.49,0,0,1-1.79-2.46,13.54,13.54,0,0,1-.93-2.87c-.19-1-.27-2-.41-3Z" transform="translate(-17.56 -15.36)"/><path class="cls-3" d="M138.86,91.47a8.35,8.35,0,0,1,.44-2.24,15.18,15.18,0,0,1,1.32-2.45c1.06-1.92,1.21-2.55,1.88-2.7.48-.12,1.08.06,1.21.39s-.22.73-.5,1.08c-.67.83-1.09,1.83-1.7,2.7A12.78,12.78,0,0,0,139.76,92" transform="translate(-17.56 -15.36)"/><path class="cls-1" d="M126,90.64a6.78,6.78,0,0,1,1.39-1.1,6.57,6.57,0,0,1,3.17-1c1.15,0,2.11.41,4,1.28,1,.43,2,1,2.62,1.31.81.43,1.29.67,2.26,1.15,1.17.57,1.54.73,2,.69a3.52,3.52,0,0,0,1.58-.75,5.08,5.08,0,0,1,3.67-.38" transform="translate(-17.56 -15.36)"/><path class="cls-2" d="M126,90.62a6.66,6.66,0,0,1,5.1-2.15,9.44,9.44,0,0,1,2.73.85c.87.36,1.71.79,2.56,1.2L139,91.75l1.26.61a2.8,2.8,0,0,0,1.22.39,2,2,0,0,0,1.18-.43,3.86,3.86,0,0,1,1.34-.6,5.84,5.84,0,0,1,2.85.12v0a6.68,6.68,0,0,0-2.75.16,4,4,0,0,0-1.19.62,2.4,2.4,0,0,1-1.4.58,3.24,3.24,0,0,1-1.46-.42c-.43-.2-.85-.42-1.26-.64l-2.5-1.31c-.84-.43-1.66-.88-2.52-1.26a9.47,9.47,0,0,0-2.62-.9,6.49,6.49,0,0,0-5.05,1.94Z" transform="translate(-17.56 -15.36)"/><path class="cls-1" d="M145.71,94.24a5.1,5.1,0,0,1,1.73,1.33,5.93,5.93,0,0,1,1.23,3.37,13.52,13.52,0,0,1-1.08,6.41,21.73,21.73,0,0,1-2.8,5.25" transform="translate(-17.56 -15.36)"/><path class="cls-2" d="M145.72,94.21a5.22,5.22,0,0,1,1.84,1.39,5.45,5.45,0,0,1,1,2.08,11,11,0,0,1,.14,4.63,18.83,18.83,0,0,1-1.41,4.42,16.84,16.84,0,0,1-2.49,3.89l0,0a33.08,33.08,0,0,0,2.08-4.06,27.5,27.5,0,0,0,1.47-4.29,10.67,10.67,0,0,0,0-4.5,5.15,5.15,0,0,0-.89-2,5,5,0,0,0-1.74-1.43Z" transform="translate(-17.56 -15.36)"/><path class="cls-1" d="M47.34,111.26a10.31,10.31,0,0,0-2.84,2.57c-.84,1.14-1.9,3.13-2,7.78a29.93,29.93,0,0,0,1.84,11.33,32.76,32.76,0,0,0,9.79,13.73c2.69,2.23,6.62,5.48,12.64,6.32a24.11,24.11,0,0,0,11.08-1.25,23.2,23.2,0,0,0,8.75-4.68,22.06,22.06,0,0,0,6.11-8.94C93.94,134.81,94,132.22,94,128a40,40,0,0,0-1.47-12.2c-.85-2.94-1.72-5.82-4.18-8.72a15.45,15.45,0,0,0-5-4,16.56,16.56,0,0,0-6.91-1.6c-3.17-.21-3.29.37-8.62.76s-6.56,0-9.24,1a14.54,14.54,0,0,0-4.26,2.65" transform="translate(-17.56 -15.36)"/><path class="cls-2" d="M47.36,111.28A9.66,9.66,0,0,0,44,114.71a12.36,12.36,0,0,0-1.28,4.66,31.53,31.53,0,0,0,.6,9.69,32,32,0,0,0,9.76,16.49A34.34,34.34,0,0,0,61,151.11,20.5,20.5,0,0,0,70.4,153a30.15,30.15,0,0,0,9.42-2.15,21.1,21.1,0,0,0,8-5.26,21.82,21.82,0,0,0,4.92-8.23c1-3.07,1-6.36,1-9.6a40.53,40.53,0,0,0-.88-9.65,30.1,30.1,0,0,0-3.34-9,16,16,0,0,0-7.09-6.29,15.21,15.21,0,0,0-4.67-1.13,16.92,16.92,0,0,0-4.82,0,67.66,67.66,0,0,1-9.74.77,12.66,12.66,0,0,0-8.87,3.36l0,0a14.4,14.4,0,0,1,4.1-2.64,10.1,10.1,0,0,1,2.35-.7,20.08,20.08,0,0,1,2.44-.21,67,67,0,0,0,9.7-.86,17.56,17.56,0,0,1,4.91-.08,15.26,15.26,0,0,1,4.79,1.11,16.37,16.37,0,0,1,7.35,6.4A19.74,19.74,0,0,1,92,113.31,47.82,47.82,0,0,1,93.36,118a41,41,0,0,1,.87,9.75c0,3.24,0,6.59-1.07,9.73a22.24,22.24,0,0,1-5,8.38A21.66,21.66,0,0,1,80,151.21a30.38,30.38,0,0,1-9.54,2.13,20.78,20.78,0,0,1-9.54-2,34.58,34.58,0,0,1-8-5.63,32.3,32.3,0,0,1-9.74-16.65,31.48,31.48,0,0,1-.55-9.73,12.33,12.33,0,0,1,1.32-4.68,9.61,9.61,0,0,1,3.41-3.44Z" transform="translate(-17.56 -15.36)"/><path class="cls-1" d="M54.87,107.41a5.09,5.09,0,0,0-.9-2.28,10.82,10.82,0,0,0-2.49-2.95,10.06,10.06,0,0,0-3.33-1.79A10.49,10.49,0,0,0,44,100a14,14,0,0,0-7.76,3.32c-2.27,1.87-3.37,3.91-4.81,6.56a26.14,26.14,0,0,0-2,4.62,25.59,25.59,0,0,0-1,4.7,4,4,0,0,1,1.66-2.45,4.32,4.32,0,0,1,1.38-.43,15.8,15.8,0,0,0,3.93-1.56c1.57-.82,1.25-1,2.91-2A16.48,16.48,0,0,1,42.69,111a15.42,15.42,0,0,1,4.13-.44c1.75.06,2.11.39,3.67.22a9.15,9.15,0,0,0,2.87-.9,2.63,2.63,0,0,0,1.34-1.13A2.41,2.41,0,0,0,54.87,107.41Z" transform="translate(-17.56 -15.36)"/><path class="cls-2" d="M54.85,107.41a10,10,0,0,0-6.79-7,11,11,0,0,0-5-.21,13.7,13.7,0,0,0-4.71,1.8,15.07,15.07,0,0,0-3.82,3.29,26.85,26.85,0,0,0-2.69,4.31,25,25,0,0,0-3.11,9.59l-.45-.08a5.12,5.12,0,0,1,.88-1.82,3,3,0,0,1,1.73-1.11A13.88,13.88,0,0,0,34.47,115a17.79,17.79,0,0,0,1.67-.91c.49-.34,1-.84,1.54-1.18a15.15,15.15,0,0,1,3.56-1.65,15.63,15.63,0,0,1,7.73-.52,7.58,7.58,0,0,0,3.75-.58,5.26,5.26,0,0,0,1.64-.95A2.05,2.05,0,0,0,54.85,107.41Zm0,0a2.15,2.15,0,0,1-.47,1.85,5.47,5.47,0,0,1-1.66,1,7.71,7.71,0,0,1-3.82.67,15.31,15.31,0,0,0-7.57.7A17.24,17.24,0,0,0,38,113.3c-.54.32-1,.78-1.54,1.17a15.37,15.37,0,0,1-1.73,1A14.39,14.39,0,0,1,31,116.68a3.26,3.26,0,0,0-2.28,2.57l-.44-.09a25.55,25.55,0,0,1,3.25-9.71,26.74,26.74,0,0,1,2.76-4.34,15,15,0,0,1,3.92-3.32A13.37,13.37,0,0,1,43,100a11,11,0,0,1,5.1.29A10.14,10.14,0,0,1,54.9,107.4Z" transform="translate(-17.56 -15.36)"/><path class="cls-1" d="M54.75,107.1a10.17,10.17,0,0,0,2.43,1.3,12.54,12.54,0,0,0,2.64.63,23.23,23.23,0,0,0,2.62.27" transform="translate(-17.56 -15.36)"/><path class="cls-2" d="M54.76,107.08a10.62,10.62,0,0,0,3.7,1.5c.65.11,1.33.18,2,.26a16.17,16.17,0,0,1,2,.44v0a14.16,14.16,0,0,1-2.06,0,10,10,0,0,1-2-.37,9.81,9.81,0,0,1-3.64-1.85Z" transform="translate(-17.56 -15.36)"/><path class="cls-3" d="M64,111.54a11.55,11.55,0,0,1-1.87-2.61,21.15,21.15,0,0,1-1.23-3.69c-.93-2.94-1.43-3.7-.95-4.52.35-.6,1.11-1,1.57-.87s.52.93.61,1.55c.21,1.48.82,2.88,1.12,4.34a18,18,0,0,0,2.13,5.37" transform="translate(-17.56 -15.36)"/><path class="cls-1" d="M50.86,123.81a9.91,9.91,0,0,1,.22-2.47,9.07,9.07,0,0,1,2.05-4.16c1.08-1.2,2.45-1.77,5.19-2.9,1.38-.56,2.88-1.08,3.86-1.41,1.21-.41,1.92-.67,3.34-1.2,1.71-.64,2.23-.87,2.67-1.42a4.86,4.86,0,0,0,.75-2.33,7.19,7.19,0,0,1,3.15-4.12" transform="translate(-17.56 -15.36)"/><path class="cls-2" d="M50.84,123.82a9.31,9.31,0,0,1,2.73-7.25,13.58,13.58,0,0,1,3.49-1.94c1.2-.54,2.45-1,3.69-1.45l3.7-1.39c.62-.22,1.25-.45,1.85-.69a4,4,0,0,0,1.61-.91,2.91,2.91,0,0,0,.7-1.67,5.58,5.58,0,0,1,.65-1.93,8.39,8.39,0,0,1,2.81-2.81l0,0a9,9,0,0,0-2.53,2.94,5.53,5.53,0,0,0-.54,1.83,3.38,3.38,0,0,1-.75,1.94,4.74,4.74,0,0,1-1.79,1c-.62.24-1.24.46-1.87.68l-3.73,1.31c-1.24.45-2.49.85-3.71,1.37a13.19,13.19,0,0,0-3.44,1.83,9.13,9.13,0,0,0-2.85,7Z" transform="translate(-17.56 -15.36)"/><path class="cls-1" d="M73.44,107.21a7.33,7.33,0,0,1,3-.48,8.34,8.34,0,0,1,4.62,2A19.16,19.16,0,0,1,86.6,116a30.84,30.84,0,0,1,2.65,7.91" transform="translate(-17.56 -15.36)"/><path class="cls-2" d="M73.43,107.19a7.31,7.31,0,0,1,3.17-.53,7.67,7.67,0,0,1,3.09,1A15.41,15.41,0,0,1,84.5,112a28.26,28.26,0,0,1,3.13,5.67,26.21,26.21,0,0,1,1.65,6.25h0a40.4,40.4,0,0,0-2.06-6.06c-.41-1-.89-1.94-1.38-2.89a22.28,22.28,0,0,0-1.62-2.75,14.9,14.9,0,0,0-4.61-4.33,7.35,7.35,0,0,0-3-1,7.16,7.16,0,0,0-3.14.43Z" transform="translate(-17.56 -15.36)"/><path class="cls-1" d="M60.48,144.14A25,25,0,0,0,62.57,147a20.14,20.14,0,0,0,3.69,3.55,13.19,13.19,0,0,0,7.58,2.25" transform="translate(-17.56 -15.36)"/><path class="cls-2" d="M60.5,144.13a27.09,27.09,0,0,0,2.57,3.28,19.17,19.17,0,0,0,3,2.81A13.59,13.59,0,0,0,69.79,152a20.21,20.21,0,0,0,4,.83v0a12.13,12.13,0,0,1-4.19-.4,10.8,10.8,0,0,1-3.78-1.91,18.67,18.67,0,0,1-3-3,26.29,26.29,0,0,1-2.42-3.41Z" transform="translate(-17.56 -15.36)"/><path class="cls-1" d="M184,100.66a6.66,6.66,0,0,1,2.45.67c.85.42,2.07,1.28,3.51,4a19.77,19.77,0,0,1,2.32,7.27,21.75,21.75,0,0,1-1.68,11.07,16.18,16.18,0,0,1-5.59,7.54,15.94,15.94,0,0,1-6.94,2.59,15.24,15.24,0,0,1-6.59-.15,14.52,14.52,0,0,1-6.3-3.45c-1.72-1.6-2.51-3.13-3.81-5.64a26.42,26.42,0,0,1-2.8-7.67,14.42,14.42,0,0,1-.14-6.41,10.25,10.25,0,0,1,1.74-3.9,11,11,0,0,1,3.61-3c1.82-1.07,2.06-.77,5.34-2.13s3.87-2,5.78-2.18a10,10,0,0,1,3.31.29" transform="translate(-17.56 -15.36)"/><path class="cls-2" d="M184,100.63a6.43,6.43,0,0,1,3.06,1,8.33,8.33,0,0,1,2.2,2.38,20.85,20.85,0,0,1,2.6,5.94,21.38,21.38,0,0,1-.75,12.8,22.8,22.8,0,0,1-3,5.75,13.84,13.84,0,0,1-5.07,4.06,20.3,20.3,0,0,1-6.31,1.61,14.41,14.41,0,0,1-6.48-.69,14.87,14.87,0,0,1-5.53-3.46,20.6,20.6,0,0,1-3.59-5.45,27.44,27.44,0,0,1-2.41-6.07,20.23,20.23,0,0,1-.75-6.49,11,11,0,0,1,2.46-6,10.18,10.18,0,0,1,2.52-2.11,12.35,12.35,0,0,1,2.95-1.42,45,45,0,0,0,6-2.39,8.58,8.58,0,0,1,6.35-.54v0a8.43,8.43,0,0,0-6.25.7,44.29,44.29,0,0,1-6,2.48,11.54,11.54,0,0,0-2.85,1.43,10.36,10.36,0,0,0-2.41,2.06,10.64,10.64,0,0,0-2.28,5.83,20,20,0,0,0,.74,6.32,27.54,27.54,0,0,0,2.37,6,20.12,20.12,0,0,0,3.46,5.36,14.41,14.41,0,0,0,5.36,3.4,14,14,0,0,0,6.3.71,19.75,19.75,0,0,0,6.21-1.55,13.58,13.58,0,0,0,5-3.93,23.35,23.35,0,0,0,3-5.66,21.34,21.34,0,0,0,.84-12.69,21,21,0,0,0-2.55-5.91A8.16,8.16,0,0,0,187,101.7a6.47,6.47,0,0,0-3-1Z" transform="translate(-17.56 -15.36)"/><path class="cls-1" d="M216,118.91a9.32,9.32,0,0,1,2.64,2.4c.79,1.06,1.78,2.91,1.85,7.24a27.65,27.65,0,0,1-1.72,10.55,30.54,30.54,0,0,1-9.11,12.79c-2.5,2.07-6.16,5.1-11.77,5.88a22.3,22.3,0,0,1-10.31-1.17,21.5,21.5,0,0,1-8.16-4.35,20.45,20.45,0,0,1-5.68-8.32c-1.13-3.09-1.16-5.5-1.19-9.46a36.76,36.76,0,0,1,1.36-11.36,20,20,0,0,1,3.89-8.12,14.39,14.39,0,0,1,4.64-3.77,15.42,15.42,0,0,1,6.43-1.49c3-.19,3.07.34,8,.71s6.11,0,8.61.94a13.5,13.5,0,0,1,4,2.47" transform="translate(-17.56 -15.36)"/><path class="cls-2" d="M216,118.89a9,9,0,0,1,3.18,3.2,11.48,11.48,0,0,1,1.23,4.37,29.34,29.34,0,0,1-.51,9.06A30,30,0,0,1,210.8,151a31.93,31.93,0,0,1-7.43,5.25,19.2,19.2,0,0,1-8.89,1.84,28.32,28.32,0,0,1-8.89-2,20.21,20.21,0,0,1-7.62-5,20.82,20.82,0,0,1-4.7-7.81c-1-2.93-1-6.05-1-9.06a38.57,38.57,0,0,1,.82-9.09c.33-1.49.76-2.95,1.23-4.4a19,19,0,0,1,1.93-4.17,15.36,15.36,0,0,1,6.86-6,14.4,14.4,0,0,1,4.46-1,16.73,16.73,0,0,1,4.58.08,63.38,63.38,0,0,0,9,.8,11.18,11.18,0,0,1,4.46.86,13.34,13.34,0,0,1,3.82,2.45l0,0a11.85,11.85,0,0,0-8.26-3.12,61.17,61.17,0,0,1-9.07-.72,16.46,16.46,0,0,0-4.49,0,14.29,14.29,0,0,0-4.34,1,14.93,14.93,0,0,0-6.6,5.86,28.33,28.33,0,0,0-3.1,8.41,38,38,0,0,0-.81,9c0,3,0,6.07.94,8.92a20.27,20.27,0,0,0,4.57,7.67,19.76,19.76,0,0,0,7.46,4.9,28.38,28.38,0,0,0,8.77,2,19.05,19.05,0,0,0,8.76-1.78,32,32,0,0,0,7.38-5.17,29.78,29.78,0,0,0,9.09-15.36,29.3,29.3,0,0,0,.56-9,11.46,11.46,0,0,0-1.19-4.34,9,9,0,0,0-3.14-3.2Z" transform="translate(-17.56 -15.36)"/><path class="cls-1" d="M212.68,130.6a9,9,0,0,0-2.11-6.18c-1-1.11-2.28-1.64-4.83-2.69-1.28-.53-2.69-1-3.6-1.32-1.12-.38-1.79-.63-3.11-1.12-1.59-.59-2.07-.8-2.48-1.32a4.52,4.52,0,0,1-.7-2.17,6.7,6.7,0,0,0-2.93-3.83" transform="translate(-17.56 -15.36)"/><path class="cls-2" d="M212.66,130.6A8.52,8.52,0,0,0,210,124a12.17,12.17,0,0,0-3.21-1.7c-1.13-.48-2.29-.86-3.45-1.27l-3.48-1.22c-.58-.21-1.16-.41-1.73-.64a4.24,4.24,0,0,1-1.68-1,3.11,3.11,0,0,1-.7-1.82,5.28,5.28,0,0,0-.49-1.7A8.32,8.32,0,0,0,192.9,112l0,0a7.64,7.64,0,0,1,2.63,2.61,5.06,5.06,0,0,1,.61,1.8,2.72,2.72,0,0,0,.65,1.55,3.92,3.92,0,0,0,1.49.84l1.72.64,3.45,1.3c1.15.44,2.32.85,3.44,1.35a12.44,12.44,0,0,1,3.24,1.81,8.68,8.68,0,0,1,2.55,6.75Z" transform="translate(-17.56 -15.36)"/><path class="cls-1" d="M191.66,115.14a6.81,6.81,0,0,0-2.83-.45,7.77,7.77,0,0,0-4.29,1.86,17.68,17.68,0,0,0-5.13,6.75,29,29,0,0,0-2.48,7.37" transform="translate(-17.56 -15.36)"/><path class="cls-2" d="M191.65,115.17a6.65,6.65,0,0,0-2.93-.4,6.9,6.9,0,0,0-2.76,1,13.87,13.87,0,0,0-4.29,4,34.09,34.09,0,0,0-2.78,5.24,37.87,37.87,0,0,0-1.93,5.64h-.05a23.67,23.67,0,0,1,1.52-5.82,25.76,25.76,0,0,1,2.92-5.29,14.26,14.26,0,0,1,4.49-4,7.07,7.07,0,0,1,2.87-.92,6.8,6.8,0,0,1,3,.5Z" transform="translate(-17.56 -15.36)"/><path class="cls-3" d="M174.14,105.84a7.5,7.5,0,0,0,.33-2.11,14.67,14.67,0,0,0-.39-2.56c-.32-2-.26-2.62-.79-3s-1-.29-1.19,0,0,.71.1,1.1c.32.94.38,2,.64,2.91a11.75,11.75,0,0,1,.35,3.82" transform="translate(-17.56 -15.36)"/><path class="cls-1" d="M185.64,109.15a6.73,6.73,0,0,0-.87-1.4,6.1,6.1,0,0,0-2.47-1.85c-1-.38-2-.31-3.94-.15-1,.07-2,.22-2.72.32-.84.12-1.34.18-2.34.29-1.2.13-1.58.16-2,0-.59-.27-.77-.71-1.15-1.15a4.77,4.77,0,0,0-3.1-1.5" transform="translate(-17.56 -15.36)"/><path class="cls-2" d="M185.61,109.16a6,6,0,0,0-3.81-3.28,8.83,8.83,0,0,0-2.57,0c-.88.06-1.74.2-2.61.31l-2.6.37c-.44.06-.87.12-1.31.16a3.16,3.16,0,0,1-1.42-.09,2.34,2.34,0,0,1-1-1,3.89,3.89,0,0,0-.84-.92,6,6,0,0,0-2.35-1v0a5.35,5.35,0,0,1,2.55.78,3.73,3.73,0,0,1,1,.95,1.87,1.87,0,0,0,.88.74,2.74,2.74,0,0,0,1.19,0L174,106l2.62-.27c.87-.09,1.75-.21,2.62-.24a8.81,8.81,0,0,1,2.66.12,6.19,6.19,0,0,1,3.8,3.5Z" transform="translate(-17.56 -15.36)"/><path class="cls-1" d="M167.27,106.1a4.79,4.79,0,0,0-1.94.62,5.64,5.64,0,0,0-2.14,2.57,12.67,12.67,0,0,0-1.08,5.95,20.51,20.51,0,0,0,.8,5.49" transform="translate(-17.56 -15.36)"/><path class="cls-2" d="M167.28,106.12a4.76,4.76,0,0,0-2,.71,5,5,0,0,0-1.43,1.52,9.85,9.85,0,0,0-1.39,3.93,24.77,24.77,0,0,0-.07,4.22,30.42,30.42,0,0,0,.53,4.22h-.05a16.21,16.21,0,0,1-.81-8.51,10.21,10.21,0,0,1,1.59-4,5.08,5.08,0,0,1,1.55-1.51,4.85,4.85,0,0,1,2.05-.63Z" transform="translate(-17.56 -15.36)"/><path class="cls-1" d="M156.54,117.73a6.83,6.83,0,0,1,2.54-.2c.93.11,2.37.5,4.66,2.59a19.87,19.87,0,0,1,4.64,6,21.78,21.78,0,0,1,2.17,11,16.38,16.38,0,0,1-2.7,9,16,16,0,0,1-5.65,4.78,15.57,15.57,0,0,1-6.26,2.1,14.55,14.55,0,0,1-7.09-1.12c-2.16-.92-3.42-2.09-5.5-4a26.48,26.48,0,0,1-5.23-6.27,14.34,14.34,0,0,1-2.31-6,10.19,10.19,0,0,1,.32-4.25,11,11,0,0,1,2.37-4.07c1.34-1.63,1.68-1.43,4.29-3.82s3-3.2,4.71-4a9.38,9.38,0,0,1,3.22-.84" transform="translate(-17.56 -15.36)"/><path class="cls-2" d="M156.53,117.71a6.39,6.39,0,0,1,3.22-.09,8.13,8.13,0,0,1,2.87,1.5,21.16,21.16,0,0,1,4.47,4.69,21.53,21.53,0,0,1,3.63,12.31,23.09,23.09,0,0,1-.91,6.44,13.8,13.8,0,0,1-3.4,5.53,20.14,20.14,0,0,1-5.39,3.66,14.31,14.31,0,0,1-6.33,1.54,14.83,14.83,0,0,1-6.38-1.37,21,21,0,0,1-5.22-3.92,27.23,27.23,0,0,1-4.32-4.89,20.27,20.27,0,0,1-2.91-5.85,11,11,0,0,1,.27-6.52,10.23,10.23,0,0,1,1.66-2.84,12.08,12.08,0,0,1,2.29-2.34,43.57,43.57,0,0,0,4.84-4.28,8.59,8.59,0,0,1,5.8-2.66v0a8.4,8.4,0,0,0-5.64,2.78,45.25,45.25,0,0,1-4.8,4.37,11.22,11.22,0,0,0-2.2,2.31,10,10,0,0,0-1.57,2.75,10.57,10.57,0,0,0-.17,6.25,19.63,19.63,0,0,0,2.84,5.7,27.33,27.33,0,0,0,4.25,4.81,20.32,20.32,0,0,0,5.07,3.87,14.42,14.42,0,0,0,6.19,1.38,13.93,13.93,0,0,0,6.17-1.47,19.83,19.83,0,0,0,5.32-3.56,13.5,13.5,0,0,0,3.36-5.39,22.69,22.69,0,0,0,.93-6.35A21.27,21.27,0,0,0,167,123.9a20.67,20.67,0,0,0-4.4-4.7,8.11,8.11,0,0,0-2.82-1.51,6.42,6.42,0,0,0-3.2.07Z" transform="translate(-17.56 -15.36)"/><path class="cls-1" d="M203.73,149.53a22.69,22.69,0,0,1-1.95,2.68,18.91,18.91,0,0,1-3.43,3.31,12.35,12.35,0,0,1-7.06,2.1" transform="translate(-17.56 -15.36)"/><path class="cls-2" d="M203.75,149.55a25,25,0,0,1-2.25,3.18,17.76,17.76,0,0,1-2.78,2.77,10.12,10.12,0,0,1-3.52,1.79,11.25,11.25,0,0,1-3.91.35v0a18.83,18.83,0,0,0,3.77-.78,12.43,12.43,0,0,0,3.43-1.63,17.46,17.46,0,0,0,2.83-2.61,26.17,26.17,0,0,0,2.4-3Z" transform="translate(-17.56 -15.36)"/><path class="cls-1" d="M186,124.08a16.31,16.31,0,0,1-.37,2.34,13.45,13.45,0,0,1-1.12,3.21,8.8,8.8,0,0,1-3.81,3.61" transform="translate(-17.56 -15.36)"/><path class="cls-2" d="M186.07,124.09c-.13.91-.2,1.85-.38,2.76a12.79,12.79,0,0,1-.86,2.67,6.92,6.92,0,0,1-1.66,2.3,7.3,7.3,0,0,1-2.42,1.44l0,0a15.66,15.66,0,0,0,2.1-1.76,9.66,9.66,0,0,0,1.66-2.11,13.12,13.12,0,0,0,1-2.56c.24-.89.37-1.8.57-2.71Z" transform="translate(-17.56 -15.36)"/><path class="cls-3" d="M149.06,125.93a7.34,7.34,0,0,0-.4-2.09,15.12,15.12,0,0,0-1.23-2.28c-1-1.79-1.13-2.38-1.75-2.52-.45-.11-1,.06-1.13.37s.21.67.47,1c.62.77,1,1.7,1.58,2.52a11.87,11.87,0,0,1,1.63,3.47" transform="translate(-17.56 -15.36)"/><path class="cls-1" d="M161,125.15a6.41,6.41,0,0,0-1.29-1,6.07,6.07,0,0,0-3-.9c-1.07,0-2,.38-3.76,1.18-.9.41-1.84.91-2.44,1.23-.75.4-1.21.62-2.11,1.07-1.09.53-1.43.68-1.9.64a3.29,3.29,0,0,1-1.47-.7,4.72,4.72,0,0,0-3.42-.35" transform="translate(-17.56 -15.36)"/><path class="cls-2" d="M161,125.17a6,6,0,0,0-4.69-1.8,8.52,8.52,0,0,0-2.44.84c-.8.35-1.56.78-2.34,1.18l-2.33,1.22c-.39.2-.77.41-1.18.6a3.05,3.05,0,0,1-1.36.39,2.28,2.28,0,0,1-1.32-.54,3.63,3.63,0,0,0-1.1-.58,6.1,6.1,0,0,0-2.56-.16v0a5.39,5.39,0,0,1,2.65-.13,3.63,3.63,0,0,1,1.25.56,1.86,1.86,0,0,0,1.09.4,2.61,2.61,0,0,0,1.13-.36l1.18-.57,2.37-1.14c.79-.38,1.58-.79,2.39-1.12a9.16,9.16,0,0,1,2.54-.79,6.23,6.23,0,0,1,4.76,2Z" transform="translate(-17.56 -15.36)"/><path class="cls-1" d="M142.69,128.5a4.86,4.86,0,0,0-1.62,1.25,5.57,5.57,0,0,0-1.13,3.14,12.55,12.55,0,0,0,1,6,20.43,20.43,0,0,0,2.62,4.89" transform="translate(-17.56 -15.36)"/><path class="cls-2" d="M142.7,128.52a4.45,4.45,0,0,0-2.44,3.25,9.82,9.82,0,0,0,0,4.18,25.12,25.12,0,0,0,1.38,4,28.68,28.68,0,0,0,1.92,3.79l0,0a16.25,16.25,0,0,1-3.65-7.74,10.26,10.26,0,0,1,.13-4.31,5.14,5.14,0,0,1,1-2,4.91,4.91,0,0,1,1.72-1.28Z" transform="translate(-17.56 -15.36)"/><path class="cls-1" d="M234.29,144.36a9.24,9.24,0,0,1,2.64,2.39c.79,1.06,1.78,2.91,1.85,7.25a27.7,27.7,0,0,1-1.72,10.55A30.42,30.42,0,0,1,228,177.33c-2.51,2.07-6.16,5.1-11.77,5.89a22.44,22.44,0,0,1-10.31-1.17,21.69,21.69,0,0,1-8.16-4.36,20.45,20.45,0,0,1-5.68-8.32c-1.13-3.09-1.16-5.49-1.19-9.46a36.76,36.76,0,0,1,1.36-11.36,20,20,0,0,1,3.89-8.11,14.26,14.26,0,0,1,4.64-3.78,15.58,15.58,0,0,1,6.43-1.49c3-.19,3.07.34,8,.71s6.11,0,8.61,1a13.1,13.1,0,0,1,4,2.47" transform="translate(-17.56 -15.36)"/><path class="cls-2" d="M234.3,144.33a9,9,0,0,1,3.18,3.21,11.43,11.43,0,0,1,1.23,4.36,29.34,29.34,0,0,1-.51,9.06,30.09,30.09,0,0,1-9.07,15.51,32.54,32.54,0,0,1-7.43,5.25,19.46,19.46,0,0,1-8.89,1.84,28.62,28.62,0,0,1-8.89-2,20.09,20.09,0,0,1-7.62-5,20.73,20.73,0,0,1-4.7-7.8c-1-2.93-1-6.06-1-9.07a38.09,38.09,0,0,1,.82-9.09c.33-1.49.76-3,1.23-4.4a19.23,19.23,0,0,1,1.93-4.17,15.33,15.33,0,0,1,6.86-6,14.71,14.71,0,0,1,4.46-1,16.73,16.73,0,0,1,4.58.08,63.4,63.4,0,0,0,9,.81,11.17,11.17,0,0,1,4.46.85,13.37,13.37,0,0,1,3.82,2.46l0,0a11.9,11.9,0,0,0-8.26-3.12,62.53,62.53,0,0,1-9.07-.71,16.07,16.07,0,0,0-4.49,0,14,14,0,0,0-4.34,1,14.93,14.93,0,0,0-6.6,5.86,28.33,28.33,0,0,0-3.1,8.41,38.07,38.07,0,0,0-.81,9c0,3,0,6.08.94,8.93a20.3,20.3,0,0,0,4.57,7.66,19.64,19.64,0,0,0,7.46,4.9,28.09,28.09,0,0,0,8.77,2,19.17,19.17,0,0,0,8.76-1.77,32,32,0,0,0,7.38-5.18,29.79,29.79,0,0,0,9.09-15.35,29.39,29.39,0,0,0,.56-9,11.46,11.46,0,0,0-1.19-4.34,9,9,0,0,0-3.14-3.19Z" transform="translate(-17.56 -15.36)"/><path class="cls-1" d="M227.28,140.76a4.7,4.7,0,0,1,.84-2.11,10.22,10.22,0,0,1,2.31-2.75,9.36,9.36,0,0,1,6.93-2A13.16,13.16,0,0,1,244.6,137c2.1,1.74,3.13,3.64,4.47,6.11a25,25,0,0,1,1.86,4.3,22.79,22.79,0,0,1,.93,4.38,3.68,3.68,0,0,0-1.54-2.28,3.63,3.63,0,0,0-1.29-.4,14.55,14.55,0,0,1-3.65-1.45c-1.47-.77-1.17-1-2.72-1.86a15.26,15.26,0,0,0-4-1.6,14.09,14.09,0,0,0-3.84-.41,19.7,19.7,0,0,1-3.42.2,8.21,8.21,0,0,1-2.67-.84,2.41,2.41,0,0,1-1.25-1A2.17,2.17,0,0,1,227.28,140.76Z" transform="translate(-17.56 -15.36)"/><path class="cls-2" d="M227.25,140.76a9.49,9.49,0,0,1,6.34-6.61,10.32,10.32,0,0,1,4.75-.27,12.3,12.3,0,0,1,4.49,1.65,14.24,14.24,0,0,1,3.65,3.09,25.6,25.6,0,0,1,2.58,4,24.18,24.18,0,0,1,3,9.05l-.45.09a3,3,0,0,0-2.11-2.38,13.11,13.11,0,0,1-3.46-1.18,15,15,0,0,1-1.61-.88c-.54-.37-.93-.79-1.43-1.09a16.22,16.22,0,0,0-3.19-1.55,14.27,14.27,0,0,0-7-.65,7.17,7.17,0,0,1-3.57-.64,5.06,5.06,0,0,1-1.55-1A2,2,0,0,1,227.25,140.76Zm.05,0a2,2,0,0,0,.45,1.65,5.1,5.1,0,0,0,1.54.88,7,7,0,0,0,3.48.53,14.6,14.6,0,0,1,7.21.48,13.9,13.9,0,0,1,3.32,1.54c.53.32,1,.79,1.44,1.1a14.29,14.29,0,0,0,1.55.84,12.77,12.77,0,0,0,3.35,1.15,2.75,2.75,0,0,1,1.62,1,4.62,4.62,0,0,1,.82,1.7l-.44.08a23.46,23.46,0,0,0-2.9-8.93,24.7,24.7,0,0,0-2.5-4,14.07,14.07,0,0,0-3.55-3.06,12.57,12.57,0,0,0-4.38-1.68,10.14,10.14,0,0,0-4.68.19A9.35,9.35,0,0,0,227.3,140.77Z" transform="translate(-17.56 -15.36)"/><path class="cls-1" d="M227.39,140.48a9.65,9.65,0,0,1-2.26,1.21,12.25,12.25,0,0,1-2.46.59,21.39,21.39,0,0,1-2.44.25" transform="translate(-17.56 -15.36)"/><path class="cls-2" d="M227.41,140.5a9,9,0,0,1-3.39,1.73,8.57,8.57,0,0,1-1.87.35,11.07,11.07,0,0,1-1.91,0v-.05a12.6,12.6,0,0,1,1.85-.42c.61-.09,1.25-.15,1.85-.25a9.92,9.92,0,0,0,3.45-1.38Z" transform="translate(-17.56 -15.36)"/><path class="cls-3" d="M218.74,144.61a10.46,10.46,0,0,0,1.74-2.42,20.21,20.21,0,0,0,1.15-3.45c.86-2.72,1.33-3.44.89-4.2-.33-.56-1-1-1.47-.81s-.49.87-.57,1.45c-.19,1.37-.76,2.67-1,4a16.33,16.33,0,0,1-2,5" transform="translate(-17.56 -15.36)"/><path class="cls-1" d="M231,156.05a9,9,0,0,0-2.11-6.18c-1-1.12-2.28-1.65-4.83-2.7-1.28-.53-2.69-1-3.6-1.31-1.12-.39-1.79-.63-3.11-1.13-1.59-.59-2.07-.8-2.48-1.32a4.52,4.52,0,0,1-.7-2.16,6.71,6.71,0,0,0-2.93-3.84" transform="translate(-17.56 -15.36)"/><path class="cls-2" d="M231,156a8.52,8.52,0,0,0-2.66-6.56,12.47,12.47,0,0,0-3.21-1.7c-1.13-.48-2.29-.86-3.45-1.27l-3.48-1.21-1.73-.64a4.39,4.39,0,0,1-1.68-1,3.08,3.08,0,0,1-.7-1.81,5,5,0,0,0-.5-1.7,8.21,8.21,0,0,0-2.35-2.74l0,0a7.64,7.64,0,0,1,2.63,2.61,5.12,5.12,0,0,1,.61,1.8,2.72,2.72,0,0,0,.65,1.55,3.92,3.92,0,0,0,1.49.84c.57.23,1.15.43,1.72.64l3.45,1.3c1.15.44,2.32.85,3.44,1.35a12.44,12.44,0,0,1,3.24,1.81,8.69,8.69,0,0,1,2.55,6.76Z" transform="translate(-17.56 -15.36)"/><path class="cls-1" d="M210,140.59a6.78,6.78,0,0,0-2.83-.46,7.77,7.77,0,0,0-4.29,1.86,17.63,17.63,0,0,0-5.13,6.76,28.72,28.72,0,0,0-2.48,7.36" transform="translate(-17.56 -15.36)"/><path class="cls-2" d="M210,140.61a6.64,6.64,0,0,0-2.93-.39,6.73,6.73,0,0,0-2.76,1,14,14,0,0,0-4.29,4,33.74,33.74,0,0,0-2.78,5.25,37.49,37.49,0,0,0-1.93,5.64h0a23.63,23.63,0,0,1,1.52-5.83,25.43,25.43,0,0,1,2.92-5.28,14.29,14.29,0,0,1,4.49-4,6.91,6.91,0,0,1,2.87-.91,6.79,6.79,0,0,1,3,.49Z" transform="translate(-17.56 -15.36)"/><path class="cls-1" d="M222.06,175a22.69,22.69,0,0,1-1.95,2.68,18.9,18.9,0,0,1-3.43,3.32,12.45,12.45,0,0,1-7.07,2.09" transform="translate(-17.56 -15.36)"/><path class="cls-2" d="M222.08,175a24.35,24.35,0,0,1-2.25,3.18,16.94,16.94,0,0,1-2.78,2.77,10.12,10.12,0,0,1-3.52,1.79,11.26,11.26,0,0,1-3.91.36V183a19.57,19.57,0,0,0,3.77-.79,12.43,12.43,0,0,0,3.43-1.63,17.46,17.46,0,0,0,2.83-2.61,25.36,25.36,0,0,0,2.4-3Z" transform="translate(-17.56 -15.36)"/></svg>